M48
; DRILL file {KiCad 8.0.6} date 2024-11-29T22:56:38+0100
; FORMAT={-:-/ absolute / inch / decimal}
; #@! TF.CreationDate,2024-11-29T22:56:38+01:00
; #@! TF.GenerationSoftware,Kicad,Pcbnew,8.0.6
; #@! TF.FileFunction,Plated,1,6,PTH
FMAT,2
INCH
; #@! TA.AperFunction,Plated,PTH,ViaDrill
T1C0.0118
; #@! TA.AperFunction,Plated,PTH,ComponentDrill
T2C0.0118
; #@! TA.AperFunction,Plated,PTH,ViaDrill
T3C0.0157
; #@! TA.AperFunction,Plated,PTH,ViaDrill
T4C0.0197
; #@! TA.AperFunction,Plated,PTH,ComponentDrill
T5C0.0256
; #@! TA.AperFunction,Plated,PTH,ViaDrill
T6C0.0315
; #@! TA.AperFunction,Plated,PTH,ComponentDrill
T7C0.0394
; #@! TA.AperFunction,Plated,PTH,ComponentDrill
T8C0.0402
; #@! TA.AperFunction,Plated,PTH,ComponentDrill
T9C0.0787
; #@! TA.AperFunction,Plated,PTH,ComponentDrill
T10C0.1260
%
G90
G05
T1
X1.45Y-3.82
X1.48Y-3.76
X1.5Y-4.11
X1.5023Y-5.22
X1.53Y-3.925
X1.55Y-3.73
X1.56Y-4.11
X1.6Y-3.645
X1.62Y-5.34
X1.63Y-4.855
X1.64Y-3.88
X1.64Y-5.3809
X1.64Y-5.61
X1.6674Y-3.73
X1.67Y-3.84
X1.68Y-5.0574
X1.68Y-7.3526
X1.68Y-7.21
X1.69Y-5.2
X1.69Y-6.8
X1.69Y-7.0
X1.71Y-3.885
X1.71Y-7.15
X1.722Y-5.262
X1.74Y-6.97
X1.744Y-7.12
X1.75Y-7.27
X1.754Y-5.29
X1.76Y-5.14
X1.78Y-6.84
X1.78Y-6.9
X1.78Y-6.95
X1.79Y-5.42
X1.79Y-5.46
X1.79Y-5.51
X1.79Y-5.57
X1.79Y-7.1043
X1.7925Y-3.6025
X1.8039Y-3.78
X1.89Y-7.3626
X1.91Y-5.0474
X1.99Y-7.3626
X2.0Y-5.0474
X2.0361Y-3.78
X2.08Y-7.3626
X2.1Y-5.0474
X2.1168Y-3.9668
X2.156Y-3.73
X2.2Y-5.3057
X2.2Y-6.84
X2.2Y-6.9
X2.2Y-6.95
X2.2Y-6.99
X2.21Y-5.46
X2.21Y-5.51
X2.21Y-5.57
X2.23Y-7.27
X2.236Y-7.12
X2.24Y-5.14
X2.246Y-5.29
X2.268Y-7.148
X2.28Y-5.26
X2.29Y-1.285
X2.3Y-7.3526
X2.3Y-7.21
X2.31Y-5.0574
X2.31Y-5.2
X2.41Y-1.34
X2.41Y-1.715
X2.47Y-4.6874
X2.47Y-4.9226
X2.47Y-7.4874
X2.47Y-7.7126
X2.48Y-5.37
X2.485Y-7.04
X2.62Y-5.0574
X2.631Y-5.1966
X2.64Y-7.3526
X2.642Y-7.21
X2.663Y-5.2585
X2.672Y-7.15
X2.695Y-5.2866
X2.701Y-5.1366
X2.706Y-7.12
X2.712Y-7.27
X2.731Y-5.4566
X2.731Y-5.5066
X2.731Y-5.5666
X2.7314Y-5.4236
X2.742Y-6.84
X2.742Y-6.9
X2.742Y-6.95
X2.752Y-7.1043
X2.85Y-5.0474
X2.85Y-7.3626
X2.88Y-6.09
X2.88Y-6.2926
X2.94Y-5.0474
X2.95Y-7.3626
X2.954Y-6.12
X3.0289Y-6.1511
X3.03Y-6.23
X3.04Y-5.0474
X3.04Y-7.3626
X3.141Y-5.3023
X3.151Y-5.4566
X3.151Y-5.5066
X3.151Y-5.5666
X3.162Y-6.84
X3.162Y-6.9
X3.162Y-6.95
X3.162Y-6.99
X3.181Y-5.1366
X3.187Y-5.2866
X3.192Y-7.27
X3.198Y-7.12
X3.221Y-5.2566
X3.23Y-7.148
X3.251Y-5.1966
X3.26Y-5.0574
X3.262Y-7.21
X3.27Y-7.3526
X3.37Y-1.99
X3.37Y-2.39
X3.37Y-2.79
X3.37Y-3.19
X3.37Y-3.59
X3.37Y-3.99
X3.4Y-1.92
X3.4Y-2.32
X3.4Y-2.72
X3.4Y-3.12
X3.4Y-3.52
X3.4Y-3.92
X3.41Y-2.39
X3.41Y-2.79
X3.41Y-3.19
X3.41Y-3.59
X3.41Y-3.99
X3.41Y-1.99
X3.42Y-4.6874
X3.42Y-4.9126
X3.42Y-5.3666
X3.42Y-7.4874
X3.42Y-7.7126
X3.44Y-7.04
X3.59Y-5.0574
X3.5983Y-5.1966
X3.6Y-7.3526
X3.604Y-7.21
X3.6302Y-5.2585
X3.634Y-7.15
X3.64Y-2.0
X3.64Y-2.4
X3.64Y-2.8
X3.64Y-3.2
X3.64Y-3.6
X3.64Y-4.0
X3.6622Y-5.2866
X3.668Y-7.12
X3.6683Y-5.1366
X3.674Y-7.27
X3.69Y-1.9288
X3.69Y-2.3288
X3.69Y-2.7288
X3.69Y-3.1288
X3.69Y-3.5288
X3.69Y-3.9288
X3.6983Y-5.4166
X3.6983Y-5.4566
X3.6983Y-5.5066
X3.6983Y-5.5666
X3.704Y-6.84
X3.704Y-6.9
X3.704Y-6.95
X3.714Y-7.1043
X3.81Y-7.3626
X3.82Y-5.0474
X3.91Y-5.0474
X3.91Y-7.3626
X3.9526Y-1.99
X3.9526Y-2.39
X3.9526Y-2.79
X3.9526Y-3.19
X3.9526Y-3.59
X3.9526Y-3.99
X4.0Y-7.3626
X4.01Y-5.0474
X4.1083Y-5.3023
X4.1183Y-5.4566
X4.1183Y-5.5066
X4.1183Y-5.5666
X4.124Y-6.84
X4.124Y-6.9
X4.124Y-6.95
X4.124Y-6.99
X4.1483Y-5.1366
X4.154Y-7.27
X4.1543Y-5.2866
X4.16Y-7.12
X4.1883Y-5.2566
X4.192Y-7.148
X4.2183Y-5.1966
X4.22Y-5.0574
X4.224Y-7.21
X4.23Y-7.3526
X4.37Y-4.6874
X4.37Y-4.9126
X4.37Y-7.4874
X4.37Y-7.7126
X4.385Y-5.3666
X4.39Y-7.04
X4.56Y-5.0574
X4.56Y-7.3526
X4.5655Y-5.1966
X4.566Y-7.21
X4.596Y-7.15
X4.5975Y-5.2585
X4.6295Y-5.2866
X4.63Y-7.12
X4.6355Y-5.1366
X4.636Y-7.27
X4.6655Y-5.4166
X4.6655Y-5.4566
X4.6655Y-5.5066
X4.6655Y-5.5666
X4.666Y-6.84
X4.666Y-6.9
X4.666Y-6.95
X4.676Y-7.1043
X4.78Y-7.3626
X4.79Y-5.0474
X4.88Y-5.0474
X4.88Y-7.3626
X4.9Y-1.53
X4.9Y-1.59
X4.9Y-1.65
X4.9126Y-1.81
X4.94Y-1.56
X4.94Y-1.62
X4.94Y-1.68
X4.945Y-1.92
X4.9494Y-4.2406
X4.9666Y-4.0366
X4.97Y-7.3626
X4.98Y-5.0474
X4.9874Y-1.81
X5.0225Y-1.4425
X5.0294Y-4.0339
X5.0394Y-4.2374
X5.06Y-1.75
X5.0755Y-5.3023
X5.0855Y-5.4566
X5.0855Y-5.5066
X5.0855Y-5.5666
X5.086Y-6.84
X5.086Y-6.9
X5.086Y-6.95
X5.086Y-6.99
X5.09Y-1.45
X5.1155Y-5.1366
X5.116Y-7.27
X5.1215Y-5.2866
X5.122Y-7.12
X5.14Y-1.44
X5.15Y-1.41
X5.15Y-1.9626
X5.154Y-7.148
X5.1555Y-5.2566
X5.17Y-1.79
X5.1855Y-5.1966
X5.186Y-7.21
X5.19Y-5.0574
X5.19Y-7.3526
X5.1927Y-1.3801
X5.2026Y-2.15
X5.23Y-1.9626
X5.2364Y-1.4132
X5.25Y-3.6074
X5.25Y-3.79
X5.2664Y-1.41
X5.3Y-1.42
X5.31Y-1.9626
X5.33Y-1.46
X5.33Y-1.73
X5.33Y-4.6874
X5.33Y-4.9126
X5.33Y-7.4874
X5.33Y-7.7226
X5.35Y-3.3074
X5.35Y-3.4926
X5.35Y-3.6074
X5.355Y-7.04
X5.36Y-5.3666
X5.37Y-1.2474
X5.3865Y-3.79
X5.39Y-1.565
X5.39Y-1.9626
X5.405Y-1.42
X5.405Y-1.615
X5.45Y-1.2474
X5.45Y-3.6174
X5.45Y-3.79
X5.4574Y-1.75
X5.47Y-1.515
X5.47Y-1.9626
X5.52Y-7.3526
X5.528Y-7.21
X5.53Y-1.13
X5.53Y-1.2474
X5.53Y-3.47
X5.53Y-5.0574
X5.5328Y-5.1966
X5.55Y-3.42
X5.558Y-7.15
X5.5647Y-5.2585
X5.585Y-1.075
X5.59Y-2.14
X5.59Y-2.9074
X5.592Y-7.12
X5.5925Y-3.3
X5.595Y-3.085
X5.5967Y-5.2866
X5.598Y-7.27
X5.6026Y-1.92
X5.6028Y-5.1366
X5.62Y-1.53
X5.62Y-1.8
X5.6226Y-1.44
X5.6226Y-1.67
X5.6226Y-1.75
X5.628Y-6.84
X5.628Y-6.9
X5.628Y-6.95
X5.6328Y-5.4166
X5.6328Y-5.4566
X5.6328Y-5.5066
X5.6328Y-5.5666
X5.638Y-7.1043
X5.67Y-3.08
X5.6934Y-3.2566
X5.71Y-3.39
X5.71Y-3.43
X5.74Y-2.9074
X5.74Y-3.08
X5.74Y-7.3626
X5.75Y-3.6074
X5.75Y-3.78
X5.75Y-5.0474
X5.78Y-6.09
X5.78Y-6.2926
X5.8268Y-6.2668
X5.84Y-2.38
X5.84Y-5.0474
X5.84Y-7.3626
X5.8465Y-6.1265
X5.85Y-3.6074
X5.8865Y-3.78
X5.89Y-2.14
X5.895Y-1.98
X5.9Y-6.17
X5.9Y-6.23
X5.93Y-7.3626
X5.94Y-5.0474
X5.95Y-3.6074
X5.95Y-3.78
X5.99Y-2.0074
X6.0428Y-5.3023
X6.048Y-6.84
X6.048Y-6.9
X6.048Y-6.95
X6.048Y-6.99
X6.0528Y-5.4566
X6.0528Y-5.5066
X6.0528Y-5.5666
X6.078Y-7.27
X6.0828Y-5.1366
X6.084Y-7.12
X6.0888Y-5.2866
X6.116Y-7.148
X6.1228Y-5.2566
X6.148Y-7.21
X6.15Y-7.3526
X6.1528Y-5.1966
X6.16Y-5.0574
X6.3Y-4.6874
X6.3Y-4.9126
X6.3Y-7.04
X6.3Y-7.4874
X6.3Y-7.7226
X6.325Y-5.3666
X6.345Y-1.98
X6.3574Y-2.42
X6.3574Y-3.05
X6.49Y-2.9774
X6.49Y-7.21
X6.49Y-7.3526
X6.5Y-5.0574
X6.5Y-5.1966
X6.52Y-7.15
X6.532Y-5.2585
X6.554Y-7.12
X6.56Y-7.27
X6.564Y-5.2866
X6.57Y-5.1366
X6.59Y-6.84
X6.59Y-6.9
X6.59Y-6.95
X6.6Y-5.4166
X6.6Y-5.4566
X6.6Y-5.5066
X6.6Y-5.5666
X6.6Y-7.1043
X6.7Y-7.3626
X6.72Y-5.0474
X6.775Y-2.02
X6.8Y-7.3626
X6.81Y-5.0474
X6.89Y-7.3626
X6.91Y-5.0474
X6.96Y-6.0826
X6.96Y-6.4826
X6.965Y-2.13
X7.01Y-5.3023
X7.01Y-5.9526
X7.01Y-6.3526
X7.01Y-6.84
X7.01Y-6.9
X7.01Y-6.95
X7.01Y-6.99
X7.02Y-5.4566
X7.02Y-5.5066
X7.02Y-5.5666
X7.04Y-7.27
X7.04Y-3.67
X7.04Y-3.86
X7.045Y-1.93
X7.046Y-7.12
X7.05Y-5.1366
X7.056Y-5.2866
X7.07Y-5.89
X7.078Y-7.148
X7.09Y-5.2566
X7.11Y-7.21
X7.11Y-7.3526
X7.12Y-5.0574
X7.12Y-5.1966
X7.14Y-5.695
X7.19Y-3.7426
X7.2275Y-4.0675
X7.28Y-4.015
X7.2926Y-6.03
X7.2926Y-6.43
X7.33Y-3.95
X7.33Y-6.08
X7.33Y-6.49
X7.4Y-5.95
X7.4Y-6.35
T2
X3.4988Y-1.798
X3.4988Y-1.85
X3.4988Y-1.902
X3.4988Y-2.198
X3.4988Y-2.25
X3.4988Y-2.302
X3.4988Y-2.598
X3.4988Y-2.65
X3.4988Y-2.702
X3.4988Y-2.998
X3.4988Y-3.05
X3.4988Y-3.102
X3.4988Y-3.398
X3.4988Y-3.45
X3.4988Y-3.502
X3.4988Y-3.798
X3.4988Y-3.85
X3.4988Y-3.902
X3.55Y-1.798
X3.55Y-2.198
X3.55Y-2.598
X3.55Y-2.998
X3.55Y-3.398
X3.55Y-3.798
X3.55Y-1.7555
X3.55Y-1.85
X3.55Y-1.902
X3.55Y-2.1555
X3.55Y-2.25
X3.55Y-2.302
X3.55Y-2.5555
X3.55Y-2.65
X3.55Y-2.702
X3.55Y-2.9555
X3.55Y-3.05
X3.55Y-3.102
X3.55Y-3.3555
X3.55Y-3.45
X3.55Y-3.502
X3.55Y-3.7555
X3.55Y-3.85
X3.55Y-3.902
X3.55Y-1.9445
X3.55Y-2.3445
X3.55Y-2.7445
X3.55Y-3.1445
X3.55Y-3.5445
X3.55Y-3.9445
X3.6012Y-1.798
X3.6012Y-1.85
X3.6012Y-1.902
X3.6012Y-2.198
X3.6012Y-2.25
X3.6012Y-2.302
X3.6012Y-2.598
X3.6012Y-2.65
X3.6012Y-2.702
X3.6012Y-2.998
X3.6012Y-3.05
X3.6012Y-3.102
X3.6012Y-3.398
X3.6012Y-3.45
X3.6012Y-3.502
X3.6012Y-3.798
X3.6012Y-3.85
X3.6012Y-3.902
X5.1281Y-1.573
X5.1281Y-1.627
X5.173Y-1.5281
X5.173Y-1.573
X5.173Y-1.627
X5.173Y-1.6719
X5.227Y-1.5281
X5.227Y-1.573
X5.227Y-1.627
X5.227Y-1.6719
X5.2719Y-1.573
X5.2719Y-1.627
T3
X1.9034Y-6.885
X1.9034Y-6.965
X1.9034Y-7.0063
X1.9034Y-7.045
X1.9034Y-7.0863
X1.9034Y-7.14
X1.9034Y-7.1813
X1.9064Y-5.2287
X1.9064Y-5.27
X1.9064Y-5.3237
X1.9064Y-5.365
X1.9064Y-5.4037
X1.9064Y-5.445
X1.9064Y-5.525
X1.9487Y-6.885
X1.9487Y-6.965
X1.9487Y-7.0063
X1.9487Y-7.045
X1.9487Y-7.0863
X1.9487Y-7.14
X1.9487Y-7.1813
X1.9517Y-5.2287
X1.9517Y-5.27
X1.9517Y-5.3237
X1.9517Y-5.365
X1.9517Y-5.4037
X1.9517Y-5.445
X1.9517Y-5.525
X1.99Y-6.885
X1.99Y-6.965
X1.99Y-7.0063
X1.99Y-7.0863
X1.995Y-5.3237
X1.995Y-5.4037
X1.995Y-5.445
X1.995Y-5.525
X2.0333Y-6.885
X2.0333Y-6.965
X2.0333Y-7.0063
X2.0333Y-7.045
X2.0333Y-7.0863
X2.0333Y-7.14
X2.0333Y-7.1813
X2.0363Y-5.2287
X2.0363Y-5.27
X2.0363Y-5.3237
X2.0363Y-5.365
X2.0363Y-5.4037
X2.0363Y-5.445
X2.0363Y-5.525
X2.0786Y-6.885
X2.0786Y-6.965
X2.0786Y-7.0063
X2.0786Y-7.045
X2.0786Y-7.0863
X2.0786Y-7.14
X2.0786Y-7.1813
X2.0816Y-5.2287
X2.0816Y-5.27
X2.0816Y-5.3237
X2.0816Y-5.365
X2.0816Y-5.4037
X2.0816Y-5.445
X2.0816Y-5.525
X2.8514Y-5.2287
X2.8514Y-5.27
X2.8514Y-5.3237
X2.8514Y-5.365
X2.8514Y-5.4037
X2.8514Y-5.445
X2.8514Y-5.525
X2.8634Y-6.885
X2.8634Y-6.965
X2.8634Y-7.0063
X2.8634Y-7.045
X2.8634Y-7.0863
X2.8634Y-7.14
X2.8634Y-7.1813
X2.8967Y-5.2287
X2.8967Y-5.27
X2.8967Y-5.3237
X2.8967Y-5.365
X2.8967Y-5.4037
X2.8967Y-5.445
X2.8967Y-5.525
X2.9087Y-6.885
X2.9087Y-6.965
X2.9087Y-7.0063
X2.9087Y-7.045
X2.9087Y-7.0863
X2.9087Y-7.14
X2.9087Y-7.1813
X2.94Y-5.3237
X2.94Y-5.4037
X2.94Y-5.445
X2.94Y-5.525
X2.95Y-6.885
X2.95Y-6.965
X2.95Y-7.0063
X2.95Y-7.0863
X2.9813Y-5.2287
X2.9813Y-5.27
X2.9813Y-5.3237
X2.9813Y-5.365
X2.9813Y-5.4037
X2.9813Y-5.445
X2.9813Y-5.525
X2.9933Y-6.885
X2.9933Y-6.965
X2.9933Y-7.0063
X2.9933Y-7.045
X2.9933Y-7.0863
X2.9933Y-7.14
X2.9933Y-7.1813
X3.0266Y-5.2287
X3.0266Y-5.27
X3.0266Y-5.3237
X3.0266Y-5.365
X3.0266Y-5.4037
X3.0266Y-5.445
X3.0266Y-5.525
X3.0386Y-6.885
X3.0386Y-6.965
X3.0386Y-7.0063
X3.0386Y-7.045
X3.0386Y-7.0863
X3.0386Y-7.14
X3.0386Y-7.1813
X3.8164Y-5.2287
X3.8164Y-5.27
X3.8164Y-5.3237
X3.8164Y-5.365
X3.8164Y-5.4037
X3.8164Y-5.445
X3.8164Y-5.525
X3.8234Y-6.885
X3.8234Y-6.965
X3.8234Y-7.0063
X3.8234Y-7.045
X3.8234Y-7.0863
X3.8234Y-7.14
X3.8234Y-7.1813
X3.8617Y-5.2287
X3.8617Y-5.27
X3.8617Y-5.3237
X3.8617Y-5.365
X3.8617Y-5.4037
X3.8617Y-5.445
X3.8617Y-5.525
X3.8687Y-6.885
X3.8687Y-6.965
X3.8687Y-7.0063
X3.8687Y-7.045
X3.8687Y-7.0863
X3.8687Y-7.14
X3.8687Y-7.1813
X3.905Y-5.3237
X3.905Y-5.4037
X3.905Y-5.445
X3.905Y-5.525
X3.91Y-6.885
X3.91Y-6.965
X3.91Y-7.0063
X3.91Y-7.0863
X3.9463Y-5.2287
X3.9463Y-5.27
X3.9463Y-5.3237
X3.9463Y-5.365
X3.9463Y-5.4037
X3.9463Y-5.445
X3.9463Y-5.525
X3.9533Y-6.885
X3.9533Y-6.965
X3.9533Y-7.0063
X3.9533Y-7.045
X3.9533Y-7.0863
X3.9533Y-7.14
X3.9533Y-7.1813
X3.9916Y-5.2287
X3.9916Y-5.27
X3.9916Y-5.3237
X3.9916Y-5.365
X3.9916Y-5.4037
X3.9916Y-5.445
X3.9916Y-5.525
X3.9986Y-6.885
X3.9986Y-6.965
X3.9986Y-7.0063
X3.9986Y-7.045
X3.9986Y-7.0863
X3.9986Y-7.14
X3.9986Y-7.1813
X4.7864Y-5.2287
X4.7864Y-5.27
X4.7864Y-5.3237
X4.7864Y-5.365
X4.7864Y-5.4037
X4.7864Y-5.445
X4.7864Y-5.525
X4.7884Y-6.885
X4.7884Y-6.965
X4.7884Y-7.0063
X4.7884Y-7.045
X4.7884Y-7.0863
X4.7884Y-7.14
X4.7884Y-7.1813
X4.8317Y-5.2287
X4.8317Y-5.27
X4.8317Y-5.3237
X4.8317Y-5.365
X4.8317Y-5.4037
X4.8317Y-5.445
X4.8317Y-5.525
X4.8337Y-6.885
X4.8337Y-6.965
X4.8337Y-7.0063
X4.8337Y-7.045
X4.8337Y-7.0863
X4.8337Y-7.14
X4.8337Y-7.1813
X4.875Y-5.3237
X4.875Y-5.4037
X4.875Y-5.445
X4.875Y-5.525
X4.875Y-6.885
X4.875Y-6.965
X4.875Y-7.0063
X4.875Y-7.0863
X4.9163Y-5.2287
X4.9163Y-5.27
X4.9163Y-5.3237
X4.9163Y-5.365
X4.9163Y-5.4037
X4.9163Y-5.445
X4.9163Y-5.525
X4.9183Y-6.885
X4.9183Y-6.965
X4.9183Y-7.0063
X4.9183Y-7.045
X4.9183Y-7.0863
X4.9183Y-7.14
X4.9183Y-7.1813
X4.9616Y-5.2287
X4.9616Y-5.27
X4.9616Y-5.3237
X4.9616Y-5.365
X4.9616Y-5.4037
X4.9616Y-5.445
X4.9616Y-5.525
X4.9636Y-6.885
X4.9636Y-6.965
X4.9636Y-7.0063
X4.9636Y-7.045
X4.9636Y-7.0863
X4.9636Y-7.14
X4.9636Y-7.1813
X5.7534Y-6.885
X5.7534Y-6.965
X5.7534Y-7.0063
X5.7534Y-7.045
X5.7534Y-7.0863
X5.7534Y-7.14
X5.7534Y-7.1813
X5.7564Y-5.2287
X5.7564Y-5.27
X5.7564Y-5.3237
X5.7564Y-5.365
X5.7564Y-5.4037
X5.7564Y-5.445
X5.7564Y-5.525
X5.7987Y-6.885
X5.7987Y-6.965
X5.7987Y-7.0063
X5.7987Y-7.045
X5.7987Y-7.0863
X5.7987Y-7.14
X5.7987Y-7.1813
X5.8017Y-5.2287
X5.8017Y-5.27
X5.8017Y-5.3237
X5.8017Y-5.365
X5.8017Y-5.4037
X5.8017Y-5.445
X5.8017Y-5.525
X5.84Y-6.885
X5.84Y-6.965
X5.84Y-7.0063
X5.84Y-7.0863
X5.845Y-5.3237
X5.845Y-5.4037
X5.845Y-5.445
X5.845Y-5.525
X5.8833Y-6.885
X5.8833Y-6.965
X5.8833Y-7.0063
X5.8833Y-7.045
X5.8833Y-7.0863
X5.8833Y-7.14
X5.8833Y-7.1813
X5.8863Y-5.2287
X5.8863Y-5.27
X5.8863Y-5.3237
X5.8863Y-5.365
X5.8863Y-5.4037
X5.8863Y-5.445
X5.8863Y-5.525
X5.9286Y-6.885
X5.9286Y-6.965
X5.9286Y-7.0063
X5.9286Y-7.045
X5.9286Y-7.0863
X5.9286Y-7.14
X5.9286Y-7.1813
X5.9316Y-5.2287
X5.9316Y-5.27
X5.9316Y-5.3237
X5.9316Y-5.365
X5.9316Y-5.4037
X5.9316Y-5.445
X5.9316Y-5.525
X6.3681Y-1.86
X6.405Y-1.725
X6.45Y-1.815
X6.46Y-1.6481
X6.7134Y-6.885
X6.7134Y-6.965
X6.7134Y-7.0063
X6.7134Y-7.045
X6.7134Y-7.0863
X6.7134Y-7.14
X6.7134Y-7.1813
X6.7214Y-5.2287
X6.7214Y-5.27
X6.7214Y-5.3237
X6.7214Y-5.365
X6.7214Y-5.4037
X6.7214Y-5.445
X6.7214Y-5.525
X6.7587Y-6.885
X6.7587Y-6.965
X6.7587Y-7.0063
X6.7587Y-7.045
X6.7587Y-7.0863
X6.7587Y-7.14
X6.7587Y-7.1813
X6.7667Y-5.2287
X6.7667Y-5.27
X6.7667Y-5.3237
X6.7667Y-5.365
X6.7667Y-5.4037
X6.7667Y-5.445
X6.7667Y-5.525
X6.8Y-6.885
X6.8Y-6.965
X6.8Y-7.0063
X6.8Y-7.0863
X6.81Y-5.3237
X6.81Y-5.4037
X6.81Y-5.445
X6.81Y-5.525
X6.8433Y-6.885
X6.8433Y-6.965
X6.8433Y-7.0063
X6.8433Y-7.045
X6.8433Y-7.0863
X6.8433Y-7.14
X6.8433Y-7.1813
X6.8513Y-5.2287
X6.8513Y-5.27
X6.8513Y-5.3237
X6.8513Y-5.365
X6.8513Y-5.4037
X6.8513Y-5.445
X6.8513Y-5.525
X6.8886Y-6.885
X6.8886Y-6.965
X6.8886Y-7.0063
X6.8886Y-7.045
X6.8886Y-7.0863
X6.8886Y-7.14
X6.8886Y-7.1813
X6.8966Y-5.2287
X6.8966Y-5.27
X6.8966Y-5.3237
X6.8966Y-5.365
X6.8966Y-5.4037
X6.8966Y-5.445
X6.8966Y-5.525
X7.115Y-2.055
T4
X4.09Y-1.762
X4.09Y-1.84
X4.09Y-2.162
X4.09Y-2.24
X4.09Y-2.562
X4.09Y-2.64
X4.09Y-2.962
X4.09Y-3.04
X4.09Y-3.362
X4.09Y-3.44
X4.09Y-3.762
X4.09Y-3.84
X4.31Y-1.762
X4.31Y-1.84
X4.31Y-2.162
X4.31Y-2.24
X4.31Y-2.562
X4.31Y-2.64
X4.31Y-2.962
X4.31Y-3.04
X4.31Y-3.362
X4.31Y-3.44
X4.31Y-3.762
X4.31Y-3.84
T5
X1.79Y-4.11
X1.84Y-4.11
X1.89Y-4.11
X1.94Y-4.11
X1.99Y-4.11
X2.04Y-4.11
T6
X1.575Y-2.73
X1.575Y-2.83
X1.575Y-3.13
X1.575Y-3.23
X1.6535Y-4.1142
X1.6535Y-4.311
X1.675Y-2.73
X1.675Y-2.83
X1.675Y-3.13
X1.675Y-3.23
X1.775Y-2.73
X1.775Y-2.83
X1.775Y-2.93
X1.775Y-3.03
X1.775Y-3.13
X1.775Y-3.23
X1.8Y-8.18
X1.8Y-8.5
X1.875Y-2.085
X1.875Y-2.185
X1.875Y-2.285
X1.875Y-2.385
X1.875Y-2.485
X1.875Y-2.585
X1.875Y-2.73
X1.875Y-2.83
X1.875Y-2.93
X1.875Y-3.03
X1.875Y-3.13
X1.875Y-3.23
X1.9Y-8.18
X1.9Y-8.5
X1.94Y-7.23
X1.95Y-5.18
X1.95Y-5.58
X1.95Y-6.825
X1.975Y-2.085
X1.975Y-2.185
X1.975Y-2.285
X1.975Y-2.385
X1.975Y-2.485
X1.975Y-2.585
X1.975Y-2.73
X1.975Y-2.83
X1.975Y-2.93
X1.975Y-3.03
X1.975Y-3.13
X1.975Y-3.23
X2.0Y-4.31
X2.0Y-8.18
X2.0Y-8.5
X2.04Y-7.23
X2.05Y-5.18
X2.05Y-5.58
X2.05Y-6.825
X2.075Y-2.085
X2.075Y-2.185
X2.075Y-2.285
X2.1Y-8.18
X2.1Y-8.5
X2.175Y-2.085
X2.175Y-2.185
X2.175Y-2.285
X2.2Y-4.31
X2.2Y-8.18
X2.2Y-8.5
X2.275Y-2.085
X2.275Y-2.185
X2.3Y-8.18
X2.3Y-8.5
X2.32Y-1.89
X2.3228Y-2.2835
X2.3228Y-2.3835
X2.3228Y-2.4835
X2.3228Y-2.5835
X2.3228Y-2.6835
X2.3228Y-2.7835
X2.3228Y-2.8835
X2.3228Y-2.9835
X2.3228Y-3.0835
X2.3228Y-3.1835
X2.3228Y-3.2835
X2.3228Y-3.3835
X2.3228Y-3.4835
X2.3228Y-3.5835
X2.3228Y-3.6835
X2.3228Y-3.7835
X2.375Y-2.085
X2.375Y-2.185
X2.4Y-4.31
X2.4Y-8.18
X2.4Y-8.5
X2.4016Y-4.1142
X2.475Y-2.085
X2.475Y-2.185
X2.5Y-1.89
X2.5Y-8.18
X2.5Y-8.5
X2.575Y-2.085
X2.575Y-2.185
X2.5787Y-2.2835
X2.5787Y-2.3835
X2.5787Y-2.4835
X2.5787Y-2.5835
X2.5787Y-2.6835
X2.5787Y-2.7835
X2.5787Y-2.8835
X2.5787Y-2.9835
X2.5787Y-3.0835
X2.5787Y-3.1835
X2.5787Y-3.2835
X2.5787Y-3.3835
X2.5787Y-3.4835
X2.5787Y-3.5835
X2.5787Y-3.6835
X2.5787Y-3.7835
X2.6Y-4.31
X2.6Y-8.18
X2.6Y-8.5
X2.65Y-3.835
X2.655Y-1.75
X2.7Y-8.18
X2.7Y-8.5
X2.8Y-1.57
X2.8Y-1.97
X2.8Y-2.07
X2.8Y-2.375
X2.8Y-2.475
X2.8Y-2.77
X2.8Y-2.865
X2.8Y-3.175
X2.8Y-3.275
X2.8Y-3.545
X2.8Y-3.645
X2.8Y-3.835
X2.8Y-4.005
X2.8Y-4.31
X2.8Y-8.18
X2.8Y-8.5
X2.81Y-1.75
X2.891Y-5.1766
X2.895Y-5.58
X2.895Y-6.825
X2.9Y-1.97
X2.9Y-2.07
X2.9Y-2.375
X2.9Y-2.475
X2.9Y-2.77
X2.9Y-2.865
X2.9Y-3.175
X2.9Y-3.275
X2.9Y-3.545
X2.9Y-3.645
X2.9Y-8.18
X2.9Y-8.5
X2.902Y-7.23
X2.9331Y-4.1142
X2.95Y-1.57
X2.95Y-4.005
X2.955Y-3.835
X2.96Y-1.75
X2.991Y-5.1766
X2.995Y-5.58
X2.995Y-6.825
X3.0Y-1.97
X3.0Y-2.07
X3.0Y-2.375
X3.0Y-2.475
X3.0Y-2.77
X3.0Y-2.865
X3.0Y-3.175
X3.0Y-3.275
X3.0Y-3.545
X3.0Y-3.645
X3.0Y-4.31
X3.0Y-8.18
X3.0Y-8.5
X3.002Y-7.23
X3.1Y-1.57
X3.1Y-4.005
X3.1Y-8.18
X3.1Y-8.5
X3.2Y-4.31
X3.2Y-8.18
X3.2Y-8.5
X3.21Y-1.985
X3.21Y-2.39
X3.21Y-2.79
X3.21Y-3.19
X3.21Y-3.59
X3.225Y-4.055
X3.3Y-8.18
X3.3Y-8.5
X3.4Y-4.31
X3.4Y-8.18
X3.4Y-8.5
X3.41Y-1.77
X3.41Y-1.83
X3.41Y-2.045
X3.41Y-2.17
X3.41Y-2.23
X3.41Y-2.445
X3.41Y-2.57
X3.41Y-2.63
X3.41Y-2.845
X3.41Y-2.97
X3.41Y-3.03
X3.41Y-3.245
X3.41Y-3.37
X3.41Y-3.43
X3.41Y-3.645
X3.41Y-3.77
X3.41Y-3.83
X3.41Y-4.055
X3.4646Y-4.1142
X3.5Y-8.18
X3.5Y-8.5
X3.55Y-2.045
X3.55Y-2.445
X3.55Y-2.845
X3.55Y-3.245
X3.55Y-3.645
X3.55Y-4.055
X3.6Y-4.31
X3.6Y-8.18
X3.6Y-8.5
X3.69Y-1.77
X3.69Y-1.83
X3.69Y-2.17
X3.69Y-2.23
X3.69Y-2.57
X3.69Y-2.63
X3.69Y-2.97
X3.69Y-3.03
X3.69Y-3.37
X3.69Y-3.43
X3.69Y-3.77
X3.69Y-3.83
X3.7Y-8.18
X3.7Y-8.5
X3.8Y-4.31
X3.8Y-8.18
X3.8Y-8.5
X3.8583Y-5.1766
X3.86Y-5.58
X3.86Y-6.825
X3.864Y-7.23
X3.9Y-8.18
X3.9Y-8.5
X3.94Y-1.77
X3.94Y-1.83
X3.94Y-2.045
X3.94Y-2.17
X3.94Y-2.23
X3.94Y-2.445
X3.94Y-2.57
X3.94Y-2.63
X3.94Y-2.845
X3.94Y-2.97
X3.94Y-3.03
X3.94Y-3.245
X3.94Y-3.37
X3.94Y-3.43
X3.94Y-3.645
X3.94Y-3.77
X3.94Y-3.83
X3.94Y-4.055
X3.9583Y-5.1766
X3.96Y-5.58
X3.96Y-6.825
X3.964Y-7.23
X4.0Y-4.31
X4.0Y-8.18
X4.0Y-8.5
X4.09Y-1.955
X4.09Y-2.035
X4.09Y-2.36
X4.09Y-2.44
X4.09Y-2.755
X4.09Y-2.835
X4.09Y-3.16
X4.09Y-3.24
X4.09Y-3.565
X4.09Y-3.645
X4.09Y-3.975
X4.09Y-4.055
X4.1Y-8.18
X4.1Y-8.5
X4.2Y-2.0
X4.2Y-2.4
X4.2Y-2.8
X4.2Y-3.2
X4.2Y-3.6
X4.2Y-4.01
X4.2Y-4.31
X4.3Y-4.31
X4.41Y-4.01
X4.41Y-4.11
X4.41Y-4.21
X4.41Y-4.31
X4.435Y-2.0
X4.435Y-2.4
X4.435Y-2.8
X4.435Y-3.2
X4.435Y-3.6
X4.435Y-3.91
X4.46Y-4.06
X4.46Y-4.16
X4.46Y-4.26
X4.46Y-4.36
X4.51Y-4.01
X4.51Y-4.11
X4.51Y-4.21
X4.51Y-4.31
X4.535Y-1.81
X4.535Y-1.9
X4.535Y-2.0
X4.535Y-2.1
X4.535Y-2.2
X4.535Y-2.3
X4.535Y-2.4
X4.535Y-2.5
X4.535Y-2.6
X4.535Y-2.7
X4.535Y-2.8
X4.535Y-2.9
X4.535Y-3.0
X4.535Y-3.1
X4.535Y-3.2
X4.535Y-3.3
X4.535Y-3.4
X4.535Y-3.5
X4.535Y-3.6
X4.535Y-3.7
X4.535Y-3.8
X4.535Y-3.91
X4.56Y-4.06
X4.56Y-4.16
X4.56Y-4.26
X4.56Y-4.36
X4.61Y-4.01
X4.61Y-4.11
X4.61Y-4.21
X4.61Y-4.31
X4.635Y-1.81
X4.635Y-1.9
X4.635Y-2.0
X4.635Y-2.1
X4.635Y-2.2
X4.635Y-2.3
X4.635Y-2.4
X4.635Y-2.5
X4.635Y-2.6
X4.635Y-2.7
X4.635Y-2.8
X4.635Y-2.9
X4.635Y-3.0
X4.635Y-3.1
X4.635Y-3.2
X4.635Y-3.3
X4.635Y-3.4
X4.635Y-3.5
X4.635Y-3.6
X4.635Y-3.7
X4.635Y-3.8
X4.635Y-3.91
X4.66Y-4.06
X4.66Y-4.16
X4.66Y-4.26
X4.66Y-4.36
X4.71Y-4.01
X4.71Y-4.11
X4.71Y-4.21
X4.71Y-4.31
X4.735Y-1.81
X4.735Y-1.9
X4.735Y-3.91
X4.78Y-2.0
X4.78Y-2.16
X4.78Y-2.32
X4.78Y-2.47
X4.78Y-2.63
X4.78Y-2.79
X4.78Y-2.95
X4.78Y-3.1
X4.78Y-3.26
X4.78Y-3.42
X4.78Y-3.58
X4.78Y-3.73
X4.78Y-8.18
X4.78Y-8.5
X4.8Y-4.31
X4.8255Y-5.1766
X4.826Y-7.23
X4.83Y-5.58
X4.83Y-6.825
X4.88Y-8.18
X4.88Y-8.5
X4.9Y-4.31
X4.9255Y-5.1766
X4.926Y-7.23
X4.93Y-2.04
X4.93Y-2.12
X4.93Y-2.2
X4.93Y-2.28
X4.93Y-2.36
X4.93Y-2.44
X4.93Y-2.51
X4.93Y-2.59
X4.93Y-2.67
X4.93Y-2.75
X4.93Y-2.83
X4.93Y-2.91
X4.93Y-2.99
X4.93Y-3.07
X4.93Y-3.14
X4.93Y-3.22
X4.93Y-3.3
X4.93Y-3.38
X4.93Y-3.46
X4.93Y-3.54
X4.93Y-3.62
X4.93Y-3.7
X4.93Y-3.77
X4.93Y-3.85
X4.93Y-5.58
X4.93Y-6.825
X4.98Y-8.18
X4.98Y-8.5
X5.08Y-8.18
X5.08Y-8.5
X5.1Y-4.31
X5.1378Y-4.1142
X5.18Y-8.18
X5.18Y-8.5
X5.28Y-8.18
X5.28Y-8.5
X5.3Y-4.31
X5.38Y-8.18
X5.38Y-8.5
X5.48Y-8.18
X5.48Y-8.5
X5.5Y-4.31
X5.58Y-8.18
X5.58Y-8.5
X5.5906Y-4.1142
X5.68Y-8.18
X5.68Y-8.5
X5.7Y-4.31
X5.78Y-8.18
X5.78Y-8.5
X5.788Y-7.23
X5.7928Y-5.1766
X5.8Y-5.58
X5.8Y-6.825
X5.88Y-8.18
X5.88Y-8.5
X5.888Y-7.23
X5.8928Y-5.1766
X5.9Y-4.31
X5.9Y-5.58
X5.9Y-6.825
X5.98Y-8.18
X5.98Y-8.5
X6.08Y-8.18
X6.08Y-8.5
X6.1Y-4.31
X6.1024Y-4.1142
X6.18Y-8.18
X6.18Y-8.5
X6.28Y-8.18
X6.28Y-8.5
X6.3Y-4.31
X6.38Y-8.18
X6.38Y-8.5
X6.48Y-8.18
X6.48Y-8.5
X6.5Y-4.31
X6.58Y-8.18
X6.58Y-8.5
X6.6339Y-4.1142
X6.68Y-8.18
X6.68Y-8.5
X6.7Y-4.31
X6.75Y-7.23
X6.76Y-5.1766
X6.765Y-5.58
X6.765Y-6.825
X6.78Y-8.18
X6.78Y-8.5
X6.85Y-7.23
X6.86Y-5.1766
X6.865Y-5.58
X6.865Y-6.825
X6.88Y-8.18
X6.88Y-8.5
X6.9Y-4.31
X6.98Y-8.18
X6.98Y-8.5
X7.08Y-8.18
X7.08Y-8.5
X7.1Y-4.31
X7.1063Y-4.1142
T7
X2.12Y-1.5864
X2.12Y-1.7832
X5.3934Y-2.2788
X5.3934Y-3.1812
X5.4934Y-2.2788
X5.4934Y-3.1812
X5.5934Y-2.2788
X5.5934Y-3.1812
X5.6934Y-2.2788
X5.6934Y-3.1812
X5.7934Y-2.2788
X5.7934Y-3.1812
X5.8934Y-2.2788
X5.8934Y-3.1812
X5.9934Y-2.2788
X5.9934Y-3.1812
X6.0934Y-2.2788
X6.0934Y-3.1812
X6.1934Y-2.2788
X6.1934Y-3.1812
X6.2934Y-2.2788
X6.2934Y-3.1812
X6.35Y-3.95
X6.3934Y-2.2788
X6.3934Y-3.1812
X6.45Y-3.95
X6.4934Y-2.2788
X6.4934Y-3.1812
X6.55Y-3.95
X6.65Y-3.95
T8
X5.15Y-3.95
X5.25Y-3.95
X5.35Y-3.95
X5.45Y-3.95
X5.65Y-3.95
X5.75Y-3.95
X5.85Y-3.95
X5.95Y-3.95
T10
X1.5555Y-1.376
X1.5555Y-8.4627
X1.9685Y-4.5276
X1.9685Y-6.2008
X1.9685Y-7.874
X3.3071Y-1.1417
X3.8583Y-4.1732
X4.4094Y-1.1417
X4.4094Y-4.5276
X4.4094Y-6.2008
X4.4094Y-7.874
X6.8504Y-4.5276
X6.8504Y-6.2008
X6.8504Y-7.874
X7.2838Y-1.376
X7.2838Y-8.4627
T9
G00X1.6253Y-2.9386
M15
G01X1.6253Y-3.0158
M16
G05
G00X2.1371Y-2.4386
M15
G01X2.1371Y-2.5158
M16
G05
M30
