G04 #@! TF.GenerationSoftware,KiCad,Pcbnew,8.0.6*
G04 #@! TF.CreationDate,2024-11-29T22:56:50+01:00*
G04 #@! TF.ProjectId,NerdEKO-Gamma-NoATX,4e657264-454b-44f2-9d47-616d6d612d4e,rev?*
G04 #@! TF.SameCoordinates,Original*
G04 #@! TF.FileFunction,Soldermask,Bot*
G04 #@! TF.FilePolarity,Negative*
%FSLAX46Y46*%
G04 Gerber Fmt 4.6, Leading zero omitted, Abs format (unit mm)*
G04 Created by KiCad (PCBNEW 8.0.6) date 2024-11-29 22:56:50*
%MOMM*%
%LPD*%
G01*
G04 APERTURE LIST*
G04 Aperture macros list*
%AMRoundRect*
0 Rectangle with rounded corners*
0 $1 Rounding radius*
0 $2 $3 $4 $5 $6 $7 $8 $9 X,Y pos of 4 corners*
0 Add a 4 corners polygon primitive as box body*
4,1,4,$2,$3,$4,$5,$6,$7,$8,$9,$2,$3,0*
0 Add four circle primitives for the rounded corners*
1,1,$1+$1,$2,$3*
1,1,$1+$1,$4,$5*
1,1,$1+$1,$6,$7*
1,1,$1+$1,$8,$9*
0 Add four rect primitives between the rounded corners*
20,1,$1+$1,$2,$3,$4,$5,0*
20,1,$1+$1,$4,$5,$6,$7,0*
20,1,$1+$1,$6,$7,$8,$9,0*
20,1,$1+$1,$8,$9,$2,$3,0*%
G04 Aperture macros list end*
%ADD10C,5.600000*%
%ADD11C,5.500000*%
%ADD12C,1.700000*%
%ADD13C,0.499999*%
%ADD14RoundRect,0.076200X-2.488000X2.488000X-2.488000X-2.488000X2.488000X-2.488000X2.488000X2.488000X0*%
%ADD15C,5.128400*%
%ADD16R,2.000000X2.000000*%
%ADD17C,2.000000*%
%ADD18C,1.100000*%
%ADD19R,1.730000X2.030000*%
%ADD20O,1.730000X2.030000*%
%ADD21R,1.700000X1.700000*%
%ADD22O,1.700000X1.700000*%
%ADD23RoundRect,0.250000X-0.650000X0.325000X-0.650000X-0.325000X0.650000X-0.325000X0.650000X0.325000X0*%
%ADD24RoundRect,0.250000X-0.262500X-0.450000X0.262500X-0.450000X0.262500X0.450000X-0.262500X0.450000X0*%
%ADD25RoundRect,0.250000X0.325000X1.100000X-0.325000X1.100000X-0.325000X-1.100000X0.325000X-1.100000X0*%
%ADD26RoundRect,0.237500X-0.300000X-0.237500X0.300000X-0.237500X0.300000X0.237500X-0.300000X0.237500X0*%
%ADD27RoundRect,0.250000X0.262500X0.450000X-0.262500X0.450000X-0.262500X-0.450000X0.262500X-0.450000X0*%
%ADD28RoundRect,0.237500X0.300000X0.237500X-0.300000X0.237500X-0.300000X-0.237500X0.300000X-0.237500X0*%
%ADD29RoundRect,0.250000X0.475000X-0.250000X0.475000X0.250000X-0.475000X0.250000X-0.475000X-0.250000X0*%
%ADD30RoundRect,0.250000X-0.325000X-1.100000X0.325000X-1.100000X0.325000X1.100000X-0.325000X1.100000X0*%
%ADD31C,1.000000*%
%ADD32RoundRect,0.250000X-0.475000X0.250000X-0.475000X-0.250000X0.475000X-0.250000X0.475000X0.250000X0*%
%ADD33RoundRect,0.250000X-1.100000X0.325000X-1.100000X-0.325000X1.100000X-0.325000X1.100000X0.325000X0*%
%ADD34RoundRect,0.250000X0.650000X-0.325000X0.650000X0.325000X-0.650000X0.325000X-0.650000X-0.325000X0*%
%ADD35RoundRect,0.250000X1.100000X-0.325000X1.100000X0.325000X-1.100000X0.325000X-1.100000X-0.325000X0*%
%ADD36RoundRect,0.250000X-0.450000X0.262500X-0.450000X-0.262500X0.450000X-0.262500X0.450000X0.262500X0*%
%ADD37R,1.000000X1.000000*%
%ADD38O,1.000000X1.000000*%
%ADD39RoundRect,0.150000X0.512500X0.150000X-0.512500X0.150000X-0.512500X-0.150000X0.512500X-0.150000X0*%
G04 APERTURE END LIST*
D10*
X185009218Y-214951644D03*
X39509218Y-34951644D03*
D11*
X174000000Y-115000000D03*
X174000000Y-200000000D03*
X174000000Y-157500000D03*
D10*
X185009218Y-34951644D03*
D12*
X136992000Y-57882000D03*
X139532000Y-57882000D03*
X142072000Y-57882000D03*
X144612000Y-57882000D03*
X147152000Y-57882000D03*
X149692000Y-57882000D03*
X152232000Y-57882000D03*
X154772000Y-57882000D03*
X157312000Y-57882000D03*
X159852000Y-57882000D03*
X162392000Y-57882000D03*
X164932000Y-57882000D03*
X164932000Y-80802000D03*
X162392000Y-80802000D03*
X159852000Y-80802000D03*
X157312000Y-80802000D03*
X154772000Y-80802000D03*
X152232000Y-80802000D03*
X149692000Y-80802000D03*
X147152000Y-80802000D03*
X144612000Y-80802000D03*
X142072000Y-80802000D03*
X139532000Y-80802000D03*
X136992000Y-80802000D03*
D13*
X91470003Y-99110000D03*
X91470003Y-97790000D03*
X91470003Y-96470000D03*
X90170003Y-100190000D03*
X90170000Y-99110000D03*
X90170000Y-97790000D03*
X90170000Y-95390000D03*
X90169998Y-96470000D03*
X88870003Y-99110000D03*
X88870003Y-97790000D03*
X88870003Y-96470000D03*
X91470003Y-68630000D03*
X91470003Y-67310000D03*
X91470003Y-65990000D03*
X90170003Y-69710000D03*
X90170000Y-68630000D03*
X90170000Y-67310000D03*
X90170000Y-64910000D03*
X90169998Y-65990000D03*
X88870003Y-68630000D03*
X88870003Y-67310000D03*
X88870003Y-65990000D03*
D14*
X54282000Y-62921500D03*
D15*
X41282000Y-75621500D03*
D11*
X112000000Y-29000000D03*
X98000000Y-106000000D03*
D13*
X91470003Y-48310000D03*
X91470003Y-46990000D03*
X91470003Y-45670000D03*
X90170003Y-49390000D03*
X90170000Y-48310000D03*
X90170000Y-46990000D03*
X90170000Y-44590000D03*
X90169998Y-45670000D03*
X88870003Y-48310000D03*
X88870003Y-46990000D03*
X88870003Y-45670000D03*
D11*
X112000000Y-200000000D03*
D16*
X53848000Y-45293677D03*
D17*
X53848000Y-40293677D03*
D18*
X135890000Y-98170000D03*
D19*
X130810000Y-100330000D03*
D20*
X133350000Y-100330000D03*
X135890000Y-100330000D03*
X138430000Y-100330000D03*
D11*
X84000000Y-29000000D03*
X50000000Y-157500000D03*
D13*
X91470003Y-88950000D03*
X91470003Y-87630000D03*
X91470003Y-86310000D03*
X90170003Y-90030000D03*
X90170000Y-88950000D03*
X90170000Y-87630000D03*
X90170000Y-85230000D03*
X90169998Y-86310000D03*
X88870003Y-88950000D03*
X88870003Y-87630000D03*
X88870003Y-86310000D03*
D18*
X148590000Y-98170000D03*
D19*
X143510000Y-100330000D03*
D20*
X146050000Y-100330000D03*
X148590000Y-100330000D03*
X151130000Y-100330000D03*
D11*
X112000000Y-115000000D03*
X50000000Y-200000000D03*
D10*
X39509218Y-214951644D03*
D11*
X50000000Y-115000000D03*
D13*
X91470003Y-78790000D03*
X91470003Y-77470000D03*
X91470003Y-76150000D03*
X90170003Y-79870000D03*
X90170000Y-78790000D03*
X90170000Y-77470000D03*
X90170000Y-75070000D03*
X90169998Y-76150000D03*
X88870003Y-78790000D03*
X88870003Y-77470000D03*
X88870003Y-76150000D03*
D21*
X168910000Y-100330000D03*
D22*
X166370000Y-100330000D03*
X163830000Y-100330000D03*
X161290000Y-100330000D03*
D13*
X91470003Y-58470000D03*
X91470003Y-57150000D03*
X91470003Y-55830000D03*
X90170003Y-59550000D03*
X90170000Y-58470000D03*
X90170000Y-57150000D03*
X90170000Y-54750000D03*
X90169998Y-55830000D03*
X88870003Y-58470000D03*
X88870003Y-57150000D03*
X88870003Y-55830000D03*
D11*
X112000000Y-157500000D03*
D23*
X160020000Y-191565000D03*
X160020000Y-194515000D03*
D24*
X154484700Y-177546001D03*
X156309700Y-177546001D03*
D25*
X110695000Y-91440000D03*
X107745000Y-91440000D03*
D26*
X42825500Y-131318000D03*
X44550500Y-131318000D03*
X179223500Y-141390667D03*
X180948500Y-141390667D03*
D27*
X156430365Y-136056667D03*
X154605365Y-136056667D03*
D23*
X172974000Y-133311667D03*
X172974000Y-136261667D03*
D28*
X156380365Y-129706667D03*
X154655365Y-129706667D03*
D26*
X81230302Y-173736000D03*
X82955302Y-173736000D03*
D29*
X96983599Y-131418667D03*
X96983599Y-129518667D03*
D30*
X120699000Y-68810908D03*
X123649000Y-68810908D03*
D28*
X93166102Y-183895998D03*
X91441102Y-183895998D03*
X82955301Y-183895999D03*
X81230301Y-183895999D03*
X156380365Y-132754667D03*
X154655365Y-132754667D03*
D31*
X44196000Y-177038000D03*
D26*
X91441102Y-175259999D03*
X93166102Y-175259999D03*
D23*
X74701466Y-133311667D03*
X74701466Y-136261667D03*
D28*
X107244099Y-134278667D03*
X105519099Y-134278667D03*
D26*
X80950966Y-131230667D03*
X82675966Y-131230667D03*
D32*
X175005999Y-183708000D03*
X175005999Y-185608000D03*
X123850400Y-183708000D03*
X123850400Y-185608000D03*
D26*
X154534699Y-185420000D03*
X156259699Y-185420000D03*
D24*
X130049900Y-177546001D03*
X131874900Y-177546001D03*
D26*
X164999500Y-139866667D03*
X166724500Y-139866667D03*
D27*
X142206365Y-137580667D03*
X140381365Y-137580667D03*
D32*
X101701601Y-183707999D03*
X101701601Y-185607999D03*
D26*
X42571502Y-182371998D03*
X44296502Y-182371998D03*
D24*
X164695500Y-179069999D03*
X166520500Y-179069999D03*
D32*
X50546002Y-183707999D03*
X50546002Y-185607999D03*
D33*
X78740000Y-97331000D03*
X78740000Y-100281000D03*
D28*
X131824900Y-175260001D03*
X130099900Y-175260001D03*
D29*
X53340000Y-131506000D03*
X53340000Y-129606000D03*
X72415466Y-131418667D03*
X72415466Y-129518667D03*
D26*
X66726966Y-139866667D03*
X68451966Y-139866667D03*
X115875900Y-180847999D03*
X117600900Y-180847999D03*
D31*
X136144000Y-136271000D03*
D26*
X81230302Y-182371999D03*
X82955302Y-182371999D03*
D28*
X142156365Y-141390667D03*
X140431365Y-141390667D03*
D27*
X180998500Y-136056667D03*
X179173500Y-136056667D03*
D28*
X82955302Y-175260000D03*
X81230302Y-175260000D03*
D30*
X120699000Y-52832000D03*
X123649000Y-52832000D03*
D32*
X148285200Y-183708000D03*
X148285200Y-185608000D03*
D29*
X123837732Y-131418667D03*
X123837732Y-129518667D03*
X99269599Y-131418667D03*
X99269599Y-129518667D03*
D27*
X44600500Y-137668000D03*
X42775500Y-137668000D03*
D26*
X56795502Y-173736000D03*
X58520502Y-173736000D03*
X130087232Y-141390667D03*
X131812232Y-141390667D03*
X164745500Y-185419999D03*
X166470500Y-185419999D03*
D28*
X68451966Y-129706667D03*
X66726966Y-129706667D03*
D34*
X135382000Y-123395000D03*
X135382000Y-120445000D03*
D23*
X86868000Y-191565000D03*
X86868000Y-194515000D03*
D28*
X131812232Y-134278667D03*
X130087232Y-134278667D03*
D27*
X93070099Y-137580667D03*
X91245099Y-137580667D03*
D29*
X121551732Y-131418667D03*
X121551732Y-129518667D03*
D26*
X164745500Y-180847999D03*
X166470500Y-180847999D03*
D28*
X166724500Y-134278667D03*
X164999500Y-134278667D03*
D30*
X120699000Y-56826727D03*
X123649000Y-56826727D03*
D26*
X140310700Y-185419999D03*
X142035700Y-185419999D03*
X57049500Y-141478000D03*
X58774500Y-141478000D03*
D28*
X180948500Y-134278667D03*
X179223500Y-134278667D03*
D27*
X82725966Y-136056667D03*
X80900966Y-136056667D03*
D28*
X180694500Y-175260001D03*
X178969500Y-175260001D03*
D24*
X56745502Y-177546000D03*
X58570502Y-177546000D03*
D23*
X135382000Y-191565000D03*
X135382000Y-194515000D03*
D26*
X67006302Y-182371998D03*
X68731302Y-182371998D03*
D28*
X58520501Y-183895999D03*
X56795501Y-183895999D03*
D32*
X150571199Y-183708000D03*
X150571199Y-185608000D03*
D26*
X130099899Y-185420000D03*
X131824899Y-185420000D03*
D31*
X41402000Y-123317000D03*
D28*
X117600900Y-183895999D03*
X115875900Y-183895999D03*
D26*
X115863232Y-131230667D03*
X117588232Y-131230667D03*
D34*
X123850400Y-181815000D03*
X123850400Y-178865000D03*
D26*
X91441102Y-185419998D03*
X93166102Y-185419998D03*
X81230302Y-180847999D03*
X82955302Y-180847999D03*
X105665102Y-182371999D03*
X107390102Y-182371999D03*
D29*
X101809599Y-131418667D03*
X101809599Y-129518667D03*
D28*
X44550500Y-134366000D03*
X42825500Y-134366000D03*
D34*
X99415602Y-181814999D03*
X99415602Y-178864999D03*
D26*
X42571502Y-175259999D03*
X44296502Y-175259999D03*
D28*
X44296503Y-173735999D03*
X42571503Y-173735999D03*
D26*
X154534700Y-173736001D03*
X156259700Y-173736001D03*
D29*
X172974000Y-131418667D03*
X172974000Y-129518667D03*
D26*
X105519099Y-141390667D03*
X107244099Y-141390667D03*
X154534700Y-180848000D03*
X156259700Y-180848000D03*
D31*
X174498000Y-153162000D03*
D34*
X160020000Y-123395000D03*
X160020000Y-120445000D03*
D32*
X183896000Y-151196000D03*
X183896000Y-153096000D03*
D26*
X67006302Y-175259999D03*
X68731302Y-175259999D03*
D28*
X117588232Y-141390667D03*
X115863232Y-141390667D03*
D26*
X154655365Y-131230667D03*
X156380365Y-131230667D03*
D28*
X58774500Y-139954000D03*
X57049500Y-139954000D03*
D33*
X71120000Y-97331000D03*
X71120000Y-100281000D03*
D26*
X56795501Y-185419999D03*
X58520501Y-185419999D03*
D28*
X180948500Y-129706667D03*
X179223500Y-129706667D03*
D31*
X174498000Y-150368000D03*
D28*
X93166103Y-173735999D03*
X91441103Y-173735999D03*
D24*
X66956302Y-179069998D03*
X68781302Y-179069998D03*
D28*
X117600901Y-173736000D03*
X115875901Y-173736000D03*
X68731303Y-173735999D03*
X67006303Y-173735999D03*
D32*
X183896000Y-161356000D03*
X183896000Y-163256000D03*
D24*
X81180302Y-177546000D03*
X83005302Y-177546000D03*
D34*
X148285200Y-181815000D03*
X148285200Y-178865000D03*
D26*
X66726966Y-131230667D03*
X68451966Y-131230667D03*
D28*
X82675966Y-139866667D03*
X80950966Y-139866667D03*
D31*
X174498000Y-162560000D03*
D26*
X178969500Y-182372000D03*
X180694500Y-182372000D03*
D32*
X73152000Y-156530000D03*
X73152000Y-158430000D03*
D23*
X123837732Y-133311667D03*
X123837732Y-136261667D03*
D31*
X38100000Y-132588000D03*
D35*
X78740000Y-44401000D03*
X78740000Y-41451000D03*
D27*
X44600500Y-144018000D03*
X42775500Y-144018000D03*
D26*
X140310700Y-182371999D03*
X142035700Y-182371999D03*
D31*
X63119000Y-178816000D03*
D28*
X58774500Y-134366000D03*
X57049500Y-134366000D03*
D32*
X99415602Y-183707999D03*
X99415602Y-185607999D03*
D26*
X81230301Y-185419999D03*
X82955301Y-185419999D03*
D28*
X156259700Y-175260001D03*
X154534700Y-175260001D03*
D29*
X126377732Y-131418667D03*
X126377732Y-129518667D03*
D27*
X131862232Y-136056667D03*
X130037232Y-136056667D03*
D28*
X58520502Y-175260000D03*
X56795502Y-175260000D03*
D23*
X62738000Y-191565000D03*
X62738000Y-194515000D03*
D28*
X180948500Y-132754667D03*
X179223500Y-132754667D03*
D26*
X140310700Y-180847999D03*
X142035700Y-180847999D03*
D29*
X146119865Y-131418667D03*
X146119865Y-129518667D03*
D28*
X180948500Y-139866667D03*
X179223500Y-139866667D03*
D26*
X178969500Y-180848000D03*
X180694500Y-180848000D03*
D28*
X58774500Y-129794000D03*
X57049500Y-129794000D03*
X68731302Y-183895998D03*
X67006302Y-183895998D03*
X82675966Y-132754667D03*
X80950966Y-132754667D03*
X142156365Y-129706667D03*
X140431365Y-129706667D03*
X68451966Y-132754667D03*
X66726966Y-132754667D03*
D36*
X186182000Y-155043500D03*
X186182000Y-156868500D03*
D26*
X115875900Y-175260000D03*
X117600900Y-175260000D03*
D27*
X68501966Y-137580667D03*
X66676966Y-137580667D03*
D32*
X146812000Y-156530000D03*
X146812000Y-158430000D03*
D34*
X74980802Y-181814999D03*
X74980802Y-178864999D03*
D24*
X115825900Y-179069999D03*
X117650900Y-179069999D03*
D28*
X156380365Y-134278667D03*
X154655365Y-134278667D03*
D26*
X115875900Y-182371999D03*
X117600900Y-182371999D03*
D32*
X77266801Y-183707999D03*
X77266801Y-185607999D03*
X172720000Y-183708000D03*
X172720000Y-185608000D03*
D27*
X58824500Y-136144000D03*
X56999500Y-136144000D03*
D26*
X105519099Y-131230667D03*
X107244099Y-131230667D03*
D28*
X82675966Y-134278667D03*
X80950966Y-134278667D03*
D29*
X170688000Y-131418667D03*
X170688000Y-129518667D03*
D31*
X62992000Y-136398000D03*
D26*
X130099900Y-180848000D03*
X131824900Y-180848000D03*
D28*
X131824899Y-183896000D03*
X130099899Y-183896000D03*
D32*
X145745200Y-183708000D03*
X145745200Y-185608000D03*
D27*
X107294099Y-136056667D03*
X105469099Y-136056667D03*
D26*
X140310700Y-175260000D03*
X142035700Y-175260000D03*
D30*
X120699000Y-96774000D03*
X123649000Y-96774000D03*
D26*
X130099900Y-173736001D03*
X131824900Y-173736001D03*
D28*
X142156365Y-134278667D03*
X140431365Y-134278667D03*
X82675966Y-129706667D03*
X80950966Y-129706667D03*
D37*
X51816000Y-104394000D03*
D38*
X50546000Y-104394000D03*
X49276000Y-104394000D03*
X48006000Y-104394000D03*
X46736000Y-104394000D03*
X45466000Y-104394000D03*
D30*
X120699000Y-84789816D03*
X123649000Y-84789816D03*
D26*
X42825500Y-139954000D03*
X44550500Y-139954000D03*
D17*
X40000000Y-40000000D03*
D30*
X120699000Y-80795089D03*
X123649000Y-80795089D03*
D32*
X170180000Y-183708000D03*
X170180000Y-185608000D03*
D26*
X105665102Y-180847999D03*
X107390102Y-180847999D03*
X164999500Y-131230667D03*
X166724500Y-131230667D03*
D30*
X120699000Y-60821454D03*
X123649000Y-60821454D03*
D28*
X68451966Y-134278667D03*
X66726966Y-134278667D03*
D25*
X110695000Y-71120000D03*
X107745000Y-71120000D03*
D26*
X130099900Y-182372000D03*
X131824900Y-182372000D03*
X80950966Y-141390667D03*
X82675966Y-141390667D03*
D32*
X96875602Y-183707999D03*
X96875602Y-185607999D03*
D34*
X172720000Y-181815000D03*
X172720000Y-178865000D03*
D31*
X136017000Y-178816000D03*
D28*
X44550500Y-132842000D03*
X42825500Y-132842000D03*
D23*
X110998000Y-191565000D03*
X110998000Y-194515000D03*
D32*
X121310400Y-183708000D03*
X121310400Y-185608000D03*
D26*
X154534700Y-182372000D03*
X156259700Y-182372000D03*
D28*
X142035701Y-173736000D03*
X140310701Y-173736000D03*
D34*
X50546002Y-181814999D03*
X50546002Y-178864999D03*
D28*
X58774500Y-132842000D03*
X57049500Y-132842000D03*
D26*
X130087232Y-131230667D03*
X131812232Y-131230667D03*
D28*
X131812232Y-129706667D03*
X130087232Y-129706667D03*
X142156365Y-132754667D03*
X140431365Y-132754667D03*
X156380365Y-139866667D03*
X154655365Y-139866667D03*
D26*
X154655365Y-141390667D03*
X156380365Y-141390667D03*
X91441102Y-180847998D03*
X93166102Y-180847998D03*
D30*
X120699000Y-92779270D03*
X123649000Y-92779270D03*
D26*
X164745500Y-182371999D03*
X166470500Y-182371999D03*
D24*
X91391102Y-179069998D03*
X93216102Y-179069998D03*
D28*
X68451966Y-141390667D03*
X66726966Y-141390667D03*
D29*
X150945865Y-131418667D03*
X150945865Y-129518667D03*
D31*
X86868000Y-136271000D03*
D28*
X93020099Y-129706667D03*
X91295099Y-129706667D03*
X166724500Y-141390667D03*
X164999500Y-141390667D03*
X131812232Y-132754667D03*
X130087232Y-132754667D03*
D26*
X115875900Y-185419999D03*
X117600900Y-185419999D03*
D39*
X181477500Y-161356000D03*
X181477500Y-162306000D03*
X181477500Y-163256000D03*
X179202500Y-163256000D03*
X179202500Y-161356000D03*
D26*
X140431365Y-139866667D03*
X142156365Y-139866667D03*
D39*
X181345000Y-151196000D03*
X181345000Y-152146000D03*
X181345000Y-153096000D03*
X179070000Y-153096000D03*
X179070000Y-151196000D03*
D26*
X56795502Y-182371999D03*
X58520502Y-182371999D03*
X42571502Y-185419998D03*
X44296502Y-185419998D03*
D25*
X110695000Y-60960000D03*
X107745000Y-60960000D03*
D31*
X181356000Y-144653000D03*
D30*
X120699000Y-72805635D03*
X123649000Y-72805635D03*
D28*
X93020099Y-134278667D03*
X91295099Y-134278667D03*
X131812232Y-139866667D03*
X130087232Y-139866667D03*
D26*
X115863232Y-139866667D03*
X117588232Y-139866667D03*
D25*
X110695000Y-101854000D03*
X107745000Y-101854000D03*
D26*
X105665102Y-173736000D03*
X107390102Y-173736000D03*
D29*
X74701466Y-131418667D03*
X74701466Y-129518667D03*
D28*
X107390102Y-175260000D03*
X105665102Y-175260000D03*
D27*
X166774500Y-137580667D03*
X164949500Y-137580667D03*
D32*
X126136399Y-183708000D03*
X126136399Y-185608000D03*
D30*
X120699000Y-76800362D03*
X123649000Y-76800362D03*
D26*
X164745500Y-175260000D03*
X166470500Y-175260000D03*
D17*
X40000000Y-210000000D03*
D26*
X178969499Y-185420000D03*
X180694499Y-185420000D03*
D32*
X74980802Y-183707999D03*
X74980802Y-185607999D03*
X52832001Y-183707999D03*
X52832001Y-185607999D03*
D30*
X120699000Y-64816181D03*
X123649000Y-64816181D03*
D25*
X110695000Y-81280000D03*
X107745000Y-81280000D03*
D28*
X44550500Y-129794000D03*
X42825500Y-129794000D03*
D23*
X50800000Y-133399000D03*
X50800000Y-136349000D03*
D26*
X57049500Y-131318000D03*
X58774500Y-131318000D03*
D28*
X166724500Y-129706667D03*
X164999500Y-129706667D03*
D29*
X50800000Y-131506000D03*
X50800000Y-129606000D03*
D34*
X110998000Y-123395000D03*
X110998000Y-120445000D03*
D35*
X71107000Y-44401000D03*
X71107000Y-41451000D03*
D27*
X117638232Y-137580667D03*
X115813232Y-137580667D03*
D32*
X72440802Y-183707999D03*
X72440802Y-185607999D03*
D28*
X117588232Y-132754667D03*
X115863232Y-132754667D03*
D24*
X105615102Y-177546000D03*
X107440102Y-177546000D03*
X42775500Y-171196000D03*
X44600500Y-171196000D03*
D26*
X91295099Y-131230667D03*
X93020099Y-131230667D03*
D17*
X185000000Y-40000000D03*
D26*
X140431365Y-131230667D03*
X142156365Y-131230667D03*
D28*
X156259699Y-183896000D03*
X154534699Y-183896000D03*
D23*
X148405865Y-133311667D03*
X148405865Y-136261667D03*
X99269599Y-133311667D03*
X99269599Y-136261667D03*
D28*
X166470501Y-173736000D03*
X164745501Y-173736000D03*
X44550500Y-141478000D03*
X42825500Y-141478000D03*
D24*
X140260700Y-179069999D03*
X142085700Y-179069999D03*
D29*
X77241466Y-131418667D03*
X77241466Y-129518667D03*
D26*
X67006302Y-180847998D03*
X68731302Y-180847998D03*
D28*
X93020099Y-132754667D03*
X91295099Y-132754667D03*
D26*
X178969500Y-173736001D03*
X180694500Y-173736001D03*
X67006302Y-185419998D03*
X68731302Y-185419998D03*
D28*
X107244099Y-132754667D03*
X105519099Y-132754667D03*
X93020099Y-141390667D03*
X91295099Y-141390667D03*
X107244099Y-129706667D03*
X105519099Y-129706667D03*
X166470500Y-183895999D03*
X164745500Y-183895999D03*
X166724500Y-132754667D03*
X164999500Y-132754667D03*
D34*
X62738000Y-123395000D03*
X62738000Y-120445000D03*
D24*
X178919500Y-177546001D03*
X180744500Y-177546001D03*
D34*
X86868000Y-123395000D03*
X86868000Y-120445000D03*
D28*
X107244099Y-139866667D03*
X105519099Y-139866667D03*
D26*
X56795502Y-180847999D03*
X58520502Y-180847999D03*
D28*
X180694499Y-183896000D03*
X178969499Y-183896000D03*
D29*
X48514000Y-131506000D03*
X48514000Y-129606000D03*
D28*
X117588232Y-129706667D03*
X115863232Y-129706667D03*
D31*
X111506000Y-178816000D03*
D26*
X42571502Y-180847998D03*
X44296502Y-180847998D03*
D25*
X110695000Y-50800000D03*
X107745000Y-50800000D03*
D29*
X175514000Y-131418667D03*
X175514000Y-129518667D03*
D26*
X179223500Y-131230667D03*
X180948500Y-131230667D03*
D33*
X74930000Y-97331000D03*
X74930000Y-100281000D03*
D28*
X117588232Y-134278667D03*
X115863232Y-134278667D03*
D26*
X91295099Y-139866667D03*
X93020099Y-139866667D03*
D31*
X87376000Y-178816000D03*
D28*
X107390101Y-183895999D03*
X105665101Y-183895999D03*
D30*
X120699000Y-88784543D03*
X123649000Y-88784543D03*
D26*
X91441102Y-182371998D03*
X93166102Y-182371998D03*
D28*
X142035700Y-183895999D03*
X140310700Y-183895999D03*
D32*
X176784000Y-151196000D03*
X176784000Y-153096000D03*
D29*
X148405865Y-131418667D03*
X148405865Y-129518667D03*
D31*
X160020000Y-178816000D03*
D26*
X105665101Y-185419999D03*
X107390101Y-185419999D03*
D32*
X48006002Y-183707999D03*
X48006002Y-185607999D03*
X176784000Y-161356000D03*
X176784000Y-163256000D03*
D31*
X111379000Y-136271000D03*
D35*
X74930000Y-44401000D03*
X74930000Y-41451000D03*
D31*
X160655000Y-136271000D03*
D28*
X44296502Y-183895998D03*
X42571502Y-183895998D03*
D24*
X42521502Y-179069998D03*
X44346502Y-179069998D03*
M02*
