G04 #@! TF.GenerationSoftware,KiCad,Pcbnew,8.0.6*
G04 #@! TF.CreationDate,2024-11-29T22:56:48+01:00*
G04 #@! TF.ProjectId,NerdEKO-Gamma-NoATX,4e657264-454b-44f2-9d47-616d6d612d4e,rev?*
G04 #@! TF.SameCoordinates,Original*
G04 #@! TF.FileFunction,Paste,Top*
G04 #@! TF.FilePolarity,Positive*
%FSLAX46Y46*%
G04 Gerber Fmt 4.6, Leading zero omitted, Abs format (unit mm)*
G04 Created by KiCad (PCBNEW 8.0.6) date 2024-11-29 22:56:48*
%MOMM*%
%LPD*%
G01*
G04 APERTURE LIST*
G04 Aperture macros list*
%AMRoundRect*
0 Rectangle with rounded corners*
0 $1 Rounding radius*
0 $2 $3 $4 $5 $6 $7 $8 $9 X,Y pos of 4 corners*
0 Add a 4 corners polygon primitive as box body*
4,1,4,$2,$3,$4,$5,$6,$7,$8,$9,$2,$3,0*
0 Add four circle primitives for the rounded corners*
1,1,$1+$1,$2,$3*
1,1,$1+$1,$4,$5*
1,1,$1+$1,$6,$7*
1,1,$1+$1,$8,$9*
0 Add four rect primitives between the rounded corners*
20,1,$1+$1,$2,$3,$4,$5,0*
20,1,$1+$1,$4,$5,$6,$7,0*
20,1,$1+$1,$6,$7,$8,$9,0*
20,1,$1+$1,$8,$9,$2,$3,0*%
G04 Aperture macros list end*
%ADD10C,0.001000*%
%ADD11C,0.000000*%
%ADD12C,0.010000*%
%ADD13RoundRect,0.250000X-0.475000X0.250000X-0.475000X-0.250000X0.475000X-0.250000X0.475000X0.250000X0*%
%ADD14RoundRect,0.250000X0.250000X0.475000X-0.250000X0.475000X-0.250000X-0.475000X0.250000X-0.475000X0*%
%ADD15RoundRect,0.250000X0.262500X0.450000X-0.262500X0.450000X-0.262500X-0.450000X0.262500X-0.450000X0*%
%ADD16RoundRect,0.250000X-0.250000X-0.475000X0.250000X-0.475000X0.250000X0.475000X-0.250000X0.475000X0*%
%ADD17RoundRect,0.250000X-0.262500X-0.450000X0.262500X-0.450000X0.262500X0.450000X-0.262500X0.450000X0*%
%ADD18RoundRect,0.250000X0.450000X-0.262500X0.450000X0.262500X-0.450000X0.262500X-0.450000X-0.262500X0*%
%ADD19R,3.300000X3.050000*%
%ADD20RoundRect,0.055250X-0.340750X-0.055250X0.340750X-0.055250X0.340750X0.055250X-0.340750X0.055250X0*%
%ADD21RoundRect,0.055250X0.340750X0.055250X-0.340750X0.055250X-0.340750X-0.055250X0.340750X-0.055250X0*%
%ADD22RoundRect,0.250000X0.475000X-0.250000X0.475000X0.250000X-0.475000X0.250000X-0.475000X-0.250000X0*%
%ADD23RoundRect,0.250000X-0.650000X0.325000X-0.650000X-0.325000X0.650000X-0.325000X0.650000X0.325000X0*%
%ADD24R,0.900000X1.000000*%
%ADD25RoundRect,0.250000X1.100000X-0.325000X1.100000X0.325000X-1.100000X0.325000X-1.100000X-0.325000X0*%
%ADD26RoundRect,0.160000X0.197500X0.160000X-0.197500X0.160000X-0.197500X-0.160000X0.197500X-0.160000X0*%
%ADD27RoundRect,0.250000X1.500000X1.000000X-1.500000X1.000000X-1.500000X-1.000000X1.500000X-1.000000X0*%
%ADD28RoundRect,0.250000X-1.100000X0.325000X-1.100000X-0.325000X1.100000X-0.325000X1.100000X0.325000X0*%
%ADD29RoundRect,0.250000X-0.450000X0.325000X-0.450000X-0.325000X0.450000X-0.325000X0.450000X0.325000X0*%
%ADD30RoundRect,0.250000X-0.325000X-1.100000X0.325000X-1.100000X0.325000X1.100000X-0.325000X1.100000X0*%
%ADD31RoundRect,0.160000X-0.197500X-0.160000X0.197500X-0.160000X0.197500X0.160000X-0.197500X0.160000X0*%
%ADD32R,0.700001X0.249999*%
%ADD33R,1.100000X0.249998*%
%ADD34R,0.800001X2.849999*%
%ADD35R,0.310000X0.660000*%
%ADD36RoundRect,0.250000X-0.450000X0.262500X-0.450000X-0.262500X0.450000X-0.262500X0.450000X0.262500X0*%
%ADD37RoundRect,0.150000X-0.512500X-0.150000X0.512500X-0.150000X0.512500X0.150000X-0.512500X0.150000X0*%
%ADD38RoundRect,0.049500X-0.250500X-0.060500X0.250500X-0.060500X0.250500X0.060500X-0.250500X0.060500X0*%
%ADD39RoundRect,0.049500X-0.060500X-0.250500X0.060500X-0.250500X0.060500X0.250500X-0.060500X0.250500X0*%
%ADD40RoundRect,0.087500X-0.725000X-0.087500X0.725000X-0.087500X0.725000X0.087500X-0.725000X0.087500X0*%
%ADD41R,1.450000X0.450000*%
%ADD42R,1.100000X1.400000*%
%ADD43R,0.700000X0.700000*%
%ADD44R,4.000000X1.500000*%
%ADD45RoundRect,0.250000X0.450000X0.800000X-0.450000X0.800000X-0.450000X-0.800000X0.450000X-0.800000X0*%
G04 APERTURE END LIST*
D10*
X171394000Y-135951667D02*
X170194000Y-135951667D01*
X170194000Y-135001667D01*
X171394000Y-135001667D01*
X171394000Y-135951667D01*
G36*
X171394000Y-135951667D02*
G01*
X170194000Y-135951667D01*
X170194000Y-135001667D01*
X171394000Y-135001667D01*
X171394000Y-135951667D01*
G37*
X171404000Y-137781667D02*
X170204000Y-137781667D01*
X170204000Y-136831667D01*
X171404000Y-136831667D01*
X171404000Y-137781667D01*
G36*
X171404000Y-137781667D02*
G01*
X170204000Y-137781667D01*
X170204000Y-136831667D01*
X171404000Y-136831667D01*
X171404000Y-137781667D01*
G37*
X171414000Y-139641667D02*
X170214000Y-139641667D01*
X170214000Y-138691667D01*
X171414000Y-138691667D01*
X171414000Y-139641667D01*
G36*
X171414000Y-139641667D02*
G01*
X170214000Y-139641667D01*
X170214000Y-138691667D01*
X171414000Y-138691667D01*
X171414000Y-139641667D01*
G37*
X171434000Y-133746667D02*
X170234000Y-133746667D01*
X170234000Y-132626667D01*
X171434000Y-132626667D01*
X171434000Y-133746667D01*
G36*
X171434000Y-133746667D02*
G01*
X170234000Y-133746667D01*
X170234000Y-132626667D01*
X171434000Y-132626667D01*
X171434000Y-133746667D01*
G37*
X173574000Y-133736667D02*
X172374000Y-133736667D01*
X172374000Y-132626667D01*
X173574000Y-132626667D01*
X173574000Y-133736667D01*
G36*
X173574000Y-133736667D02*
G01*
X172374000Y-133736667D01*
X172374000Y-132626667D01*
X173574000Y-132626667D01*
X173574000Y-133736667D01*
G37*
X173604000Y-135961667D02*
X172404000Y-135961667D01*
X172404000Y-135011667D01*
X173604000Y-135011667D01*
X173604000Y-135961667D01*
G36*
X173604000Y-135961667D02*
G01*
X172404000Y-135961667D01*
X172404000Y-135011667D01*
X173604000Y-135011667D01*
X173604000Y-135961667D01*
G37*
X173614000Y-137791667D02*
X172414000Y-137791667D01*
X172414000Y-136841667D01*
X173614000Y-136841667D01*
X173614000Y-137791667D01*
G36*
X173614000Y-137791667D02*
G01*
X172414000Y-137791667D01*
X172414000Y-136841667D01*
X173614000Y-136841667D01*
X173614000Y-137791667D01*
G37*
X173624000Y-139651667D02*
X172424000Y-139651667D01*
X172424000Y-138701667D01*
X173624000Y-138701667D01*
X173624000Y-139651667D01*
G36*
X173624000Y-139651667D02*
G01*
X172424000Y-139651667D01*
X172424000Y-138701667D01*
X173624000Y-138701667D01*
X173624000Y-139651667D01*
G37*
X175754000Y-133716667D02*
X174554000Y-133716667D01*
X174554000Y-132606667D01*
X175754000Y-132606667D01*
X175754000Y-133716667D01*
G36*
X175754000Y-133716667D02*
G01*
X174554000Y-133716667D01*
X174554000Y-132606667D01*
X175754000Y-132606667D01*
X175754000Y-133716667D01*
G37*
X175754000Y-135961667D02*
X174554000Y-135961667D01*
X174554000Y-135011667D01*
X175754000Y-135011667D01*
X175754000Y-135961667D01*
G36*
X175754000Y-135961667D02*
G01*
X174554000Y-135961667D01*
X174554000Y-135011667D01*
X175754000Y-135011667D01*
X175754000Y-135961667D01*
G37*
X175764000Y-137791667D02*
X174564000Y-137791667D01*
X174564000Y-136841667D01*
X175764000Y-136841667D01*
X175764000Y-137791667D01*
G36*
X175764000Y-137791667D02*
G01*
X174564000Y-137791667D01*
X174564000Y-136841667D01*
X175764000Y-136841667D01*
X175764000Y-137791667D01*
G37*
X175774000Y-139651667D02*
X174574000Y-139651667D01*
X174574000Y-138701667D01*
X175774000Y-138701667D01*
X175774000Y-139651667D01*
G36*
X175774000Y-139651667D02*
G01*
X174574000Y-139651667D01*
X174574000Y-138701667D01*
X175774000Y-138701667D01*
X175774000Y-139651667D01*
G37*
X72180802Y-175474999D02*
X73380802Y-175474999D01*
X73380802Y-176424999D01*
X72180802Y-176424999D01*
X72180802Y-175474999D01*
G36*
X72180802Y-175474999D02*
G01*
X73380802Y-175474999D01*
X73380802Y-176424999D01*
X72180802Y-176424999D01*
X72180802Y-175474999D01*
G37*
X72190802Y-177334999D02*
X73390802Y-177334999D01*
X73390802Y-178284999D01*
X72190802Y-178284999D01*
X72190802Y-177334999D01*
G36*
X72190802Y-177334999D02*
G01*
X73390802Y-177334999D01*
X73390802Y-178284999D01*
X72190802Y-178284999D01*
X72190802Y-177334999D01*
G37*
X72200802Y-179164999D02*
X73400802Y-179164999D01*
X73400802Y-180114999D01*
X72200802Y-180114999D01*
X72200802Y-179164999D01*
G36*
X72200802Y-179164999D02*
G01*
X73400802Y-179164999D01*
X73400802Y-180114999D01*
X72200802Y-180114999D01*
X72200802Y-179164999D01*
G37*
X72200802Y-181409999D02*
X73400802Y-181409999D01*
X73400802Y-182519999D01*
X72200802Y-182519999D01*
X72200802Y-181409999D01*
G36*
X72200802Y-181409999D02*
G01*
X73400802Y-181409999D01*
X73400802Y-182519999D01*
X72200802Y-182519999D01*
X72200802Y-181409999D01*
G37*
X74330802Y-175474999D02*
X75530802Y-175474999D01*
X75530802Y-176424999D01*
X74330802Y-176424999D01*
X74330802Y-175474999D01*
G36*
X74330802Y-175474999D02*
G01*
X75530802Y-175474999D01*
X75530802Y-176424999D01*
X74330802Y-176424999D01*
X74330802Y-175474999D01*
G37*
X74340802Y-177334999D02*
X75540802Y-177334999D01*
X75540802Y-178284999D01*
X74340802Y-178284999D01*
X74340802Y-177334999D01*
G36*
X74340802Y-177334999D02*
G01*
X75540802Y-177334999D01*
X75540802Y-178284999D01*
X74340802Y-178284999D01*
X74340802Y-177334999D01*
G37*
X74350802Y-179164999D02*
X75550802Y-179164999D01*
X75550802Y-180114999D01*
X74350802Y-180114999D01*
X74350802Y-179164999D01*
G36*
X74350802Y-179164999D02*
G01*
X75550802Y-179164999D01*
X75550802Y-180114999D01*
X74350802Y-180114999D01*
X74350802Y-179164999D01*
G37*
X74380802Y-181389999D02*
X75580802Y-181389999D01*
X75580802Y-182499999D01*
X74380802Y-182499999D01*
X74380802Y-181389999D01*
G36*
X74380802Y-181389999D02*
G01*
X75580802Y-181389999D01*
X75580802Y-182499999D01*
X74380802Y-182499999D01*
X74380802Y-181389999D01*
G37*
X76520802Y-181379999D02*
X77720802Y-181379999D01*
X77720802Y-182499999D01*
X76520802Y-182499999D01*
X76520802Y-181379999D01*
G36*
X76520802Y-181379999D02*
G01*
X77720802Y-181379999D01*
X77720802Y-182499999D01*
X76520802Y-182499999D01*
X76520802Y-181379999D01*
G37*
X76540802Y-175484999D02*
X77740802Y-175484999D01*
X77740802Y-176434999D01*
X76540802Y-176434999D01*
X76540802Y-175484999D01*
G36*
X76540802Y-175484999D02*
G01*
X77740802Y-175484999D01*
X77740802Y-176434999D01*
X76540802Y-176434999D01*
X76540802Y-175484999D01*
G37*
X76550802Y-177344999D02*
X77750802Y-177344999D01*
X77750802Y-178294999D01*
X76550802Y-178294999D01*
X76550802Y-177344999D01*
G36*
X76550802Y-177344999D02*
G01*
X77750802Y-177344999D01*
X77750802Y-178294999D01*
X76550802Y-178294999D01*
X76550802Y-177344999D01*
G37*
X76560802Y-179174999D02*
X77760802Y-179174999D01*
X77760802Y-180124999D01*
X76560802Y-180124999D01*
X76560802Y-179174999D01*
G36*
X76560802Y-179174999D02*
G01*
X77760802Y-179174999D01*
X77760802Y-180124999D01*
X76560802Y-180124999D01*
X76560802Y-179174999D01*
G37*
X97689599Y-135951667D02*
X96489599Y-135951667D01*
X96489599Y-135001667D01*
X97689599Y-135001667D01*
X97689599Y-135951667D01*
G36*
X97689599Y-135951667D02*
G01*
X96489599Y-135951667D01*
X96489599Y-135001667D01*
X97689599Y-135001667D01*
X97689599Y-135951667D01*
G37*
X97699599Y-137781667D02*
X96499599Y-137781667D01*
X96499599Y-136831667D01*
X97699599Y-136831667D01*
X97699599Y-137781667D01*
G36*
X97699599Y-137781667D02*
G01*
X96499599Y-137781667D01*
X96499599Y-136831667D01*
X97699599Y-136831667D01*
X97699599Y-137781667D01*
G37*
X97709599Y-139641667D02*
X96509599Y-139641667D01*
X96509599Y-138691667D01*
X97709599Y-138691667D01*
X97709599Y-139641667D01*
G36*
X97709599Y-139641667D02*
G01*
X96509599Y-139641667D01*
X96509599Y-138691667D01*
X97709599Y-138691667D01*
X97709599Y-139641667D01*
G37*
X97729599Y-133746667D02*
X96529599Y-133746667D01*
X96529599Y-132626667D01*
X97729599Y-132626667D01*
X97729599Y-133746667D01*
G36*
X97729599Y-133746667D02*
G01*
X96529599Y-133746667D01*
X96529599Y-132626667D01*
X97729599Y-132626667D01*
X97729599Y-133746667D01*
G37*
X99869599Y-133736667D02*
X98669599Y-133736667D01*
X98669599Y-132626667D01*
X99869599Y-132626667D01*
X99869599Y-133736667D01*
G36*
X99869599Y-133736667D02*
G01*
X98669599Y-133736667D01*
X98669599Y-132626667D01*
X99869599Y-132626667D01*
X99869599Y-133736667D01*
G37*
X99899599Y-135961667D02*
X98699599Y-135961667D01*
X98699599Y-135011667D01*
X99899599Y-135011667D01*
X99899599Y-135961667D01*
G36*
X99899599Y-135961667D02*
G01*
X98699599Y-135961667D01*
X98699599Y-135011667D01*
X99899599Y-135011667D01*
X99899599Y-135961667D01*
G37*
X99909599Y-137791667D02*
X98709599Y-137791667D01*
X98709599Y-136841667D01*
X99909599Y-136841667D01*
X99909599Y-137791667D01*
G36*
X99909599Y-137791667D02*
G01*
X98709599Y-137791667D01*
X98709599Y-136841667D01*
X99909599Y-136841667D01*
X99909599Y-137791667D01*
G37*
X99919599Y-139651667D02*
X98719599Y-139651667D01*
X98719599Y-138701667D01*
X99919599Y-138701667D01*
X99919599Y-139651667D01*
G36*
X99919599Y-139651667D02*
G01*
X98719599Y-139651667D01*
X98719599Y-138701667D01*
X99919599Y-138701667D01*
X99919599Y-139651667D01*
G37*
X102049599Y-133716667D02*
X100849599Y-133716667D01*
X100849599Y-132606667D01*
X102049599Y-132606667D01*
X102049599Y-133716667D01*
G36*
X102049599Y-133716667D02*
G01*
X100849599Y-133716667D01*
X100849599Y-132606667D01*
X102049599Y-132606667D01*
X102049599Y-133716667D01*
G37*
X102049599Y-135961667D02*
X100849599Y-135961667D01*
X100849599Y-135011667D01*
X102049599Y-135011667D01*
X102049599Y-135961667D01*
G36*
X102049599Y-135961667D02*
G01*
X100849599Y-135961667D01*
X100849599Y-135011667D01*
X102049599Y-135011667D01*
X102049599Y-135961667D01*
G37*
X102059599Y-137791667D02*
X100859599Y-137791667D01*
X100859599Y-136841667D01*
X102059599Y-136841667D01*
X102059599Y-137791667D01*
G36*
X102059599Y-137791667D02*
G01*
X100859599Y-137791667D01*
X100859599Y-136841667D01*
X102059599Y-136841667D01*
X102059599Y-137791667D01*
G37*
X102069599Y-139651667D02*
X100869599Y-139651667D01*
X100869599Y-138701667D01*
X102069599Y-138701667D01*
X102069599Y-139651667D01*
G36*
X102069599Y-139651667D02*
G01*
X100869599Y-139651667D01*
X100869599Y-138701667D01*
X102069599Y-138701667D01*
X102069599Y-139651667D01*
G37*
D11*
G36*
X90029437Y-95250968D02*
G01*
X90038891Y-95253835D01*
X90047603Y-95258494D01*
X90055241Y-95264760D01*
X90061509Y-95272398D01*
X90066168Y-95281112D01*
X90069035Y-95290566D01*
X90070003Y-95300399D01*
X90070003Y-96319599D01*
X90069035Y-96329431D01*
X90066168Y-96338885D01*
X90061509Y-96347600D01*
X90055241Y-96355238D01*
X90047603Y-96361504D01*
X90038891Y-96366162D01*
X90029437Y-96369030D01*
X90019602Y-96369998D01*
X88710405Y-96369998D01*
X88700570Y-96369030D01*
X88691116Y-96366162D01*
X88682404Y-96361504D01*
X88674766Y-96355238D01*
X88668497Y-96347600D01*
X88663839Y-96338885D01*
X88660971Y-96329431D01*
X88660003Y-96319599D01*
X88660003Y-95300399D01*
X88660971Y-95290566D01*
X88663839Y-95281112D01*
X88668497Y-95272398D01*
X88674766Y-95264760D01*
X88682404Y-95258494D01*
X88691116Y-95253835D01*
X88700570Y-95250968D01*
X88710405Y-95249997D01*
X90019602Y-95249997D01*
X90029437Y-95250968D01*
G37*
G36*
X90029437Y-96570968D02*
G01*
X90038891Y-96573835D01*
X90047603Y-96578494D01*
X90055241Y-96584760D01*
X90061509Y-96592398D01*
X90066168Y-96601112D01*
X90069035Y-96610566D01*
X90070003Y-96620399D01*
X90070003Y-97639599D01*
X90069035Y-97649431D01*
X90066168Y-97658885D01*
X90061509Y-97667600D01*
X90055241Y-97675238D01*
X90047603Y-97681504D01*
X90038891Y-97686162D01*
X90029437Y-97689030D01*
X90019602Y-97689998D01*
X88710405Y-97689998D01*
X88700570Y-97689030D01*
X88691116Y-97686162D01*
X88682404Y-97681504D01*
X88674766Y-97675238D01*
X88668497Y-97667600D01*
X88663839Y-97658885D01*
X88660971Y-97649431D01*
X88660003Y-97639599D01*
X88660003Y-96620399D01*
X88660971Y-96610566D01*
X88663839Y-96601112D01*
X88668497Y-96592398D01*
X88674766Y-96584760D01*
X88682404Y-96578494D01*
X88691116Y-96573835D01*
X88700570Y-96570968D01*
X88710405Y-96569997D01*
X90019602Y-96569997D01*
X90029437Y-96570968D01*
G37*
G36*
X90029437Y-97890970D02*
G01*
X90038891Y-97893838D01*
X90047603Y-97898496D01*
X90055241Y-97904762D01*
X90061509Y-97912400D01*
X90066168Y-97921115D01*
X90069035Y-97930569D01*
X90070003Y-97940401D01*
X90070003Y-98959601D01*
X90069035Y-98969434D01*
X90066168Y-98978888D01*
X90061509Y-98987602D01*
X90055241Y-98995240D01*
X90047603Y-99001506D01*
X90038891Y-99006165D01*
X90029437Y-99009032D01*
X90019602Y-99010003D01*
X88710405Y-99010003D01*
X88700570Y-99009032D01*
X88691116Y-99006165D01*
X88682404Y-99001506D01*
X88674766Y-98995240D01*
X88668497Y-98987602D01*
X88663839Y-98978888D01*
X88660971Y-98969434D01*
X88660003Y-98959601D01*
X88660003Y-97940401D01*
X88660971Y-97930569D01*
X88663839Y-97921115D01*
X88668497Y-97912400D01*
X88674766Y-97904762D01*
X88682404Y-97898496D01*
X88691116Y-97893838D01*
X88700570Y-97890970D01*
X88710405Y-97890002D01*
X90019602Y-97890002D01*
X90029437Y-97890970D01*
G37*
G36*
X90029437Y-99210970D02*
G01*
X90038891Y-99213838D01*
X90047603Y-99218496D01*
X90055241Y-99224762D01*
X90061509Y-99232400D01*
X90066168Y-99241115D01*
X90069035Y-99250569D01*
X90070003Y-99260401D01*
X90070003Y-100279601D01*
X90069035Y-100289434D01*
X90066168Y-100298888D01*
X90061509Y-100307602D01*
X90055241Y-100315240D01*
X90047603Y-100321506D01*
X90038891Y-100326165D01*
X90029437Y-100329032D01*
X90019602Y-100330003D01*
X88710405Y-100330003D01*
X88700570Y-100329032D01*
X88691116Y-100326165D01*
X88682404Y-100321506D01*
X88674766Y-100315240D01*
X88668497Y-100307602D01*
X88663839Y-100298888D01*
X88660971Y-100289434D01*
X88660003Y-100279601D01*
X88660003Y-99260401D01*
X88660971Y-99250569D01*
X88663839Y-99241115D01*
X88668497Y-99232400D01*
X88674766Y-99224762D01*
X88682404Y-99218496D01*
X88691116Y-99213838D01*
X88700570Y-99210970D01*
X88710405Y-99210002D01*
X90019602Y-99210002D01*
X90029437Y-99210970D01*
G37*
G36*
X91639436Y-95250968D02*
G01*
X91648890Y-95253835D01*
X91657602Y-95258494D01*
X91665240Y-95264760D01*
X91671509Y-95272398D01*
X91676167Y-95281112D01*
X91679035Y-95290566D01*
X91680003Y-95300399D01*
X91680003Y-96319599D01*
X91679035Y-96329431D01*
X91676167Y-96338885D01*
X91671509Y-96347600D01*
X91665240Y-96355238D01*
X91657602Y-96361504D01*
X91648890Y-96366162D01*
X91639436Y-96369030D01*
X91629601Y-96369998D01*
X90320404Y-96369998D01*
X90310569Y-96369030D01*
X90301115Y-96366162D01*
X90292403Y-96361504D01*
X90284765Y-96355238D01*
X90278497Y-96347600D01*
X90273838Y-96338885D01*
X90270971Y-96329431D01*
X90270003Y-96319599D01*
X90270003Y-95300399D01*
X90270971Y-95290566D01*
X90273838Y-95281112D01*
X90278497Y-95272398D01*
X90284765Y-95264760D01*
X90292403Y-95258494D01*
X90301115Y-95253835D01*
X90310569Y-95250968D01*
X90320404Y-95249997D01*
X91629601Y-95249997D01*
X91639436Y-95250968D01*
G37*
G36*
X91639436Y-96570968D02*
G01*
X91648890Y-96573835D01*
X91657602Y-96578494D01*
X91665240Y-96584760D01*
X91671509Y-96592398D01*
X91676167Y-96601112D01*
X91679035Y-96610566D01*
X91680003Y-96620399D01*
X91680003Y-97639599D01*
X91679035Y-97649431D01*
X91676167Y-97658885D01*
X91671509Y-97667600D01*
X91665240Y-97675238D01*
X91657602Y-97681504D01*
X91648890Y-97686162D01*
X91639436Y-97689030D01*
X91629601Y-97689998D01*
X90320404Y-97689998D01*
X90310569Y-97689030D01*
X90301115Y-97686162D01*
X90292403Y-97681504D01*
X90284765Y-97675238D01*
X90278497Y-97667600D01*
X90273838Y-97658885D01*
X90270971Y-97649431D01*
X90270003Y-97639599D01*
X90270003Y-96620399D01*
X90270971Y-96610566D01*
X90273838Y-96601112D01*
X90278497Y-96592398D01*
X90284765Y-96584760D01*
X90292403Y-96578494D01*
X90301115Y-96573835D01*
X90310569Y-96570968D01*
X90320404Y-96569997D01*
X91629601Y-96569997D01*
X91639436Y-96570968D01*
G37*
G36*
X91639436Y-97890970D02*
G01*
X91648890Y-97893838D01*
X91657602Y-97898496D01*
X91665240Y-97904762D01*
X91671509Y-97912400D01*
X91676167Y-97921115D01*
X91679035Y-97930569D01*
X91680003Y-97940401D01*
X91680003Y-98959601D01*
X91679035Y-98969434D01*
X91676167Y-98978888D01*
X91671509Y-98987602D01*
X91665240Y-98995240D01*
X91657602Y-99001506D01*
X91648890Y-99006165D01*
X91639436Y-99009032D01*
X91629601Y-99010003D01*
X90320404Y-99010003D01*
X90310569Y-99009032D01*
X90301115Y-99006165D01*
X90292403Y-99001506D01*
X90284765Y-98995240D01*
X90278497Y-98987602D01*
X90273838Y-98978888D01*
X90270971Y-98969434D01*
X90270003Y-98959601D01*
X90270003Y-97940401D01*
X90270971Y-97930569D01*
X90273838Y-97921115D01*
X90278497Y-97912400D01*
X90284765Y-97904762D01*
X90292403Y-97898496D01*
X90301115Y-97893838D01*
X90310569Y-97890970D01*
X90320404Y-97890002D01*
X91629601Y-97890002D01*
X91639436Y-97890970D01*
G37*
G36*
X91639436Y-99210970D02*
G01*
X91648890Y-99213838D01*
X91657602Y-99218496D01*
X91665240Y-99224762D01*
X91671509Y-99232400D01*
X91676167Y-99241115D01*
X91679035Y-99250569D01*
X91680003Y-99260401D01*
X91680003Y-100279601D01*
X91679035Y-100289434D01*
X91676167Y-100298888D01*
X91671509Y-100307602D01*
X91665240Y-100315240D01*
X91657602Y-100321506D01*
X91648890Y-100326165D01*
X91639436Y-100329032D01*
X91629601Y-100330003D01*
X90320404Y-100330003D01*
X90310569Y-100329032D01*
X90301115Y-100326165D01*
X90292403Y-100321506D01*
X90284765Y-100315240D01*
X90278497Y-100307602D01*
X90273838Y-100298888D01*
X90270971Y-100289434D01*
X90270003Y-100279601D01*
X90270003Y-99260401D01*
X90270971Y-99250569D01*
X90273838Y-99241115D01*
X90278497Y-99232400D01*
X90284765Y-99224762D01*
X90292403Y-99218496D01*
X90301115Y-99213838D01*
X90310569Y-99210970D01*
X90320404Y-99210002D01*
X91629601Y-99210002D01*
X91639436Y-99210970D01*
G37*
G36*
X88170004Y-95215001D02*
G01*
X88170004Y-97865001D01*
X88120005Y-97915001D01*
X87520003Y-97915001D01*
X87470003Y-97865001D01*
X87470003Y-97715001D01*
X87520003Y-97665002D01*
X87730005Y-97665002D01*
X87780005Y-97615002D01*
X87780005Y-97465002D01*
X87730005Y-97415002D01*
X87520003Y-97415002D01*
X87470003Y-97365002D01*
X87470003Y-97215000D01*
X87520003Y-97165000D01*
X87730005Y-97165000D01*
X87780005Y-97115000D01*
X87780005Y-96965000D01*
X87730005Y-96915000D01*
X87520003Y-96915000D01*
X87470003Y-96865001D01*
X87470003Y-96715001D01*
X87520003Y-96665001D01*
X87730005Y-96665001D01*
X87780005Y-96615001D01*
X87780005Y-96465001D01*
X87730005Y-96415001D01*
X87520003Y-96415001D01*
X87470003Y-96365002D01*
X87470003Y-96215002D01*
X87520003Y-96165002D01*
X87730005Y-96165002D01*
X87780005Y-96115002D01*
X87780005Y-95965000D01*
X87730005Y-95915000D01*
X87520003Y-95915000D01*
X87470003Y-95865000D01*
X87470003Y-95715000D01*
X87520003Y-95665000D01*
X87730005Y-95665000D01*
X87780005Y-95615001D01*
X87780005Y-95465001D01*
X87730005Y-95415001D01*
X87520003Y-95415001D01*
X87470003Y-95365001D01*
X87470003Y-95215001D01*
X87520003Y-95165001D01*
X88120005Y-95165001D01*
X88170004Y-95215001D01*
G37*
G36*
X92870003Y-95215001D02*
G01*
X92870003Y-95365001D01*
X92820003Y-95415001D01*
X92610001Y-95415001D01*
X92560001Y-95465001D01*
X92560001Y-95615001D01*
X92610001Y-95665000D01*
X92820003Y-95665000D01*
X92870003Y-95715000D01*
X92870003Y-95865000D01*
X92820003Y-95915000D01*
X92610001Y-95915000D01*
X92560001Y-95965000D01*
X92560001Y-96115002D01*
X92610001Y-96165002D01*
X92820003Y-96165002D01*
X92870003Y-96215002D01*
X92870003Y-96365002D01*
X92820003Y-96415001D01*
X92610001Y-96415001D01*
X92560001Y-96465001D01*
X92560001Y-96615001D01*
X92610001Y-96665001D01*
X92820003Y-96665001D01*
X92870003Y-96715001D01*
X92870003Y-96865001D01*
X92820003Y-96915000D01*
X92610001Y-96915000D01*
X92560001Y-96965000D01*
X92560001Y-97115000D01*
X92610001Y-97165000D01*
X92820003Y-97165000D01*
X92870003Y-97215000D01*
X92870003Y-97365002D01*
X92820003Y-97415002D01*
X92610001Y-97415002D01*
X92560001Y-97465002D01*
X92560001Y-97615002D01*
X92610001Y-97665002D01*
X92820003Y-97665002D01*
X92870003Y-97715001D01*
X92870003Y-97865001D01*
X92820003Y-97915001D01*
X92220001Y-97915001D01*
X92170002Y-97865001D01*
X92170002Y-95215001D01*
X92220001Y-95165001D01*
X92820003Y-95165001D01*
X92870003Y-95215001D01*
G37*
G36*
X90029437Y-64770968D02*
G01*
X90038891Y-64773835D01*
X90047603Y-64778494D01*
X90055241Y-64784760D01*
X90061509Y-64792398D01*
X90066168Y-64801112D01*
X90069035Y-64810566D01*
X90070003Y-64820399D01*
X90070003Y-65839599D01*
X90069035Y-65849431D01*
X90066168Y-65858885D01*
X90061509Y-65867600D01*
X90055241Y-65875238D01*
X90047603Y-65881504D01*
X90038891Y-65886162D01*
X90029437Y-65889030D01*
X90019602Y-65889998D01*
X88710405Y-65889998D01*
X88700570Y-65889030D01*
X88691116Y-65886162D01*
X88682404Y-65881504D01*
X88674766Y-65875238D01*
X88668497Y-65867600D01*
X88663839Y-65858885D01*
X88660971Y-65849431D01*
X88660003Y-65839599D01*
X88660003Y-64820399D01*
X88660971Y-64810566D01*
X88663839Y-64801112D01*
X88668497Y-64792398D01*
X88674766Y-64784760D01*
X88682404Y-64778494D01*
X88691116Y-64773835D01*
X88700570Y-64770968D01*
X88710405Y-64769997D01*
X90019602Y-64769997D01*
X90029437Y-64770968D01*
G37*
G36*
X90029437Y-66090968D02*
G01*
X90038891Y-66093835D01*
X90047603Y-66098494D01*
X90055241Y-66104760D01*
X90061509Y-66112398D01*
X90066168Y-66121112D01*
X90069035Y-66130566D01*
X90070003Y-66140399D01*
X90070003Y-67159599D01*
X90069035Y-67169431D01*
X90066168Y-67178885D01*
X90061509Y-67187600D01*
X90055241Y-67195238D01*
X90047603Y-67201504D01*
X90038891Y-67206162D01*
X90029437Y-67209030D01*
X90019602Y-67209998D01*
X88710405Y-67209998D01*
X88700570Y-67209030D01*
X88691116Y-67206162D01*
X88682404Y-67201504D01*
X88674766Y-67195238D01*
X88668497Y-67187600D01*
X88663839Y-67178885D01*
X88660971Y-67169431D01*
X88660003Y-67159599D01*
X88660003Y-66140399D01*
X88660971Y-66130566D01*
X88663839Y-66121112D01*
X88668497Y-66112398D01*
X88674766Y-66104760D01*
X88682404Y-66098494D01*
X88691116Y-66093835D01*
X88700570Y-66090968D01*
X88710405Y-66089997D01*
X90019602Y-66089997D01*
X90029437Y-66090968D01*
G37*
G36*
X90029437Y-67410970D02*
G01*
X90038891Y-67413838D01*
X90047603Y-67418496D01*
X90055241Y-67424762D01*
X90061509Y-67432400D01*
X90066168Y-67441115D01*
X90069035Y-67450569D01*
X90070003Y-67460401D01*
X90070003Y-68479601D01*
X90069035Y-68489434D01*
X90066168Y-68498888D01*
X90061509Y-68507602D01*
X90055241Y-68515240D01*
X90047603Y-68521506D01*
X90038891Y-68526165D01*
X90029437Y-68529032D01*
X90019602Y-68530003D01*
X88710405Y-68530003D01*
X88700570Y-68529032D01*
X88691116Y-68526165D01*
X88682404Y-68521506D01*
X88674766Y-68515240D01*
X88668497Y-68507602D01*
X88663839Y-68498888D01*
X88660971Y-68489434D01*
X88660003Y-68479601D01*
X88660003Y-67460401D01*
X88660971Y-67450569D01*
X88663839Y-67441115D01*
X88668497Y-67432400D01*
X88674766Y-67424762D01*
X88682404Y-67418496D01*
X88691116Y-67413838D01*
X88700570Y-67410970D01*
X88710405Y-67410002D01*
X90019602Y-67410002D01*
X90029437Y-67410970D01*
G37*
G36*
X90029437Y-68730970D02*
G01*
X90038891Y-68733838D01*
X90047603Y-68738496D01*
X90055241Y-68744762D01*
X90061509Y-68752400D01*
X90066168Y-68761115D01*
X90069035Y-68770569D01*
X90070003Y-68780401D01*
X90070003Y-69799601D01*
X90069035Y-69809434D01*
X90066168Y-69818888D01*
X90061509Y-69827602D01*
X90055241Y-69835240D01*
X90047603Y-69841506D01*
X90038891Y-69846165D01*
X90029437Y-69849032D01*
X90019602Y-69850003D01*
X88710405Y-69850003D01*
X88700570Y-69849032D01*
X88691116Y-69846165D01*
X88682404Y-69841506D01*
X88674766Y-69835240D01*
X88668497Y-69827602D01*
X88663839Y-69818888D01*
X88660971Y-69809434D01*
X88660003Y-69799601D01*
X88660003Y-68780401D01*
X88660971Y-68770569D01*
X88663839Y-68761115D01*
X88668497Y-68752400D01*
X88674766Y-68744762D01*
X88682404Y-68738496D01*
X88691116Y-68733838D01*
X88700570Y-68730970D01*
X88710405Y-68730002D01*
X90019602Y-68730002D01*
X90029437Y-68730970D01*
G37*
G36*
X91639436Y-64770968D02*
G01*
X91648890Y-64773835D01*
X91657602Y-64778494D01*
X91665240Y-64784760D01*
X91671509Y-64792398D01*
X91676167Y-64801112D01*
X91679035Y-64810566D01*
X91680003Y-64820399D01*
X91680003Y-65839599D01*
X91679035Y-65849431D01*
X91676167Y-65858885D01*
X91671509Y-65867600D01*
X91665240Y-65875238D01*
X91657602Y-65881504D01*
X91648890Y-65886162D01*
X91639436Y-65889030D01*
X91629601Y-65889998D01*
X90320404Y-65889998D01*
X90310569Y-65889030D01*
X90301115Y-65886162D01*
X90292403Y-65881504D01*
X90284765Y-65875238D01*
X90278497Y-65867600D01*
X90273838Y-65858885D01*
X90270971Y-65849431D01*
X90270003Y-65839599D01*
X90270003Y-64820399D01*
X90270971Y-64810566D01*
X90273838Y-64801112D01*
X90278497Y-64792398D01*
X90284765Y-64784760D01*
X90292403Y-64778494D01*
X90301115Y-64773835D01*
X90310569Y-64770968D01*
X90320404Y-64769997D01*
X91629601Y-64769997D01*
X91639436Y-64770968D01*
G37*
G36*
X91639436Y-66090968D02*
G01*
X91648890Y-66093835D01*
X91657602Y-66098494D01*
X91665240Y-66104760D01*
X91671509Y-66112398D01*
X91676167Y-66121112D01*
X91679035Y-66130566D01*
X91680003Y-66140399D01*
X91680003Y-67159599D01*
X91679035Y-67169431D01*
X91676167Y-67178885D01*
X91671509Y-67187600D01*
X91665240Y-67195238D01*
X91657602Y-67201504D01*
X91648890Y-67206162D01*
X91639436Y-67209030D01*
X91629601Y-67209998D01*
X90320404Y-67209998D01*
X90310569Y-67209030D01*
X90301115Y-67206162D01*
X90292403Y-67201504D01*
X90284765Y-67195238D01*
X90278497Y-67187600D01*
X90273838Y-67178885D01*
X90270971Y-67169431D01*
X90270003Y-67159599D01*
X90270003Y-66140399D01*
X90270971Y-66130566D01*
X90273838Y-66121112D01*
X90278497Y-66112398D01*
X90284765Y-66104760D01*
X90292403Y-66098494D01*
X90301115Y-66093835D01*
X90310569Y-66090968D01*
X90320404Y-66089997D01*
X91629601Y-66089997D01*
X91639436Y-66090968D01*
G37*
G36*
X91639436Y-67410970D02*
G01*
X91648890Y-67413838D01*
X91657602Y-67418496D01*
X91665240Y-67424762D01*
X91671509Y-67432400D01*
X91676167Y-67441115D01*
X91679035Y-67450569D01*
X91680003Y-67460401D01*
X91680003Y-68479601D01*
X91679035Y-68489434D01*
X91676167Y-68498888D01*
X91671509Y-68507602D01*
X91665240Y-68515240D01*
X91657602Y-68521506D01*
X91648890Y-68526165D01*
X91639436Y-68529032D01*
X91629601Y-68530003D01*
X90320404Y-68530003D01*
X90310569Y-68529032D01*
X90301115Y-68526165D01*
X90292403Y-68521506D01*
X90284765Y-68515240D01*
X90278497Y-68507602D01*
X90273838Y-68498888D01*
X90270971Y-68489434D01*
X90270003Y-68479601D01*
X90270003Y-67460401D01*
X90270971Y-67450569D01*
X90273838Y-67441115D01*
X90278497Y-67432400D01*
X90284765Y-67424762D01*
X90292403Y-67418496D01*
X90301115Y-67413838D01*
X90310569Y-67410970D01*
X90320404Y-67410002D01*
X91629601Y-67410002D01*
X91639436Y-67410970D01*
G37*
G36*
X91639436Y-68730970D02*
G01*
X91648890Y-68733838D01*
X91657602Y-68738496D01*
X91665240Y-68744762D01*
X91671509Y-68752400D01*
X91676167Y-68761115D01*
X91679035Y-68770569D01*
X91680003Y-68780401D01*
X91680003Y-69799601D01*
X91679035Y-69809434D01*
X91676167Y-69818888D01*
X91671509Y-69827602D01*
X91665240Y-69835240D01*
X91657602Y-69841506D01*
X91648890Y-69846165D01*
X91639436Y-69849032D01*
X91629601Y-69850003D01*
X90320404Y-69850003D01*
X90310569Y-69849032D01*
X90301115Y-69846165D01*
X90292403Y-69841506D01*
X90284765Y-69835240D01*
X90278497Y-69827602D01*
X90273838Y-69818888D01*
X90270971Y-69809434D01*
X90270003Y-69799601D01*
X90270003Y-68780401D01*
X90270971Y-68770569D01*
X90273838Y-68761115D01*
X90278497Y-68752400D01*
X90284765Y-68744762D01*
X90292403Y-68738496D01*
X90301115Y-68733838D01*
X90310569Y-68730970D01*
X90320404Y-68730002D01*
X91629601Y-68730002D01*
X91639436Y-68730970D01*
G37*
G36*
X88170004Y-64735001D02*
G01*
X88170004Y-67385001D01*
X88120005Y-67435001D01*
X87520003Y-67435001D01*
X87470003Y-67385001D01*
X87470003Y-67235001D01*
X87520003Y-67185002D01*
X87730005Y-67185002D01*
X87780005Y-67135002D01*
X87780005Y-66985002D01*
X87730005Y-66935002D01*
X87520003Y-66935002D01*
X87470003Y-66885002D01*
X87470003Y-66735000D01*
X87520003Y-66685000D01*
X87730005Y-66685000D01*
X87780005Y-66635000D01*
X87780005Y-66485000D01*
X87730005Y-66435000D01*
X87520003Y-66435000D01*
X87470003Y-66385001D01*
X87470003Y-66235001D01*
X87520003Y-66185001D01*
X87730005Y-66185001D01*
X87780005Y-66135001D01*
X87780005Y-65985001D01*
X87730005Y-65935001D01*
X87520003Y-65935001D01*
X87470003Y-65885002D01*
X87470003Y-65735002D01*
X87520003Y-65685002D01*
X87730005Y-65685002D01*
X87780005Y-65635002D01*
X87780005Y-65485000D01*
X87730005Y-65435000D01*
X87520003Y-65435000D01*
X87470003Y-65385000D01*
X87470003Y-65235000D01*
X87520003Y-65185000D01*
X87730005Y-65185000D01*
X87780005Y-65135001D01*
X87780005Y-64985001D01*
X87730005Y-64935001D01*
X87520003Y-64935001D01*
X87470003Y-64885001D01*
X87470003Y-64735001D01*
X87520003Y-64685001D01*
X88120005Y-64685001D01*
X88170004Y-64735001D01*
G37*
G36*
X92870003Y-64735001D02*
G01*
X92870003Y-64885001D01*
X92820003Y-64935001D01*
X92610001Y-64935001D01*
X92560001Y-64985001D01*
X92560001Y-65135001D01*
X92610001Y-65185000D01*
X92820003Y-65185000D01*
X92870003Y-65235000D01*
X92870003Y-65385000D01*
X92820003Y-65435000D01*
X92610001Y-65435000D01*
X92560001Y-65485000D01*
X92560001Y-65635002D01*
X92610001Y-65685002D01*
X92820003Y-65685002D01*
X92870003Y-65735002D01*
X92870003Y-65885002D01*
X92820003Y-65935001D01*
X92610001Y-65935001D01*
X92560001Y-65985001D01*
X92560001Y-66135001D01*
X92610001Y-66185001D01*
X92820003Y-66185001D01*
X92870003Y-66235001D01*
X92870003Y-66385001D01*
X92820003Y-66435000D01*
X92610001Y-66435000D01*
X92560001Y-66485000D01*
X92560001Y-66635000D01*
X92610001Y-66685000D01*
X92820003Y-66685000D01*
X92870003Y-66735000D01*
X92870003Y-66885002D01*
X92820003Y-66935002D01*
X92610001Y-66935002D01*
X92560001Y-66985002D01*
X92560001Y-67135002D01*
X92610001Y-67185002D01*
X92820003Y-67185002D01*
X92870003Y-67235001D01*
X92870003Y-67385001D01*
X92820003Y-67435001D01*
X92220001Y-67435001D01*
X92170002Y-67385001D01*
X92170002Y-64735001D01*
X92220001Y-64685001D01*
X92820003Y-64685001D01*
X92870003Y-64735001D01*
G37*
D10*
X96615602Y-175474999D02*
X97815602Y-175474999D01*
X97815602Y-176424999D01*
X96615602Y-176424999D01*
X96615602Y-175474999D01*
G36*
X96615602Y-175474999D02*
G01*
X97815602Y-175474999D01*
X97815602Y-176424999D01*
X96615602Y-176424999D01*
X96615602Y-175474999D01*
G37*
X96625602Y-177334999D02*
X97825602Y-177334999D01*
X97825602Y-178284999D01*
X96625602Y-178284999D01*
X96625602Y-177334999D01*
G36*
X96625602Y-177334999D02*
G01*
X97825602Y-177334999D01*
X97825602Y-178284999D01*
X96625602Y-178284999D01*
X96625602Y-177334999D01*
G37*
X96635602Y-179164999D02*
X97835602Y-179164999D01*
X97835602Y-180114999D01*
X96635602Y-180114999D01*
X96635602Y-179164999D01*
G36*
X96635602Y-179164999D02*
G01*
X97835602Y-179164999D01*
X97835602Y-180114999D01*
X96635602Y-180114999D01*
X96635602Y-179164999D01*
G37*
X96635602Y-181409999D02*
X97835602Y-181409999D01*
X97835602Y-182519999D01*
X96635602Y-182519999D01*
X96635602Y-181409999D01*
G36*
X96635602Y-181409999D02*
G01*
X97835602Y-181409999D01*
X97835602Y-182519999D01*
X96635602Y-182519999D01*
X96635602Y-181409999D01*
G37*
X98765602Y-175474999D02*
X99965602Y-175474999D01*
X99965602Y-176424999D01*
X98765602Y-176424999D01*
X98765602Y-175474999D01*
G36*
X98765602Y-175474999D02*
G01*
X99965602Y-175474999D01*
X99965602Y-176424999D01*
X98765602Y-176424999D01*
X98765602Y-175474999D01*
G37*
X98775602Y-177334999D02*
X99975602Y-177334999D01*
X99975602Y-178284999D01*
X98775602Y-178284999D01*
X98775602Y-177334999D01*
G36*
X98775602Y-177334999D02*
G01*
X99975602Y-177334999D01*
X99975602Y-178284999D01*
X98775602Y-178284999D01*
X98775602Y-177334999D01*
G37*
X98785602Y-179164999D02*
X99985602Y-179164999D01*
X99985602Y-180114999D01*
X98785602Y-180114999D01*
X98785602Y-179164999D01*
G36*
X98785602Y-179164999D02*
G01*
X99985602Y-179164999D01*
X99985602Y-180114999D01*
X98785602Y-180114999D01*
X98785602Y-179164999D01*
G37*
X98815602Y-181389999D02*
X100015602Y-181389999D01*
X100015602Y-182499999D01*
X98815602Y-182499999D01*
X98815602Y-181389999D01*
G36*
X98815602Y-181389999D02*
G01*
X100015602Y-181389999D01*
X100015602Y-182499999D01*
X98815602Y-182499999D01*
X98815602Y-181389999D01*
G37*
X100955602Y-181379999D02*
X102155602Y-181379999D01*
X102155602Y-182499999D01*
X100955602Y-182499999D01*
X100955602Y-181379999D01*
G36*
X100955602Y-181379999D02*
G01*
X102155602Y-181379999D01*
X102155602Y-182499999D01*
X100955602Y-182499999D01*
X100955602Y-181379999D01*
G37*
X100975602Y-175484999D02*
X102175602Y-175484999D01*
X102175602Y-176434999D01*
X100975602Y-176434999D01*
X100975602Y-175484999D01*
G36*
X100975602Y-175484999D02*
G01*
X102175602Y-175484999D01*
X102175602Y-176434999D01*
X100975602Y-176434999D01*
X100975602Y-175484999D01*
G37*
X100985602Y-177344999D02*
X102185602Y-177344999D01*
X102185602Y-178294999D01*
X100985602Y-178294999D01*
X100985602Y-177344999D01*
G36*
X100985602Y-177344999D02*
G01*
X102185602Y-177344999D01*
X102185602Y-178294999D01*
X100985602Y-178294999D01*
X100985602Y-177344999D01*
G37*
X100995602Y-179174999D02*
X102195602Y-179174999D01*
X102195602Y-180124999D01*
X100995602Y-180124999D01*
X100995602Y-179174999D01*
G36*
X100995602Y-179174999D02*
G01*
X102195602Y-179174999D01*
X102195602Y-180124999D01*
X100995602Y-180124999D01*
X100995602Y-179174999D01*
G37*
X121050400Y-175475000D02*
X122250400Y-175475000D01*
X122250400Y-176425000D01*
X121050400Y-176425000D01*
X121050400Y-175475000D01*
G36*
X121050400Y-175475000D02*
G01*
X122250400Y-175475000D01*
X122250400Y-176425000D01*
X121050400Y-176425000D01*
X121050400Y-175475000D01*
G37*
X121060400Y-177335000D02*
X122260400Y-177335000D01*
X122260400Y-178285000D01*
X121060400Y-178285000D01*
X121060400Y-177335000D01*
G36*
X121060400Y-177335000D02*
G01*
X122260400Y-177335000D01*
X122260400Y-178285000D01*
X121060400Y-178285000D01*
X121060400Y-177335000D01*
G37*
X121070400Y-179165000D02*
X122270400Y-179165000D01*
X122270400Y-180115000D01*
X121070400Y-180115000D01*
X121070400Y-179165000D01*
G36*
X121070400Y-179165000D02*
G01*
X122270400Y-179165000D01*
X122270400Y-180115000D01*
X121070400Y-180115000D01*
X121070400Y-179165000D01*
G37*
X121070400Y-181410000D02*
X122270400Y-181410000D01*
X122270400Y-182520000D01*
X121070400Y-182520000D01*
X121070400Y-181410000D01*
G36*
X121070400Y-181410000D02*
G01*
X122270400Y-181410000D01*
X122270400Y-182520000D01*
X121070400Y-182520000D01*
X121070400Y-181410000D01*
G37*
X123200400Y-175475000D02*
X124400400Y-175475000D01*
X124400400Y-176425000D01*
X123200400Y-176425000D01*
X123200400Y-175475000D01*
G36*
X123200400Y-175475000D02*
G01*
X124400400Y-175475000D01*
X124400400Y-176425000D01*
X123200400Y-176425000D01*
X123200400Y-175475000D01*
G37*
X123210400Y-177335000D02*
X124410400Y-177335000D01*
X124410400Y-178285000D01*
X123210400Y-178285000D01*
X123210400Y-177335000D01*
G36*
X123210400Y-177335000D02*
G01*
X124410400Y-177335000D01*
X124410400Y-178285000D01*
X123210400Y-178285000D01*
X123210400Y-177335000D01*
G37*
X123220400Y-179165000D02*
X124420400Y-179165000D01*
X124420400Y-180115000D01*
X123220400Y-180115000D01*
X123220400Y-179165000D01*
G36*
X123220400Y-179165000D02*
G01*
X124420400Y-179165000D01*
X124420400Y-180115000D01*
X123220400Y-180115000D01*
X123220400Y-179165000D01*
G37*
X123250400Y-181390000D02*
X124450400Y-181390000D01*
X124450400Y-182500000D01*
X123250400Y-182500000D01*
X123250400Y-181390000D01*
G36*
X123250400Y-181390000D02*
G01*
X124450400Y-181390000D01*
X124450400Y-182500000D01*
X123250400Y-182500000D01*
X123250400Y-181390000D01*
G37*
X125390400Y-181380000D02*
X126590400Y-181380000D01*
X126590400Y-182500000D01*
X125390400Y-182500000D01*
X125390400Y-181380000D01*
G36*
X125390400Y-181380000D02*
G01*
X126590400Y-181380000D01*
X126590400Y-182500000D01*
X125390400Y-182500000D01*
X125390400Y-181380000D01*
G37*
X125410400Y-175485000D02*
X126610400Y-175485000D01*
X126610400Y-176435000D01*
X125410400Y-176435000D01*
X125410400Y-175485000D01*
G36*
X125410400Y-175485000D02*
G01*
X126610400Y-175485000D01*
X126610400Y-176435000D01*
X125410400Y-176435000D01*
X125410400Y-175485000D01*
G37*
X125420400Y-177345000D02*
X126620400Y-177345000D01*
X126620400Y-178295000D01*
X125420400Y-178295000D01*
X125420400Y-177345000D01*
G36*
X125420400Y-177345000D02*
G01*
X126620400Y-177345000D01*
X126620400Y-178295000D01*
X125420400Y-178295000D01*
X125420400Y-177345000D01*
G37*
X125430400Y-179175000D02*
X126630400Y-179175000D01*
X126630400Y-180125000D01*
X125430400Y-180125000D01*
X125430400Y-179175000D01*
G36*
X125430400Y-179175000D02*
G01*
X126630400Y-179175000D01*
X126630400Y-180125000D01*
X125430400Y-180125000D01*
X125430400Y-179175000D01*
G37*
D11*
G36*
X90029437Y-44450968D02*
G01*
X90038891Y-44453835D01*
X90047603Y-44458494D01*
X90055241Y-44464760D01*
X90061509Y-44472398D01*
X90066168Y-44481112D01*
X90069035Y-44490566D01*
X90070003Y-44500399D01*
X90070003Y-45519599D01*
X90069035Y-45529431D01*
X90066168Y-45538885D01*
X90061509Y-45547600D01*
X90055241Y-45555238D01*
X90047603Y-45561504D01*
X90038891Y-45566162D01*
X90029437Y-45569030D01*
X90019602Y-45569998D01*
X88710405Y-45569998D01*
X88700570Y-45569030D01*
X88691116Y-45566162D01*
X88682404Y-45561504D01*
X88674766Y-45555238D01*
X88668497Y-45547600D01*
X88663839Y-45538885D01*
X88660971Y-45529431D01*
X88660003Y-45519599D01*
X88660003Y-44500399D01*
X88660971Y-44490566D01*
X88663839Y-44481112D01*
X88668497Y-44472398D01*
X88674766Y-44464760D01*
X88682404Y-44458494D01*
X88691116Y-44453835D01*
X88700570Y-44450968D01*
X88710405Y-44449997D01*
X90019602Y-44449997D01*
X90029437Y-44450968D01*
G37*
G36*
X90029437Y-45770968D02*
G01*
X90038891Y-45773835D01*
X90047603Y-45778494D01*
X90055241Y-45784760D01*
X90061509Y-45792398D01*
X90066168Y-45801112D01*
X90069035Y-45810566D01*
X90070003Y-45820399D01*
X90070003Y-46839599D01*
X90069035Y-46849431D01*
X90066168Y-46858885D01*
X90061509Y-46867600D01*
X90055241Y-46875238D01*
X90047603Y-46881504D01*
X90038891Y-46886162D01*
X90029437Y-46889030D01*
X90019602Y-46889998D01*
X88710405Y-46889998D01*
X88700570Y-46889030D01*
X88691116Y-46886162D01*
X88682404Y-46881504D01*
X88674766Y-46875238D01*
X88668497Y-46867600D01*
X88663839Y-46858885D01*
X88660971Y-46849431D01*
X88660003Y-46839599D01*
X88660003Y-45820399D01*
X88660971Y-45810566D01*
X88663839Y-45801112D01*
X88668497Y-45792398D01*
X88674766Y-45784760D01*
X88682404Y-45778494D01*
X88691116Y-45773835D01*
X88700570Y-45770968D01*
X88710405Y-45769997D01*
X90019602Y-45769997D01*
X90029437Y-45770968D01*
G37*
G36*
X90029437Y-47090970D02*
G01*
X90038891Y-47093838D01*
X90047603Y-47098496D01*
X90055241Y-47104762D01*
X90061509Y-47112400D01*
X90066168Y-47121115D01*
X90069035Y-47130569D01*
X90070003Y-47140401D01*
X90070003Y-48159601D01*
X90069035Y-48169434D01*
X90066168Y-48178888D01*
X90061509Y-48187602D01*
X90055241Y-48195240D01*
X90047603Y-48201506D01*
X90038891Y-48206165D01*
X90029437Y-48209032D01*
X90019602Y-48210003D01*
X88710405Y-48210003D01*
X88700570Y-48209032D01*
X88691116Y-48206165D01*
X88682404Y-48201506D01*
X88674766Y-48195240D01*
X88668497Y-48187602D01*
X88663839Y-48178888D01*
X88660971Y-48169434D01*
X88660003Y-48159601D01*
X88660003Y-47140401D01*
X88660971Y-47130569D01*
X88663839Y-47121115D01*
X88668497Y-47112400D01*
X88674766Y-47104762D01*
X88682404Y-47098496D01*
X88691116Y-47093838D01*
X88700570Y-47090970D01*
X88710405Y-47090002D01*
X90019602Y-47090002D01*
X90029437Y-47090970D01*
G37*
G36*
X90029437Y-48410970D02*
G01*
X90038891Y-48413838D01*
X90047603Y-48418496D01*
X90055241Y-48424762D01*
X90061509Y-48432400D01*
X90066168Y-48441115D01*
X90069035Y-48450569D01*
X90070003Y-48460401D01*
X90070003Y-49479601D01*
X90069035Y-49489434D01*
X90066168Y-49498888D01*
X90061509Y-49507602D01*
X90055241Y-49515240D01*
X90047603Y-49521506D01*
X90038891Y-49526165D01*
X90029437Y-49529032D01*
X90019602Y-49530003D01*
X88710405Y-49530003D01*
X88700570Y-49529032D01*
X88691116Y-49526165D01*
X88682404Y-49521506D01*
X88674766Y-49515240D01*
X88668497Y-49507602D01*
X88663839Y-49498888D01*
X88660971Y-49489434D01*
X88660003Y-49479601D01*
X88660003Y-48460401D01*
X88660971Y-48450569D01*
X88663839Y-48441115D01*
X88668497Y-48432400D01*
X88674766Y-48424762D01*
X88682404Y-48418496D01*
X88691116Y-48413838D01*
X88700570Y-48410970D01*
X88710405Y-48410002D01*
X90019602Y-48410002D01*
X90029437Y-48410970D01*
G37*
G36*
X91639436Y-44450968D02*
G01*
X91648890Y-44453835D01*
X91657602Y-44458494D01*
X91665240Y-44464760D01*
X91671509Y-44472398D01*
X91676167Y-44481112D01*
X91679035Y-44490566D01*
X91680003Y-44500399D01*
X91680003Y-45519599D01*
X91679035Y-45529431D01*
X91676167Y-45538885D01*
X91671509Y-45547600D01*
X91665240Y-45555238D01*
X91657602Y-45561504D01*
X91648890Y-45566162D01*
X91639436Y-45569030D01*
X91629601Y-45569998D01*
X90320404Y-45569998D01*
X90310569Y-45569030D01*
X90301115Y-45566162D01*
X90292403Y-45561504D01*
X90284765Y-45555238D01*
X90278497Y-45547600D01*
X90273838Y-45538885D01*
X90270971Y-45529431D01*
X90270003Y-45519599D01*
X90270003Y-44500399D01*
X90270971Y-44490566D01*
X90273838Y-44481112D01*
X90278497Y-44472398D01*
X90284765Y-44464760D01*
X90292403Y-44458494D01*
X90301115Y-44453835D01*
X90310569Y-44450968D01*
X90320404Y-44449997D01*
X91629601Y-44449997D01*
X91639436Y-44450968D01*
G37*
G36*
X91639436Y-45770968D02*
G01*
X91648890Y-45773835D01*
X91657602Y-45778494D01*
X91665240Y-45784760D01*
X91671509Y-45792398D01*
X91676167Y-45801112D01*
X91679035Y-45810566D01*
X91680003Y-45820399D01*
X91680003Y-46839599D01*
X91679035Y-46849431D01*
X91676167Y-46858885D01*
X91671509Y-46867600D01*
X91665240Y-46875238D01*
X91657602Y-46881504D01*
X91648890Y-46886162D01*
X91639436Y-46889030D01*
X91629601Y-46889998D01*
X90320404Y-46889998D01*
X90310569Y-46889030D01*
X90301115Y-46886162D01*
X90292403Y-46881504D01*
X90284765Y-46875238D01*
X90278497Y-46867600D01*
X90273838Y-46858885D01*
X90270971Y-46849431D01*
X90270003Y-46839599D01*
X90270003Y-45820399D01*
X90270971Y-45810566D01*
X90273838Y-45801112D01*
X90278497Y-45792398D01*
X90284765Y-45784760D01*
X90292403Y-45778494D01*
X90301115Y-45773835D01*
X90310569Y-45770968D01*
X90320404Y-45769997D01*
X91629601Y-45769997D01*
X91639436Y-45770968D01*
G37*
G36*
X91639436Y-47090970D02*
G01*
X91648890Y-47093838D01*
X91657602Y-47098496D01*
X91665240Y-47104762D01*
X91671509Y-47112400D01*
X91676167Y-47121115D01*
X91679035Y-47130569D01*
X91680003Y-47140401D01*
X91680003Y-48159601D01*
X91679035Y-48169434D01*
X91676167Y-48178888D01*
X91671509Y-48187602D01*
X91665240Y-48195240D01*
X91657602Y-48201506D01*
X91648890Y-48206165D01*
X91639436Y-48209032D01*
X91629601Y-48210003D01*
X90320404Y-48210003D01*
X90310569Y-48209032D01*
X90301115Y-48206165D01*
X90292403Y-48201506D01*
X90284765Y-48195240D01*
X90278497Y-48187602D01*
X90273838Y-48178888D01*
X90270971Y-48169434D01*
X90270003Y-48159601D01*
X90270003Y-47140401D01*
X90270971Y-47130569D01*
X90273838Y-47121115D01*
X90278497Y-47112400D01*
X90284765Y-47104762D01*
X90292403Y-47098496D01*
X90301115Y-47093838D01*
X90310569Y-47090970D01*
X90320404Y-47090002D01*
X91629601Y-47090002D01*
X91639436Y-47090970D01*
G37*
G36*
X91639436Y-48410970D02*
G01*
X91648890Y-48413838D01*
X91657602Y-48418496D01*
X91665240Y-48424762D01*
X91671509Y-48432400D01*
X91676167Y-48441115D01*
X91679035Y-48450569D01*
X91680003Y-48460401D01*
X91680003Y-49479601D01*
X91679035Y-49489434D01*
X91676167Y-49498888D01*
X91671509Y-49507602D01*
X91665240Y-49515240D01*
X91657602Y-49521506D01*
X91648890Y-49526165D01*
X91639436Y-49529032D01*
X91629601Y-49530003D01*
X90320404Y-49530003D01*
X90310569Y-49529032D01*
X90301115Y-49526165D01*
X90292403Y-49521506D01*
X90284765Y-49515240D01*
X90278497Y-49507602D01*
X90273838Y-49498888D01*
X90270971Y-49489434D01*
X90270003Y-49479601D01*
X90270003Y-48460401D01*
X90270971Y-48450569D01*
X90273838Y-48441115D01*
X90278497Y-48432400D01*
X90284765Y-48424762D01*
X90292403Y-48418496D01*
X90301115Y-48413838D01*
X90310569Y-48410970D01*
X90320404Y-48410002D01*
X91629601Y-48410002D01*
X91639436Y-48410970D01*
G37*
G36*
X88170004Y-44415001D02*
G01*
X88170004Y-47065001D01*
X88120005Y-47115001D01*
X87520003Y-47115001D01*
X87470003Y-47065001D01*
X87470003Y-46915001D01*
X87520003Y-46865002D01*
X87730005Y-46865002D01*
X87780005Y-46815002D01*
X87780005Y-46665002D01*
X87730005Y-46615002D01*
X87520003Y-46615002D01*
X87470003Y-46565002D01*
X87470003Y-46415000D01*
X87520003Y-46365000D01*
X87730005Y-46365000D01*
X87780005Y-46315000D01*
X87780005Y-46165000D01*
X87730005Y-46115000D01*
X87520003Y-46115000D01*
X87470003Y-46065001D01*
X87470003Y-45915001D01*
X87520003Y-45865001D01*
X87730005Y-45865001D01*
X87780005Y-45815001D01*
X87780005Y-45665001D01*
X87730005Y-45615001D01*
X87520003Y-45615001D01*
X87470003Y-45565002D01*
X87470003Y-45415002D01*
X87520003Y-45365002D01*
X87730005Y-45365002D01*
X87780005Y-45315002D01*
X87780005Y-45165000D01*
X87730005Y-45115000D01*
X87520003Y-45115000D01*
X87470003Y-45065000D01*
X87470003Y-44915000D01*
X87520003Y-44865000D01*
X87730005Y-44865000D01*
X87780005Y-44815001D01*
X87780005Y-44665001D01*
X87730005Y-44615001D01*
X87520003Y-44615001D01*
X87470003Y-44565001D01*
X87470003Y-44415001D01*
X87520003Y-44365001D01*
X88120005Y-44365001D01*
X88170004Y-44415001D01*
G37*
G36*
X92870003Y-44415001D02*
G01*
X92870003Y-44565001D01*
X92820003Y-44615001D01*
X92610001Y-44615001D01*
X92560001Y-44665001D01*
X92560001Y-44815001D01*
X92610001Y-44865000D01*
X92820003Y-44865000D01*
X92870003Y-44915000D01*
X92870003Y-45065000D01*
X92820003Y-45115000D01*
X92610001Y-45115000D01*
X92560001Y-45165000D01*
X92560001Y-45315002D01*
X92610001Y-45365002D01*
X92820003Y-45365002D01*
X92870003Y-45415002D01*
X92870003Y-45565002D01*
X92820003Y-45615001D01*
X92610001Y-45615001D01*
X92560001Y-45665001D01*
X92560001Y-45815001D01*
X92610001Y-45865001D01*
X92820003Y-45865001D01*
X92870003Y-45915001D01*
X92870003Y-46065001D01*
X92820003Y-46115000D01*
X92610001Y-46115000D01*
X92560001Y-46165000D01*
X92560001Y-46315000D01*
X92610001Y-46365000D01*
X92820003Y-46365000D01*
X92870003Y-46415000D01*
X92870003Y-46565002D01*
X92820003Y-46615002D01*
X92610001Y-46615002D01*
X92560001Y-46665002D01*
X92560001Y-46815002D01*
X92610001Y-46865002D01*
X92820003Y-46865002D01*
X92870003Y-46915001D01*
X92870003Y-47065001D01*
X92820003Y-47115001D01*
X92220001Y-47115001D01*
X92170002Y-47065001D01*
X92170002Y-44415001D01*
X92220001Y-44365001D01*
X92820003Y-44365001D01*
X92870003Y-44415001D01*
G37*
D12*
X131253000Y-38686000D02*
X131255000Y-38686000D01*
X131258000Y-38687000D01*
X131260000Y-38687000D01*
X131263000Y-38688000D01*
X131265000Y-38689000D01*
X131268000Y-38690000D01*
X131270000Y-38692000D01*
X131272000Y-38693000D01*
X131274000Y-38695000D01*
X131276000Y-38696000D01*
X131278000Y-38698000D01*
X131280000Y-38700000D01*
X131282000Y-38702000D01*
X131284000Y-38704000D01*
X131285000Y-38706000D01*
X131287000Y-38708000D01*
X131288000Y-38710000D01*
X131290000Y-38712000D01*
X131291000Y-38715000D01*
X131292000Y-38717000D01*
X131293000Y-38720000D01*
X131293000Y-38722000D01*
X131294000Y-38725000D01*
X131294000Y-38727000D01*
X131295000Y-38730000D01*
X131295000Y-38732000D01*
X131295000Y-38735000D01*
X131295000Y-39805000D01*
X131295000Y-39808000D01*
X131295000Y-39810000D01*
X131294000Y-39813000D01*
X131294000Y-39815000D01*
X131293000Y-39818000D01*
X131293000Y-39820000D01*
X131292000Y-39823000D01*
X131291000Y-39825000D01*
X131290000Y-39828000D01*
X131288000Y-39830000D01*
X131287000Y-39832000D01*
X131285000Y-39834000D01*
X131284000Y-39836000D01*
X131282000Y-39838000D01*
X131280000Y-39840000D01*
X131278000Y-39842000D01*
X131276000Y-39844000D01*
X131274000Y-39845000D01*
X131272000Y-39847000D01*
X131270000Y-39848000D01*
X131268000Y-39850000D01*
X131265000Y-39851000D01*
X131263000Y-39852000D01*
X131260000Y-39853000D01*
X131258000Y-39853000D01*
X131255000Y-39854000D01*
X131253000Y-39854000D01*
X131250000Y-39855000D01*
X131248000Y-39855000D01*
X131245000Y-39855000D01*
X130175000Y-39855000D01*
X130172000Y-39855000D01*
X130170000Y-39855000D01*
X130167000Y-39854000D01*
X130165000Y-39854000D01*
X130162000Y-39853000D01*
X130160000Y-39853000D01*
X130157000Y-39852000D01*
X130155000Y-39851000D01*
X130152000Y-39850000D01*
X130150000Y-39848000D01*
X130148000Y-39847000D01*
X130146000Y-39845000D01*
X130144000Y-39844000D01*
X130142000Y-39842000D01*
X130140000Y-39840000D01*
X130138000Y-39838000D01*
X130136000Y-39836000D01*
X130135000Y-39834000D01*
X130133000Y-39832000D01*
X130132000Y-39830000D01*
X130130000Y-39828000D01*
X130129000Y-39825000D01*
X130128000Y-39823000D01*
X130127000Y-39820000D01*
X130127000Y-39818000D01*
X130126000Y-39815000D01*
X130126000Y-39813000D01*
X130125000Y-39810000D01*
X130125000Y-39808000D01*
X130125000Y-39805000D01*
X130125000Y-38735000D01*
X130125000Y-38732000D01*
X130125000Y-38730000D01*
X130126000Y-38727000D01*
X130126000Y-38725000D01*
X130127000Y-38722000D01*
X130127000Y-38720000D01*
X130128000Y-38717000D01*
X130129000Y-38715000D01*
X130130000Y-38712000D01*
X130132000Y-38710000D01*
X130133000Y-38708000D01*
X130135000Y-38706000D01*
X130136000Y-38704000D01*
X130138000Y-38702000D01*
X130140000Y-38700000D01*
X130142000Y-38698000D01*
X130144000Y-38696000D01*
X130146000Y-38695000D01*
X130148000Y-38693000D01*
X130150000Y-38692000D01*
X130152000Y-38690000D01*
X130155000Y-38689000D01*
X130157000Y-38688000D01*
X130160000Y-38687000D01*
X130162000Y-38687000D01*
X130165000Y-38686000D01*
X130167000Y-38686000D01*
X130170000Y-38685000D01*
X130172000Y-38685000D01*
X130175000Y-38685000D01*
X131245000Y-38685000D01*
X131248000Y-38685000D01*
X131250000Y-38685000D01*
X131253000Y-38686000D01*
G36*
X131253000Y-38686000D02*
G01*
X131255000Y-38686000D01*
X131258000Y-38687000D01*
X131260000Y-38687000D01*
X131263000Y-38688000D01*
X131265000Y-38689000D01*
X131268000Y-38690000D01*
X131270000Y-38692000D01*
X131272000Y-38693000D01*
X131274000Y-38695000D01*
X131276000Y-38696000D01*
X131278000Y-38698000D01*
X131280000Y-38700000D01*
X131282000Y-38702000D01*
X131284000Y-38704000D01*
X131285000Y-38706000D01*
X131287000Y-38708000D01*
X131288000Y-38710000D01*
X131290000Y-38712000D01*
X131291000Y-38715000D01*
X131292000Y-38717000D01*
X131293000Y-38720000D01*
X131293000Y-38722000D01*
X131294000Y-38725000D01*
X131294000Y-38727000D01*
X131295000Y-38730000D01*
X131295000Y-38732000D01*
X131295000Y-38735000D01*
X131295000Y-39805000D01*
X131295000Y-39808000D01*
X131295000Y-39810000D01*
X131294000Y-39813000D01*
X131294000Y-39815000D01*
X131293000Y-39818000D01*
X131293000Y-39820000D01*
X131292000Y-39823000D01*
X131291000Y-39825000D01*
X131290000Y-39828000D01*
X131288000Y-39830000D01*
X131287000Y-39832000D01*
X131285000Y-39834000D01*
X131284000Y-39836000D01*
X131282000Y-39838000D01*
X131280000Y-39840000D01*
X131278000Y-39842000D01*
X131276000Y-39844000D01*
X131274000Y-39845000D01*
X131272000Y-39847000D01*
X131270000Y-39848000D01*
X131268000Y-39850000D01*
X131265000Y-39851000D01*
X131263000Y-39852000D01*
X131260000Y-39853000D01*
X131258000Y-39853000D01*
X131255000Y-39854000D01*
X131253000Y-39854000D01*
X131250000Y-39855000D01*
X131248000Y-39855000D01*
X131245000Y-39855000D01*
X130175000Y-39855000D01*
X130172000Y-39855000D01*
X130170000Y-39855000D01*
X130167000Y-39854000D01*
X130165000Y-39854000D01*
X130162000Y-39853000D01*
X130160000Y-39853000D01*
X130157000Y-39852000D01*
X130155000Y-39851000D01*
X130152000Y-39850000D01*
X130150000Y-39848000D01*
X130148000Y-39847000D01*
X130146000Y-39845000D01*
X130144000Y-39844000D01*
X130142000Y-39842000D01*
X130140000Y-39840000D01*
X130138000Y-39838000D01*
X130136000Y-39836000D01*
X130135000Y-39834000D01*
X130133000Y-39832000D01*
X130132000Y-39830000D01*
X130130000Y-39828000D01*
X130129000Y-39825000D01*
X130128000Y-39823000D01*
X130127000Y-39820000D01*
X130127000Y-39818000D01*
X130126000Y-39815000D01*
X130126000Y-39813000D01*
X130125000Y-39810000D01*
X130125000Y-39808000D01*
X130125000Y-39805000D01*
X130125000Y-38735000D01*
X130125000Y-38732000D01*
X130125000Y-38730000D01*
X130126000Y-38727000D01*
X130126000Y-38725000D01*
X130127000Y-38722000D01*
X130127000Y-38720000D01*
X130128000Y-38717000D01*
X130129000Y-38715000D01*
X130130000Y-38712000D01*
X130132000Y-38710000D01*
X130133000Y-38708000D01*
X130135000Y-38706000D01*
X130136000Y-38704000D01*
X130138000Y-38702000D01*
X130140000Y-38700000D01*
X130142000Y-38698000D01*
X130144000Y-38696000D01*
X130146000Y-38695000D01*
X130148000Y-38693000D01*
X130150000Y-38692000D01*
X130152000Y-38690000D01*
X130155000Y-38689000D01*
X130157000Y-38688000D01*
X130160000Y-38687000D01*
X130162000Y-38687000D01*
X130165000Y-38686000D01*
X130167000Y-38686000D01*
X130170000Y-38685000D01*
X130172000Y-38685000D01*
X130175000Y-38685000D01*
X131245000Y-38685000D01*
X131248000Y-38685000D01*
X131250000Y-38685000D01*
X131253000Y-38686000D01*
G37*
X131253000Y-40056000D02*
X131255000Y-40056000D01*
X131258000Y-40057000D01*
X131260000Y-40057000D01*
X131263000Y-40058000D01*
X131265000Y-40059000D01*
X131268000Y-40060000D01*
X131270000Y-40062000D01*
X131272000Y-40063000D01*
X131274000Y-40065000D01*
X131276000Y-40066000D01*
X131278000Y-40068000D01*
X131280000Y-40070000D01*
X131282000Y-40072000D01*
X131284000Y-40074000D01*
X131285000Y-40076000D01*
X131287000Y-40078000D01*
X131288000Y-40080000D01*
X131290000Y-40082000D01*
X131291000Y-40085000D01*
X131292000Y-40087000D01*
X131293000Y-40090000D01*
X131293000Y-40092000D01*
X131294000Y-40095000D01*
X131294000Y-40097000D01*
X131295000Y-40100000D01*
X131295000Y-40102000D01*
X131295000Y-40105000D01*
X131295000Y-41175000D01*
X131295000Y-41178000D01*
X131295000Y-41180000D01*
X131294000Y-41183000D01*
X131294000Y-41185000D01*
X131293000Y-41188000D01*
X131293000Y-41190000D01*
X131292000Y-41193000D01*
X131291000Y-41195000D01*
X131290000Y-41198000D01*
X131288000Y-41200000D01*
X131287000Y-41202000D01*
X131285000Y-41204000D01*
X131284000Y-41206000D01*
X131282000Y-41208000D01*
X131280000Y-41210000D01*
X131278000Y-41212000D01*
X131276000Y-41214000D01*
X131274000Y-41215000D01*
X131272000Y-41217000D01*
X131270000Y-41218000D01*
X131268000Y-41220000D01*
X131265000Y-41221000D01*
X131263000Y-41222000D01*
X131260000Y-41223000D01*
X131258000Y-41223000D01*
X131255000Y-41224000D01*
X131253000Y-41224000D01*
X131250000Y-41225000D01*
X131248000Y-41225000D01*
X131245000Y-41225000D01*
X130175000Y-41225000D01*
X130172000Y-41225000D01*
X130170000Y-41225000D01*
X130167000Y-41224000D01*
X130165000Y-41224000D01*
X130162000Y-41223000D01*
X130160000Y-41223000D01*
X130157000Y-41222000D01*
X130155000Y-41221000D01*
X130152000Y-41220000D01*
X130150000Y-41218000D01*
X130148000Y-41217000D01*
X130146000Y-41215000D01*
X130144000Y-41214000D01*
X130142000Y-41212000D01*
X130140000Y-41210000D01*
X130138000Y-41208000D01*
X130136000Y-41206000D01*
X130135000Y-41204000D01*
X130133000Y-41202000D01*
X130132000Y-41200000D01*
X130130000Y-41198000D01*
X130129000Y-41195000D01*
X130128000Y-41193000D01*
X130127000Y-41190000D01*
X130127000Y-41188000D01*
X130126000Y-41185000D01*
X130126000Y-41183000D01*
X130125000Y-41180000D01*
X130125000Y-41178000D01*
X130125000Y-41175000D01*
X130125000Y-40105000D01*
X130125000Y-40102000D01*
X130125000Y-40100000D01*
X130126000Y-40097000D01*
X130126000Y-40095000D01*
X130127000Y-40092000D01*
X130127000Y-40090000D01*
X130128000Y-40087000D01*
X130129000Y-40085000D01*
X130130000Y-40082000D01*
X130132000Y-40080000D01*
X130133000Y-40078000D01*
X130135000Y-40076000D01*
X130136000Y-40074000D01*
X130138000Y-40072000D01*
X130140000Y-40070000D01*
X130142000Y-40068000D01*
X130144000Y-40066000D01*
X130146000Y-40065000D01*
X130148000Y-40063000D01*
X130150000Y-40062000D01*
X130152000Y-40060000D01*
X130155000Y-40059000D01*
X130157000Y-40058000D01*
X130160000Y-40057000D01*
X130162000Y-40057000D01*
X130165000Y-40056000D01*
X130167000Y-40056000D01*
X130170000Y-40055000D01*
X130172000Y-40055000D01*
X130175000Y-40055000D01*
X131245000Y-40055000D01*
X131248000Y-40055000D01*
X131250000Y-40055000D01*
X131253000Y-40056000D01*
G36*
X131253000Y-40056000D02*
G01*
X131255000Y-40056000D01*
X131258000Y-40057000D01*
X131260000Y-40057000D01*
X131263000Y-40058000D01*
X131265000Y-40059000D01*
X131268000Y-40060000D01*
X131270000Y-40062000D01*
X131272000Y-40063000D01*
X131274000Y-40065000D01*
X131276000Y-40066000D01*
X131278000Y-40068000D01*
X131280000Y-40070000D01*
X131282000Y-40072000D01*
X131284000Y-40074000D01*
X131285000Y-40076000D01*
X131287000Y-40078000D01*
X131288000Y-40080000D01*
X131290000Y-40082000D01*
X131291000Y-40085000D01*
X131292000Y-40087000D01*
X131293000Y-40090000D01*
X131293000Y-40092000D01*
X131294000Y-40095000D01*
X131294000Y-40097000D01*
X131295000Y-40100000D01*
X131295000Y-40102000D01*
X131295000Y-40105000D01*
X131295000Y-41175000D01*
X131295000Y-41178000D01*
X131295000Y-41180000D01*
X131294000Y-41183000D01*
X131294000Y-41185000D01*
X131293000Y-41188000D01*
X131293000Y-41190000D01*
X131292000Y-41193000D01*
X131291000Y-41195000D01*
X131290000Y-41198000D01*
X131288000Y-41200000D01*
X131287000Y-41202000D01*
X131285000Y-41204000D01*
X131284000Y-41206000D01*
X131282000Y-41208000D01*
X131280000Y-41210000D01*
X131278000Y-41212000D01*
X131276000Y-41214000D01*
X131274000Y-41215000D01*
X131272000Y-41217000D01*
X131270000Y-41218000D01*
X131268000Y-41220000D01*
X131265000Y-41221000D01*
X131263000Y-41222000D01*
X131260000Y-41223000D01*
X131258000Y-41223000D01*
X131255000Y-41224000D01*
X131253000Y-41224000D01*
X131250000Y-41225000D01*
X131248000Y-41225000D01*
X131245000Y-41225000D01*
X130175000Y-41225000D01*
X130172000Y-41225000D01*
X130170000Y-41225000D01*
X130167000Y-41224000D01*
X130165000Y-41224000D01*
X130162000Y-41223000D01*
X130160000Y-41223000D01*
X130157000Y-41222000D01*
X130155000Y-41221000D01*
X130152000Y-41220000D01*
X130150000Y-41218000D01*
X130148000Y-41217000D01*
X130146000Y-41215000D01*
X130144000Y-41214000D01*
X130142000Y-41212000D01*
X130140000Y-41210000D01*
X130138000Y-41208000D01*
X130136000Y-41206000D01*
X130135000Y-41204000D01*
X130133000Y-41202000D01*
X130132000Y-41200000D01*
X130130000Y-41198000D01*
X130129000Y-41195000D01*
X130128000Y-41193000D01*
X130127000Y-41190000D01*
X130127000Y-41188000D01*
X130126000Y-41185000D01*
X130126000Y-41183000D01*
X130125000Y-41180000D01*
X130125000Y-41178000D01*
X130125000Y-41175000D01*
X130125000Y-40105000D01*
X130125000Y-40102000D01*
X130125000Y-40100000D01*
X130126000Y-40097000D01*
X130126000Y-40095000D01*
X130127000Y-40092000D01*
X130127000Y-40090000D01*
X130128000Y-40087000D01*
X130129000Y-40085000D01*
X130130000Y-40082000D01*
X130132000Y-40080000D01*
X130133000Y-40078000D01*
X130135000Y-40076000D01*
X130136000Y-40074000D01*
X130138000Y-40072000D01*
X130140000Y-40070000D01*
X130142000Y-40068000D01*
X130144000Y-40066000D01*
X130146000Y-40065000D01*
X130148000Y-40063000D01*
X130150000Y-40062000D01*
X130152000Y-40060000D01*
X130155000Y-40059000D01*
X130157000Y-40058000D01*
X130160000Y-40057000D01*
X130162000Y-40057000D01*
X130165000Y-40056000D01*
X130167000Y-40056000D01*
X130170000Y-40055000D01*
X130172000Y-40055000D01*
X130175000Y-40055000D01*
X131245000Y-40055000D01*
X131248000Y-40055000D01*
X131250000Y-40055000D01*
X131253000Y-40056000D01*
G37*
X131253000Y-41426000D02*
X131255000Y-41426000D01*
X131258000Y-41427000D01*
X131260000Y-41427000D01*
X131263000Y-41428000D01*
X131265000Y-41429000D01*
X131268000Y-41430000D01*
X131270000Y-41432000D01*
X131272000Y-41433000D01*
X131274000Y-41435000D01*
X131276000Y-41436000D01*
X131278000Y-41438000D01*
X131280000Y-41440000D01*
X131282000Y-41442000D01*
X131284000Y-41444000D01*
X131285000Y-41446000D01*
X131287000Y-41448000D01*
X131288000Y-41450000D01*
X131290000Y-41452000D01*
X131291000Y-41455000D01*
X131292000Y-41457000D01*
X131293000Y-41460000D01*
X131293000Y-41462000D01*
X131294000Y-41465000D01*
X131294000Y-41467000D01*
X131295000Y-41470000D01*
X131295000Y-41472000D01*
X131295000Y-41475000D01*
X131295000Y-42545000D01*
X131295000Y-42548000D01*
X131295000Y-42550000D01*
X131294000Y-42553000D01*
X131294000Y-42555000D01*
X131293000Y-42558000D01*
X131293000Y-42560000D01*
X131292000Y-42563000D01*
X131291000Y-42565000D01*
X131290000Y-42568000D01*
X131288000Y-42570000D01*
X131287000Y-42572000D01*
X131285000Y-42574000D01*
X131284000Y-42576000D01*
X131282000Y-42578000D01*
X131280000Y-42580000D01*
X131278000Y-42582000D01*
X131276000Y-42584000D01*
X131274000Y-42585000D01*
X131272000Y-42587000D01*
X131270000Y-42588000D01*
X131268000Y-42590000D01*
X131265000Y-42591000D01*
X131263000Y-42592000D01*
X131260000Y-42593000D01*
X131258000Y-42593000D01*
X131255000Y-42594000D01*
X131253000Y-42594000D01*
X131250000Y-42595000D01*
X131248000Y-42595000D01*
X131245000Y-42595000D01*
X130175000Y-42595000D01*
X130172000Y-42595000D01*
X130170000Y-42595000D01*
X130167000Y-42594000D01*
X130165000Y-42594000D01*
X130162000Y-42593000D01*
X130160000Y-42593000D01*
X130157000Y-42592000D01*
X130155000Y-42591000D01*
X130152000Y-42590000D01*
X130150000Y-42588000D01*
X130148000Y-42587000D01*
X130146000Y-42585000D01*
X130144000Y-42584000D01*
X130142000Y-42582000D01*
X130140000Y-42580000D01*
X130138000Y-42578000D01*
X130136000Y-42576000D01*
X130135000Y-42574000D01*
X130133000Y-42572000D01*
X130132000Y-42570000D01*
X130130000Y-42568000D01*
X130129000Y-42565000D01*
X130128000Y-42563000D01*
X130127000Y-42560000D01*
X130127000Y-42558000D01*
X130126000Y-42555000D01*
X130126000Y-42553000D01*
X130125000Y-42550000D01*
X130125000Y-42548000D01*
X130125000Y-42545000D01*
X130125000Y-41475000D01*
X130125000Y-41472000D01*
X130125000Y-41470000D01*
X130126000Y-41467000D01*
X130126000Y-41465000D01*
X130127000Y-41462000D01*
X130127000Y-41460000D01*
X130128000Y-41457000D01*
X130129000Y-41455000D01*
X130130000Y-41452000D01*
X130132000Y-41450000D01*
X130133000Y-41448000D01*
X130135000Y-41446000D01*
X130136000Y-41444000D01*
X130138000Y-41442000D01*
X130140000Y-41440000D01*
X130142000Y-41438000D01*
X130144000Y-41436000D01*
X130146000Y-41435000D01*
X130148000Y-41433000D01*
X130150000Y-41432000D01*
X130152000Y-41430000D01*
X130155000Y-41429000D01*
X130157000Y-41428000D01*
X130160000Y-41427000D01*
X130162000Y-41427000D01*
X130165000Y-41426000D01*
X130167000Y-41426000D01*
X130170000Y-41425000D01*
X130172000Y-41425000D01*
X130175000Y-41425000D01*
X131245000Y-41425000D01*
X131248000Y-41425000D01*
X131250000Y-41425000D01*
X131253000Y-41426000D01*
G36*
X131253000Y-41426000D02*
G01*
X131255000Y-41426000D01*
X131258000Y-41427000D01*
X131260000Y-41427000D01*
X131263000Y-41428000D01*
X131265000Y-41429000D01*
X131268000Y-41430000D01*
X131270000Y-41432000D01*
X131272000Y-41433000D01*
X131274000Y-41435000D01*
X131276000Y-41436000D01*
X131278000Y-41438000D01*
X131280000Y-41440000D01*
X131282000Y-41442000D01*
X131284000Y-41444000D01*
X131285000Y-41446000D01*
X131287000Y-41448000D01*
X131288000Y-41450000D01*
X131290000Y-41452000D01*
X131291000Y-41455000D01*
X131292000Y-41457000D01*
X131293000Y-41460000D01*
X131293000Y-41462000D01*
X131294000Y-41465000D01*
X131294000Y-41467000D01*
X131295000Y-41470000D01*
X131295000Y-41472000D01*
X131295000Y-41475000D01*
X131295000Y-42545000D01*
X131295000Y-42548000D01*
X131295000Y-42550000D01*
X131294000Y-42553000D01*
X131294000Y-42555000D01*
X131293000Y-42558000D01*
X131293000Y-42560000D01*
X131292000Y-42563000D01*
X131291000Y-42565000D01*
X131290000Y-42568000D01*
X131288000Y-42570000D01*
X131287000Y-42572000D01*
X131285000Y-42574000D01*
X131284000Y-42576000D01*
X131282000Y-42578000D01*
X131280000Y-42580000D01*
X131278000Y-42582000D01*
X131276000Y-42584000D01*
X131274000Y-42585000D01*
X131272000Y-42587000D01*
X131270000Y-42588000D01*
X131268000Y-42590000D01*
X131265000Y-42591000D01*
X131263000Y-42592000D01*
X131260000Y-42593000D01*
X131258000Y-42593000D01*
X131255000Y-42594000D01*
X131253000Y-42594000D01*
X131250000Y-42595000D01*
X131248000Y-42595000D01*
X131245000Y-42595000D01*
X130175000Y-42595000D01*
X130172000Y-42595000D01*
X130170000Y-42595000D01*
X130167000Y-42594000D01*
X130165000Y-42594000D01*
X130162000Y-42593000D01*
X130160000Y-42593000D01*
X130157000Y-42592000D01*
X130155000Y-42591000D01*
X130152000Y-42590000D01*
X130150000Y-42588000D01*
X130148000Y-42587000D01*
X130146000Y-42585000D01*
X130144000Y-42584000D01*
X130142000Y-42582000D01*
X130140000Y-42580000D01*
X130138000Y-42578000D01*
X130136000Y-42576000D01*
X130135000Y-42574000D01*
X130133000Y-42572000D01*
X130132000Y-42570000D01*
X130130000Y-42568000D01*
X130129000Y-42565000D01*
X130128000Y-42563000D01*
X130127000Y-42560000D01*
X130127000Y-42558000D01*
X130126000Y-42555000D01*
X130126000Y-42553000D01*
X130125000Y-42550000D01*
X130125000Y-42548000D01*
X130125000Y-42545000D01*
X130125000Y-41475000D01*
X130125000Y-41472000D01*
X130125000Y-41470000D01*
X130126000Y-41467000D01*
X130126000Y-41465000D01*
X130127000Y-41462000D01*
X130127000Y-41460000D01*
X130128000Y-41457000D01*
X130129000Y-41455000D01*
X130130000Y-41452000D01*
X130132000Y-41450000D01*
X130133000Y-41448000D01*
X130135000Y-41446000D01*
X130136000Y-41444000D01*
X130138000Y-41442000D01*
X130140000Y-41440000D01*
X130142000Y-41438000D01*
X130144000Y-41436000D01*
X130146000Y-41435000D01*
X130148000Y-41433000D01*
X130150000Y-41432000D01*
X130152000Y-41430000D01*
X130155000Y-41429000D01*
X130157000Y-41428000D01*
X130160000Y-41427000D01*
X130162000Y-41427000D01*
X130165000Y-41426000D01*
X130167000Y-41426000D01*
X130170000Y-41425000D01*
X130172000Y-41425000D01*
X130175000Y-41425000D01*
X131245000Y-41425000D01*
X131248000Y-41425000D01*
X131250000Y-41425000D01*
X131253000Y-41426000D01*
G37*
X132623000Y-38686000D02*
X132625000Y-38686000D01*
X132628000Y-38687000D01*
X132630000Y-38687000D01*
X132633000Y-38688000D01*
X132635000Y-38689000D01*
X132638000Y-38690000D01*
X132640000Y-38692000D01*
X132642000Y-38693000D01*
X132644000Y-38695000D01*
X132646000Y-38696000D01*
X132648000Y-38698000D01*
X132650000Y-38700000D01*
X132652000Y-38702000D01*
X132654000Y-38704000D01*
X132655000Y-38706000D01*
X132657000Y-38708000D01*
X132658000Y-38710000D01*
X132660000Y-38712000D01*
X132661000Y-38715000D01*
X132662000Y-38717000D01*
X132663000Y-38720000D01*
X132663000Y-38722000D01*
X132664000Y-38725000D01*
X132664000Y-38727000D01*
X132665000Y-38730000D01*
X132665000Y-38732000D01*
X132665000Y-38735000D01*
X132665000Y-39805000D01*
X132665000Y-39808000D01*
X132665000Y-39810000D01*
X132664000Y-39813000D01*
X132664000Y-39815000D01*
X132663000Y-39818000D01*
X132663000Y-39820000D01*
X132662000Y-39823000D01*
X132661000Y-39825000D01*
X132660000Y-39828000D01*
X132658000Y-39830000D01*
X132657000Y-39832000D01*
X132655000Y-39834000D01*
X132654000Y-39836000D01*
X132652000Y-39838000D01*
X132650000Y-39840000D01*
X132648000Y-39842000D01*
X132646000Y-39844000D01*
X132644000Y-39845000D01*
X132642000Y-39847000D01*
X132640000Y-39848000D01*
X132638000Y-39850000D01*
X132635000Y-39851000D01*
X132633000Y-39852000D01*
X132630000Y-39853000D01*
X132628000Y-39853000D01*
X132625000Y-39854000D01*
X132623000Y-39854000D01*
X132620000Y-39855000D01*
X132618000Y-39855000D01*
X132615000Y-39855000D01*
X131545000Y-39855000D01*
X131542000Y-39855000D01*
X131540000Y-39855000D01*
X131537000Y-39854000D01*
X131535000Y-39854000D01*
X131532000Y-39853000D01*
X131530000Y-39853000D01*
X131527000Y-39852000D01*
X131525000Y-39851000D01*
X131522000Y-39850000D01*
X131520000Y-39848000D01*
X131518000Y-39847000D01*
X131516000Y-39845000D01*
X131514000Y-39844000D01*
X131512000Y-39842000D01*
X131510000Y-39840000D01*
X131508000Y-39838000D01*
X131506000Y-39836000D01*
X131505000Y-39834000D01*
X131503000Y-39832000D01*
X131502000Y-39830000D01*
X131500000Y-39828000D01*
X131499000Y-39825000D01*
X131498000Y-39823000D01*
X131497000Y-39820000D01*
X131497000Y-39818000D01*
X131496000Y-39815000D01*
X131496000Y-39813000D01*
X131495000Y-39810000D01*
X131495000Y-39808000D01*
X131495000Y-39805000D01*
X131495000Y-38735000D01*
X131495000Y-38732000D01*
X131495000Y-38730000D01*
X131496000Y-38727000D01*
X131496000Y-38725000D01*
X131497000Y-38722000D01*
X131497000Y-38720000D01*
X131498000Y-38717000D01*
X131499000Y-38715000D01*
X131500000Y-38712000D01*
X131502000Y-38710000D01*
X131503000Y-38708000D01*
X131505000Y-38706000D01*
X131506000Y-38704000D01*
X131508000Y-38702000D01*
X131510000Y-38700000D01*
X131512000Y-38698000D01*
X131514000Y-38696000D01*
X131516000Y-38695000D01*
X131518000Y-38693000D01*
X131520000Y-38692000D01*
X131522000Y-38690000D01*
X131525000Y-38689000D01*
X131527000Y-38688000D01*
X131530000Y-38687000D01*
X131532000Y-38687000D01*
X131535000Y-38686000D01*
X131537000Y-38686000D01*
X131540000Y-38685000D01*
X131542000Y-38685000D01*
X131545000Y-38685000D01*
X132615000Y-38685000D01*
X132618000Y-38685000D01*
X132620000Y-38685000D01*
X132623000Y-38686000D01*
G36*
X132623000Y-38686000D02*
G01*
X132625000Y-38686000D01*
X132628000Y-38687000D01*
X132630000Y-38687000D01*
X132633000Y-38688000D01*
X132635000Y-38689000D01*
X132638000Y-38690000D01*
X132640000Y-38692000D01*
X132642000Y-38693000D01*
X132644000Y-38695000D01*
X132646000Y-38696000D01*
X132648000Y-38698000D01*
X132650000Y-38700000D01*
X132652000Y-38702000D01*
X132654000Y-38704000D01*
X132655000Y-38706000D01*
X132657000Y-38708000D01*
X132658000Y-38710000D01*
X132660000Y-38712000D01*
X132661000Y-38715000D01*
X132662000Y-38717000D01*
X132663000Y-38720000D01*
X132663000Y-38722000D01*
X132664000Y-38725000D01*
X132664000Y-38727000D01*
X132665000Y-38730000D01*
X132665000Y-38732000D01*
X132665000Y-38735000D01*
X132665000Y-39805000D01*
X132665000Y-39808000D01*
X132665000Y-39810000D01*
X132664000Y-39813000D01*
X132664000Y-39815000D01*
X132663000Y-39818000D01*
X132663000Y-39820000D01*
X132662000Y-39823000D01*
X132661000Y-39825000D01*
X132660000Y-39828000D01*
X132658000Y-39830000D01*
X132657000Y-39832000D01*
X132655000Y-39834000D01*
X132654000Y-39836000D01*
X132652000Y-39838000D01*
X132650000Y-39840000D01*
X132648000Y-39842000D01*
X132646000Y-39844000D01*
X132644000Y-39845000D01*
X132642000Y-39847000D01*
X132640000Y-39848000D01*
X132638000Y-39850000D01*
X132635000Y-39851000D01*
X132633000Y-39852000D01*
X132630000Y-39853000D01*
X132628000Y-39853000D01*
X132625000Y-39854000D01*
X132623000Y-39854000D01*
X132620000Y-39855000D01*
X132618000Y-39855000D01*
X132615000Y-39855000D01*
X131545000Y-39855000D01*
X131542000Y-39855000D01*
X131540000Y-39855000D01*
X131537000Y-39854000D01*
X131535000Y-39854000D01*
X131532000Y-39853000D01*
X131530000Y-39853000D01*
X131527000Y-39852000D01*
X131525000Y-39851000D01*
X131522000Y-39850000D01*
X131520000Y-39848000D01*
X131518000Y-39847000D01*
X131516000Y-39845000D01*
X131514000Y-39844000D01*
X131512000Y-39842000D01*
X131510000Y-39840000D01*
X131508000Y-39838000D01*
X131506000Y-39836000D01*
X131505000Y-39834000D01*
X131503000Y-39832000D01*
X131502000Y-39830000D01*
X131500000Y-39828000D01*
X131499000Y-39825000D01*
X131498000Y-39823000D01*
X131497000Y-39820000D01*
X131497000Y-39818000D01*
X131496000Y-39815000D01*
X131496000Y-39813000D01*
X131495000Y-39810000D01*
X131495000Y-39808000D01*
X131495000Y-39805000D01*
X131495000Y-38735000D01*
X131495000Y-38732000D01*
X131495000Y-38730000D01*
X131496000Y-38727000D01*
X131496000Y-38725000D01*
X131497000Y-38722000D01*
X131497000Y-38720000D01*
X131498000Y-38717000D01*
X131499000Y-38715000D01*
X131500000Y-38712000D01*
X131502000Y-38710000D01*
X131503000Y-38708000D01*
X131505000Y-38706000D01*
X131506000Y-38704000D01*
X131508000Y-38702000D01*
X131510000Y-38700000D01*
X131512000Y-38698000D01*
X131514000Y-38696000D01*
X131516000Y-38695000D01*
X131518000Y-38693000D01*
X131520000Y-38692000D01*
X131522000Y-38690000D01*
X131525000Y-38689000D01*
X131527000Y-38688000D01*
X131530000Y-38687000D01*
X131532000Y-38687000D01*
X131535000Y-38686000D01*
X131537000Y-38686000D01*
X131540000Y-38685000D01*
X131542000Y-38685000D01*
X131545000Y-38685000D01*
X132615000Y-38685000D01*
X132618000Y-38685000D01*
X132620000Y-38685000D01*
X132623000Y-38686000D01*
G37*
X132623000Y-40056000D02*
X132625000Y-40056000D01*
X132628000Y-40057000D01*
X132630000Y-40057000D01*
X132633000Y-40058000D01*
X132635000Y-40059000D01*
X132638000Y-40060000D01*
X132640000Y-40062000D01*
X132642000Y-40063000D01*
X132644000Y-40065000D01*
X132646000Y-40066000D01*
X132648000Y-40068000D01*
X132650000Y-40070000D01*
X132652000Y-40072000D01*
X132654000Y-40074000D01*
X132655000Y-40076000D01*
X132657000Y-40078000D01*
X132658000Y-40080000D01*
X132660000Y-40082000D01*
X132661000Y-40085000D01*
X132662000Y-40087000D01*
X132663000Y-40090000D01*
X132663000Y-40092000D01*
X132664000Y-40095000D01*
X132664000Y-40097000D01*
X132665000Y-40100000D01*
X132665000Y-40102000D01*
X132665000Y-40105000D01*
X132665000Y-41175000D01*
X132665000Y-41178000D01*
X132665000Y-41180000D01*
X132664000Y-41183000D01*
X132664000Y-41185000D01*
X132663000Y-41188000D01*
X132663000Y-41190000D01*
X132662000Y-41193000D01*
X132661000Y-41195000D01*
X132660000Y-41198000D01*
X132658000Y-41200000D01*
X132657000Y-41202000D01*
X132655000Y-41204000D01*
X132654000Y-41206000D01*
X132652000Y-41208000D01*
X132650000Y-41210000D01*
X132648000Y-41212000D01*
X132646000Y-41214000D01*
X132644000Y-41215000D01*
X132642000Y-41217000D01*
X132640000Y-41218000D01*
X132638000Y-41220000D01*
X132635000Y-41221000D01*
X132633000Y-41222000D01*
X132630000Y-41223000D01*
X132628000Y-41223000D01*
X132625000Y-41224000D01*
X132623000Y-41224000D01*
X132620000Y-41225000D01*
X132618000Y-41225000D01*
X132615000Y-41225000D01*
X131545000Y-41225000D01*
X131542000Y-41225000D01*
X131540000Y-41225000D01*
X131537000Y-41224000D01*
X131535000Y-41224000D01*
X131532000Y-41223000D01*
X131530000Y-41223000D01*
X131527000Y-41222000D01*
X131525000Y-41221000D01*
X131522000Y-41220000D01*
X131520000Y-41218000D01*
X131518000Y-41217000D01*
X131516000Y-41215000D01*
X131514000Y-41214000D01*
X131512000Y-41212000D01*
X131510000Y-41210000D01*
X131508000Y-41208000D01*
X131506000Y-41206000D01*
X131505000Y-41204000D01*
X131503000Y-41202000D01*
X131502000Y-41200000D01*
X131500000Y-41198000D01*
X131499000Y-41195000D01*
X131498000Y-41193000D01*
X131497000Y-41190000D01*
X131497000Y-41188000D01*
X131496000Y-41185000D01*
X131496000Y-41183000D01*
X131495000Y-41180000D01*
X131495000Y-41178000D01*
X131495000Y-41175000D01*
X131495000Y-40105000D01*
X131495000Y-40102000D01*
X131495000Y-40100000D01*
X131496000Y-40097000D01*
X131496000Y-40095000D01*
X131497000Y-40092000D01*
X131497000Y-40090000D01*
X131498000Y-40087000D01*
X131499000Y-40085000D01*
X131500000Y-40082000D01*
X131502000Y-40080000D01*
X131503000Y-40078000D01*
X131505000Y-40076000D01*
X131506000Y-40074000D01*
X131508000Y-40072000D01*
X131510000Y-40070000D01*
X131512000Y-40068000D01*
X131514000Y-40066000D01*
X131516000Y-40065000D01*
X131518000Y-40063000D01*
X131520000Y-40062000D01*
X131522000Y-40060000D01*
X131525000Y-40059000D01*
X131527000Y-40058000D01*
X131530000Y-40057000D01*
X131532000Y-40057000D01*
X131535000Y-40056000D01*
X131537000Y-40056000D01*
X131540000Y-40055000D01*
X131542000Y-40055000D01*
X131545000Y-40055000D01*
X132615000Y-40055000D01*
X132618000Y-40055000D01*
X132620000Y-40055000D01*
X132623000Y-40056000D01*
G36*
X132623000Y-40056000D02*
G01*
X132625000Y-40056000D01*
X132628000Y-40057000D01*
X132630000Y-40057000D01*
X132633000Y-40058000D01*
X132635000Y-40059000D01*
X132638000Y-40060000D01*
X132640000Y-40062000D01*
X132642000Y-40063000D01*
X132644000Y-40065000D01*
X132646000Y-40066000D01*
X132648000Y-40068000D01*
X132650000Y-40070000D01*
X132652000Y-40072000D01*
X132654000Y-40074000D01*
X132655000Y-40076000D01*
X132657000Y-40078000D01*
X132658000Y-40080000D01*
X132660000Y-40082000D01*
X132661000Y-40085000D01*
X132662000Y-40087000D01*
X132663000Y-40090000D01*
X132663000Y-40092000D01*
X132664000Y-40095000D01*
X132664000Y-40097000D01*
X132665000Y-40100000D01*
X132665000Y-40102000D01*
X132665000Y-40105000D01*
X132665000Y-41175000D01*
X132665000Y-41178000D01*
X132665000Y-41180000D01*
X132664000Y-41183000D01*
X132664000Y-41185000D01*
X132663000Y-41188000D01*
X132663000Y-41190000D01*
X132662000Y-41193000D01*
X132661000Y-41195000D01*
X132660000Y-41198000D01*
X132658000Y-41200000D01*
X132657000Y-41202000D01*
X132655000Y-41204000D01*
X132654000Y-41206000D01*
X132652000Y-41208000D01*
X132650000Y-41210000D01*
X132648000Y-41212000D01*
X132646000Y-41214000D01*
X132644000Y-41215000D01*
X132642000Y-41217000D01*
X132640000Y-41218000D01*
X132638000Y-41220000D01*
X132635000Y-41221000D01*
X132633000Y-41222000D01*
X132630000Y-41223000D01*
X132628000Y-41223000D01*
X132625000Y-41224000D01*
X132623000Y-41224000D01*
X132620000Y-41225000D01*
X132618000Y-41225000D01*
X132615000Y-41225000D01*
X131545000Y-41225000D01*
X131542000Y-41225000D01*
X131540000Y-41225000D01*
X131537000Y-41224000D01*
X131535000Y-41224000D01*
X131532000Y-41223000D01*
X131530000Y-41223000D01*
X131527000Y-41222000D01*
X131525000Y-41221000D01*
X131522000Y-41220000D01*
X131520000Y-41218000D01*
X131518000Y-41217000D01*
X131516000Y-41215000D01*
X131514000Y-41214000D01*
X131512000Y-41212000D01*
X131510000Y-41210000D01*
X131508000Y-41208000D01*
X131506000Y-41206000D01*
X131505000Y-41204000D01*
X131503000Y-41202000D01*
X131502000Y-41200000D01*
X131500000Y-41198000D01*
X131499000Y-41195000D01*
X131498000Y-41193000D01*
X131497000Y-41190000D01*
X131497000Y-41188000D01*
X131496000Y-41185000D01*
X131496000Y-41183000D01*
X131495000Y-41180000D01*
X131495000Y-41178000D01*
X131495000Y-41175000D01*
X131495000Y-40105000D01*
X131495000Y-40102000D01*
X131495000Y-40100000D01*
X131496000Y-40097000D01*
X131496000Y-40095000D01*
X131497000Y-40092000D01*
X131497000Y-40090000D01*
X131498000Y-40087000D01*
X131499000Y-40085000D01*
X131500000Y-40082000D01*
X131502000Y-40080000D01*
X131503000Y-40078000D01*
X131505000Y-40076000D01*
X131506000Y-40074000D01*
X131508000Y-40072000D01*
X131510000Y-40070000D01*
X131512000Y-40068000D01*
X131514000Y-40066000D01*
X131516000Y-40065000D01*
X131518000Y-40063000D01*
X131520000Y-40062000D01*
X131522000Y-40060000D01*
X131525000Y-40059000D01*
X131527000Y-40058000D01*
X131530000Y-40057000D01*
X131532000Y-40057000D01*
X131535000Y-40056000D01*
X131537000Y-40056000D01*
X131540000Y-40055000D01*
X131542000Y-40055000D01*
X131545000Y-40055000D01*
X132615000Y-40055000D01*
X132618000Y-40055000D01*
X132620000Y-40055000D01*
X132623000Y-40056000D01*
G37*
X132623000Y-41426000D02*
X132625000Y-41426000D01*
X132628000Y-41427000D01*
X132630000Y-41427000D01*
X132633000Y-41428000D01*
X132635000Y-41429000D01*
X132638000Y-41430000D01*
X132640000Y-41432000D01*
X132642000Y-41433000D01*
X132644000Y-41435000D01*
X132646000Y-41436000D01*
X132648000Y-41438000D01*
X132650000Y-41440000D01*
X132652000Y-41442000D01*
X132654000Y-41444000D01*
X132655000Y-41446000D01*
X132657000Y-41448000D01*
X132658000Y-41450000D01*
X132660000Y-41452000D01*
X132661000Y-41455000D01*
X132662000Y-41457000D01*
X132663000Y-41460000D01*
X132663000Y-41462000D01*
X132664000Y-41465000D01*
X132664000Y-41467000D01*
X132665000Y-41470000D01*
X132665000Y-41472000D01*
X132665000Y-41475000D01*
X132665000Y-42545000D01*
X132665000Y-42548000D01*
X132665000Y-42550000D01*
X132664000Y-42553000D01*
X132664000Y-42555000D01*
X132663000Y-42558000D01*
X132663000Y-42560000D01*
X132662000Y-42563000D01*
X132661000Y-42565000D01*
X132660000Y-42568000D01*
X132658000Y-42570000D01*
X132657000Y-42572000D01*
X132655000Y-42574000D01*
X132654000Y-42576000D01*
X132652000Y-42578000D01*
X132650000Y-42580000D01*
X132648000Y-42582000D01*
X132646000Y-42584000D01*
X132644000Y-42585000D01*
X132642000Y-42587000D01*
X132640000Y-42588000D01*
X132638000Y-42590000D01*
X132635000Y-42591000D01*
X132633000Y-42592000D01*
X132630000Y-42593000D01*
X132628000Y-42593000D01*
X132625000Y-42594000D01*
X132623000Y-42594000D01*
X132620000Y-42595000D01*
X132618000Y-42595000D01*
X132615000Y-42595000D01*
X131545000Y-42595000D01*
X131542000Y-42595000D01*
X131540000Y-42595000D01*
X131537000Y-42594000D01*
X131535000Y-42594000D01*
X131532000Y-42593000D01*
X131530000Y-42593000D01*
X131527000Y-42592000D01*
X131525000Y-42591000D01*
X131522000Y-42590000D01*
X131520000Y-42588000D01*
X131518000Y-42587000D01*
X131516000Y-42585000D01*
X131514000Y-42584000D01*
X131512000Y-42582000D01*
X131510000Y-42580000D01*
X131508000Y-42578000D01*
X131506000Y-42576000D01*
X131505000Y-42574000D01*
X131503000Y-42572000D01*
X131502000Y-42570000D01*
X131500000Y-42568000D01*
X131499000Y-42565000D01*
X131498000Y-42563000D01*
X131497000Y-42560000D01*
X131497000Y-42558000D01*
X131496000Y-42555000D01*
X131496000Y-42553000D01*
X131495000Y-42550000D01*
X131495000Y-42548000D01*
X131495000Y-42545000D01*
X131495000Y-41475000D01*
X131495000Y-41472000D01*
X131495000Y-41470000D01*
X131496000Y-41467000D01*
X131496000Y-41465000D01*
X131497000Y-41462000D01*
X131497000Y-41460000D01*
X131498000Y-41457000D01*
X131499000Y-41455000D01*
X131500000Y-41452000D01*
X131502000Y-41450000D01*
X131503000Y-41448000D01*
X131505000Y-41446000D01*
X131506000Y-41444000D01*
X131508000Y-41442000D01*
X131510000Y-41440000D01*
X131512000Y-41438000D01*
X131514000Y-41436000D01*
X131516000Y-41435000D01*
X131518000Y-41433000D01*
X131520000Y-41432000D01*
X131522000Y-41430000D01*
X131525000Y-41429000D01*
X131527000Y-41428000D01*
X131530000Y-41427000D01*
X131532000Y-41427000D01*
X131535000Y-41426000D01*
X131537000Y-41426000D01*
X131540000Y-41425000D01*
X131542000Y-41425000D01*
X131545000Y-41425000D01*
X132615000Y-41425000D01*
X132618000Y-41425000D01*
X132620000Y-41425000D01*
X132623000Y-41426000D01*
G36*
X132623000Y-41426000D02*
G01*
X132625000Y-41426000D01*
X132628000Y-41427000D01*
X132630000Y-41427000D01*
X132633000Y-41428000D01*
X132635000Y-41429000D01*
X132638000Y-41430000D01*
X132640000Y-41432000D01*
X132642000Y-41433000D01*
X132644000Y-41435000D01*
X132646000Y-41436000D01*
X132648000Y-41438000D01*
X132650000Y-41440000D01*
X132652000Y-41442000D01*
X132654000Y-41444000D01*
X132655000Y-41446000D01*
X132657000Y-41448000D01*
X132658000Y-41450000D01*
X132660000Y-41452000D01*
X132661000Y-41455000D01*
X132662000Y-41457000D01*
X132663000Y-41460000D01*
X132663000Y-41462000D01*
X132664000Y-41465000D01*
X132664000Y-41467000D01*
X132665000Y-41470000D01*
X132665000Y-41472000D01*
X132665000Y-41475000D01*
X132665000Y-42545000D01*
X132665000Y-42548000D01*
X132665000Y-42550000D01*
X132664000Y-42553000D01*
X132664000Y-42555000D01*
X132663000Y-42558000D01*
X132663000Y-42560000D01*
X132662000Y-42563000D01*
X132661000Y-42565000D01*
X132660000Y-42568000D01*
X132658000Y-42570000D01*
X132657000Y-42572000D01*
X132655000Y-42574000D01*
X132654000Y-42576000D01*
X132652000Y-42578000D01*
X132650000Y-42580000D01*
X132648000Y-42582000D01*
X132646000Y-42584000D01*
X132644000Y-42585000D01*
X132642000Y-42587000D01*
X132640000Y-42588000D01*
X132638000Y-42590000D01*
X132635000Y-42591000D01*
X132633000Y-42592000D01*
X132630000Y-42593000D01*
X132628000Y-42593000D01*
X132625000Y-42594000D01*
X132623000Y-42594000D01*
X132620000Y-42595000D01*
X132618000Y-42595000D01*
X132615000Y-42595000D01*
X131545000Y-42595000D01*
X131542000Y-42595000D01*
X131540000Y-42595000D01*
X131537000Y-42594000D01*
X131535000Y-42594000D01*
X131532000Y-42593000D01*
X131530000Y-42593000D01*
X131527000Y-42592000D01*
X131525000Y-42591000D01*
X131522000Y-42590000D01*
X131520000Y-42588000D01*
X131518000Y-42587000D01*
X131516000Y-42585000D01*
X131514000Y-42584000D01*
X131512000Y-42582000D01*
X131510000Y-42580000D01*
X131508000Y-42578000D01*
X131506000Y-42576000D01*
X131505000Y-42574000D01*
X131503000Y-42572000D01*
X131502000Y-42570000D01*
X131500000Y-42568000D01*
X131499000Y-42565000D01*
X131498000Y-42563000D01*
X131497000Y-42560000D01*
X131497000Y-42558000D01*
X131496000Y-42555000D01*
X131496000Y-42553000D01*
X131495000Y-42550000D01*
X131495000Y-42548000D01*
X131495000Y-42545000D01*
X131495000Y-41475000D01*
X131495000Y-41472000D01*
X131495000Y-41470000D01*
X131496000Y-41467000D01*
X131496000Y-41465000D01*
X131497000Y-41462000D01*
X131497000Y-41460000D01*
X131498000Y-41457000D01*
X131499000Y-41455000D01*
X131500000Y-41452000D01*
X131502000Y-41450000D01*
X131503000Y-41448000D01*
X131505000Y-41446000D01*
X131506000Y-41444000D01*
X131508000Y-41442000D01*
X131510000Y-41440000D01*
X131512000Y-41438000D01*
X131514000Y-41436000D01*
X131516000Y-41435000D01*
X131518000Y-41433000D01*
X131520000Y-41432000D01*
X131522000Y-41430000D01*
X131525000Y-41429000D01*
X131527000Y-41428000D01*
X131530000Y-41427000D01*
X131532000Y-41427000D01*
X131535000Y-41426000D01*
X131537000Y-41426000D01*
X131540000Y-41425000D01*
X131542000Y-41425000D01*
X131545000Y-41425000D01*
X132615000Y-41425000D01*
X132618000Y-41425000D01*
X132620000Y-41425000D01*
X132623000Y-41426000D01*
G37*
X133993000Y-38686000D02*
X133995000Y-38686000D01*
X133998000Y-38687000D01*
X134000000Y-38687000D01*
X134003000Y-38688000D01*
X134005000Y-38689000D01*
X134008000Y-38690000D01*
X134010000Y-38692000D01*
X134012000Y-38693000D01*
X134014000Y-38695000D01*
X134016000Y-38696000D01*
X134018000Y-38698000D01*
X134020000Y-38700000D01*
X134022000Y-38702000D01*
X134024000Y-38704000D01*
X134025000Y-38706000D01*
X134027000Y-38708000D01*
X134028000Y-38710000D01*
X134030000Y-38712000D01*
X134031000Y-38715000D01*
X134032000Y-38717000D01*
X134033000Y-38720000D01*
X134033000Y-38722000D01*
X134034000Y-38725000D01*
X134034000Y-38727000D01*
X134035000Y-38730000D01*
X134035000Y-38732000D01*
X134035000Y-38735000D01*
X134035000Y-39805000D01*
X134035000Y-39808000D01*
X134035000Y-39810000D01*
X134034000Y-39813000D01*
X134034000Y-39815000D01*
X134033000Y-39818000D01*
X134033000Y-39820000D01*
X134032000Y-39823000D01*
X134031000Y-39825000D01*
X134030000Y-39828000D01*
X134028000Y-39830000D01*
X134027000Y-39832000D01*
X134025000Y-39834000D01*
X134024000Y-39836000D01*
X134022000Y-39838000D01*
X134020000Y-39840000D01*
X134018000Y-39842000D01*
X134016000Y-39844000D01*
X134014000Y-39845000D01*
X134012000Y-39847000D01*
X134010000Y-39848000D01*
X134008000Y-39850000D01*
X134005000Y-39851000D01*
X134003000Y-39852000D01*
X134000000Y-39853000D01*
X133998000Y-39853000D01*
X133995000Y-39854000D01*
X133993000Y-39854000D01*
X133990000Y-39855000D01*
X133988000Y-39855000D01*
X133985000Y-39855000D01*
X132915000Y-39855000D01*
X132912000Y-39855000D01*
X132910000Y-39855000D01*
X132907000Y-39854000D01*
X132905000Y-39854000D01*
X132902000Y-39853000D01*
X132900000Y-39853000D01*
X132897000Y-39852000D01*
X132895000Y-39851000D01*
X132892000Y-39850000D01*
X132890000Y-39848000D01*
X132888000Y-39847000D01*
X132886000Y-39845000D01*
X132884000Y-39844000D01*
X132882000Y-39842000D01*
X132880000Y-39840000D01*
X132878000Y-39838000D01*
X132876000Y-39836000D01*
X132875000Y-39834000D01*
X132873000Y-39832000D01*
X132872000Y-39830000D01*
X132870000Y-39828000D01*
X132869000Y-39825000D01*
X132868000Y-39823000D01*
X132867000Y-39820000D01*
X132867000Y-39818000D01*
X132866000Y-39815000D01*
X132866000Y-39813000D01*
X132865000Y-39810000D01*
X132865000Y-39808000D01*
X132865000Y-39805000D01*
X132865000Y-38735000D01*
X132865000Y-38732000D01*
X132865000Y-38730000D01*
X132866000Y-38727000D01*
X132866000Y-38725000D01*
X132867000Y-38722000D01*
X132867000Y-38720000D01*
X132868000Y-38717000D01*
X132869000Y-38715000D01*
X132870000Y-38712000D01*
X132872000Y-38710000D01*
X132873000Y-38708000D01*
X132875000Y-38706000D01*
X132876000Y-38704000D01*
X132878000Y-38702000D01*
X132880000Y-38700000D01*
X132882000Y-38698000D01*
X132884000Y-38696000D01*
X132886000Y-38695000D01*
X132888000Y-38693000D01*
X132890000Y-38692000D01*
X132892000Y-38690000D01*
X132895000Y-38689000D01*
X132897000Y-38688000D01*
X132900000Y-38687000D01*
X132902000Y-38687000D01*
X132905000Y-38686000D01*
X132907000Y-38686000D01*
X132910000Y-38685000D01*
X132912000Y-38685000D01*
X132915000Y-38685000D01*
X133985000Y-38685000D01*
X133988000Y-38685000D01*
X133990000Y-38685000D01*
X133993000Y-38686000D01*
G36*
X133993000Y-38686000D02*
G01*
X133995000Y-38686000D01*
X133998000Y-38687000D01*
X134000000Y-38687000D01*
X134003000Y-38688000D01*
X134005000Y-38689000D01*
X134008000Y-38690000D01*
X134010000Y-38692000D01*
X134012000Y-38693000D01*
X134014000Y-38695000D01*
X134016000Y-38696000D01*
X134018000Y-38698000D01*
X134020000Y-38700000D01*
X134022000Y-38702000D01*
X134024000Y-38704000D01*
X134025000Y-38706000D01*
X134027000Y-38708000D01*
X134028000Y-38710000D01*
X134030000Y-38712000D01*
X134031000Y-38715000D01*
X134032000Y-38717000D01*
X134033000Y-38720000D01*
X134033000Y-38722000D01*
X134034000Y-38725000D01*
X134034000Y-38727000D01*
X134035000Y-38730000D01*
X134035000Y-38732000D01*
X134035000Y-38735000D01*
X134035000Y-39805000D01*
X134035000Y-39808000D01*
X134035000Y-39810000D01*
X134034000Y-39813000D01*
X134034000Y-39815000D01*
X134033000Y-39818000D01*
X134033000Y-39820000D01*
X134032000Y-39823000D01*
X134031000Y-39825000D01*
X134030000Y-39828000D01*
X134028000Y-39830000D01*
X134027000Y-39832000D01*
X134025000Y-39834000D01*
X134024000Y-39836000D01*
X134022000Y-39838000D01*
X134020000Y-39840000D01*
X134018000Y-39842000D01*
X134016000Y-39844000D01*
X134014000Y-39845000D01*
X134012000Y-39847000D01*
X134010000Y-39848000D01*
X134008000Y-39850000D01*
X134005000Y-39851000D01*
X134003000Y-39852000D01*
X134000000Y-39853000D01*
X133998000Y-39853000D01*
X133995000Y-39854000D01*
X133993000Y-39854000D01*
X133990000Y-39855000D01*
X133988000Y-39855000D01*
X133985000Y-39855000D01*
X132915000Y-39855000D01*
X132912000Y-39855000D01*
X132910000Y-39855000D01*
X132907000Y-39854000D01*
X132905000Y-39854000D01*
X132902000Y-39853000D01*
X132900000Y-39853000D01*
X132897000Y-39852000D01*
X132895000Y-39851000D01*
X132892000Y-39850000D01*
X132890000Y-39848000D01*
X132888000Y-39847000D01*
X132886000Y-39845000D01*
X132884000Y-39844000D01*
X132882000Y-39842000D01*
X132880000Y-39840000D01*
X132878000Y-39838000D01*
X132876000Y-39836000D01*
X132875000Y-39834000D01*
X132873000Y-39832000D01*
X132872000Y-39830000D01*
X132870000Y-39828000D01*
X132869000Y-39825000D01*
X132868000Y-39823000D01*
X132867000Y-39820000D01*
X132867000Y-39818000D01*
X132866000Y-39815000D01*
X132866000Y-39813000D01*
X132865000Y-39810000D01*
X132865000Y-39808000D01*
X132865000Y-39805000D01*
X132865000Y-38735000D01*
X132865000Y-38732000D01*
X132865000Y-38730000D01*
X132866000Y-38727000D01*
X132866000Y-38725000D01*
X132867000Y-38722000D01*
X132867000Y-38720000D01*
X132868000Y-38717000D01*
X132869000Y-38715000D01*
X132870000Y-38712000D01*
X132872000Y-38710000D01*
X132873000Y-38708000D01*
X132875000Y-38706000D01*
X132876000Y-38704000D01*
X132878000Y-38702000D01*
X132880000Y-38700000D01*
X132882000Y-38698000D01*
X132884000Y-38696000D01*
X132886000Y-38695000D01*
X132888000Y-38693000D01*
X132890000Y-38692000D01*
X132892000Y-38690000D01*
X132895000Y-38689000D01*
X132897000Y-38688000D01*
X132900000Y-38687000D01*
X132902000Y-38687000D01*
X132905000Y-38686000D01*
X132907000Y-38686000D01*
X132910000Y-38685000D01*
X132912000Y-38685000D01*
X132915000Y-38685000D01*
X133985000Y-38685000D01*
X133988000Y-38685000D01*
X133990000Y-38685000D01*
X133993000Y-38686000D01*
G37*
X133993000Y-40056000D02*
X133995000Y-40056000D01*
X133998000Y-40057000D01*
X134000000Y-40057000D01*
X134003000Y-40058000D01*
X134005000Y-40059000D01*
X134008000Y-40060000D01*
X134010000Y-40062000D01*
X134012000Y-40063000D01*
X134014000Y-40065000D01*
X134016000Y-40066000D01*
X134018000Y-40068000D01*
X134020000Y-40070000D01*
X134022000Y-40072000D01*
X134024000Y-40074000D01*
X134025000Y-40076000D01*
X134027000Y-40078000D01*
X134028000Y-40080000D01*
X134030000Y-40082000D01*
X134031000Y-40085000D01*
X134032000Y-40087000D01*
X134033000Y-40090000D01*
X134033000Y-40092000D01*
X134034000Y-40095000D01*
X134034000Y-40097000D01*
X134035000Y-40100000D01*
X134035000Y-40102000D01*
X134035000Y-40105000D01*
X134035000Y-41175000D01*
X134035000Y-41178000D01*
X134035000Y-41180000D01*
X134034000Y-41183000D01*
X134034000Y-41185000D01*
X134033000Y-41188000D01*
X134033000Y-41190000D01*
X134032000Y-41193000D01*
X134031000Y-41195000D01*
X134030000Y-41198000D01*
X134028000Y-41200000D01*
X134027000Y-41202000D01*
X134025000Y-41204000D01*
X134024000Y-41206000D01*
X134022000Y-41208000D01*
X134020000Y-41210000D01*
X134018000Y-41212000D01*
X134016000Y-41214000D01*
X134014000Y-41215000D01*
X134012000Y-41217000D01*
X134010000Y-41218000D01*
X134008000Y-41220000D01*
X134005000Y-41221000D01*
X134003000Y-41222000D01*
X134000000Y-41223000D01*
X133998000Y-41223000D01*
X133995000Y-41224000D01*
X133993000Y-41224000D01*
X133990000Y-41225000D01*
X133988000Y-41225000D01*
X133985000Y-41225000D01*
X132915000Y-41225000D01*
X132912000Y-41225000D01*
X132910000Y-41225000D01*
X132907000Y-41224000D01*
X132905000Y-41224000D01*
X132902000Y-41223000D01*
X132900000Y-41223000D01*
X132897000Y-41222000D01*
X132895000Y-41221000D01*
X132892000Y-41220000D01*
X132890000Y-41218000D01*
X132888000Y-41217000D01*
X132886000Y-41215000D01*
X132884000Y-41214000D01*
X132882000Y-41212000D01*
X132880000Y-41210000D01*
X132878000Y-41208000D01*
X132876000Y-41206000D01*
X132875000Y-41204000D01*
X132873000Y-41202000D01*
X132872000Y-41200000D01*
X132870000Y-41198000D01*
X132869000Y-41195000D01*
X132868000Y-41193000D01*
X132867000Y-41190000D01*
X132867000Y-41188000D01*
X132866000Y-41185000D01*
X132866000Y-41183000D01*
X132865000Y-41180000D01*
X132865000Y-41178000D01*
X132865000Y-41175000D01*
X132865000Y-40105000D01*
X132865000Y-40102000D01*
X132865000Y-40100000D01*
X132866000Y-40097000D01*
X132866000Y-40095000D01*
X132867000Y-40092000D01*
X132867000Y-40090000D01*
X132868000Y-40087000D01*
X132869000Y-40085000D01*
X132870000Y-40082000D01*
X132872000Y-40080000D01*
X132873000Y-40078000D01*
X132875000Y-40076000D01*
X132876000Y-40074000D01*
X132878000Y-40072000D01*
X132880000Y-40070000D01*
X132882000Y-40068000D01*
X132884000Y-40066000D01*
X132886000Y-40065000D01*
X132888000Y-40063000D01*
X132890000Y-40062000D01*
X132892000Y-40060000D01*
X132895000Y-40059000D01*
X132897000Y-40058000D01*
X132900000Y-40057000D01*
X132902000Y-40057000D01*
X132905000Y-40056000D01*
X132907000Y-40056000D01*
X132910000Y-40055000D01*
X132912000Y-40055000D01*
X132915000Y-40055000D01*
X133985000Y-40055000D01*
X133988000Y-40055000D01*
X133990000Y-40055000D01*
X133993000Y-40056000D01*
G36*
X133993000Y-40056000D02*
G01*
X133995000Y-40056000D01*
X133998000Y-40057000D01*
X134000000Y-40057000D01*
X134003000Y-40058000D01*
X134005000Y-40059000D01*
X134008000Y-40060000D01*
X134010000Y-40062000D01*
X134012000Y-40063000D01*
X134014000Y-40065000D01*
X134016000Y-40066000D01*
X134018000Y-40068000D01*
X134020000Y-40070000D01*
X134022000Y-40072000D01*
X134024000Y-40074000D01*
X134025000Y-40076000D01*
X134027000Y-40078000D01*
X134028000Y-40080000D01*
X134030000Y-40082000D01*
X134031000Y-40085000D01*
X134032000Y-40087000D01*
X134033000Y-40090000D01*
X134033000Y-40092000D01*
X134034000Y-40095000D01*
X134034000Y-40097000D01*
X134035000Y-40100000D01*
X134035000Y-40102000D01*
X134035000Y-40105000D01*
X134035000Y-41175000D01*
X134035000Y-41178000D01*
X134035000Y-41180000D01*
X134034000Y-41183000D01*
X134034000Y-41185000D01*
X134033000Y-41188000D01*
X134033000Y-41190000D01*
X134032000Y-41193000D01*
X134031000Y-41195000D01*
X134030000Y-41198000D01*
X134028000Y-41200000D01*
X134027000Y-41202000D01*
X134025000Y-41204000D01*
X134024000Y-41206000D01*
X134022000Y-41208000D01*
X134020000Y-41210000D01*
X134018000Y-41212000D01*
X134016000Y-41214000D01*
X134014000Y-41215000D01*
X134012000Y-41217000D01*
X134010000Y-41218000D01*
X134008000Y-41220000D01*
X134005000Y-41221000D01*
X134003000Y-41222000D01*
X134000000Y-41223000D01*
X133998000Y-41223000D01*
X133995000Y-41224000D01*
X133993000Y-41224000D01*
X133990000Y-41225000D01*
X133988000Y-41225000D01*
X133985000Y-41225000D01*
X132915000Y-41225000D01*
X132912000Y-41225000D01*
X132910000Y-41225000D01*
X132907000Y-41224000D01*
X132905000Y-41224000D01*
X132902000Y-41223000D01*
X132900000Y-41223000D01*
X132897000Y-41222000D01*
X132895000Y-41221000D01*
X132892000Y-41220000D01*
X132890000Y-41218000D01*
X132888000Y-41217000D01*
X132886000Y-41215000D01*
X132884000Y-41214000D01*
X132882000Y-41212000D01*
X132880000Y-41210000D01*
X132878000Y-41208000D01*
X132876000Y-41206000D01*
X132875000Y-41204000D01*
X132873000Y-41202000D01*
X132872000Y-41200000D01*
X132870000Y-41198000D01*
X132869000Y-41195000D01*
X132868000Y-41193000D01*
X132867000Y-41190000D01*
X132867000Y-41188000D01*
X132866000Y-41185000D01*
X132866000Y-41183000D01*
X132865000Y-41180000D01*
X132865000Y-41178000D01*
X132865000Y-41175000D01*
X132865000Y-40105000D01*
X132865000Y-40102000D01*
X132865000Y-40100000D01*
X132866000Y-40097000D01*
X132866000Y-40095000D01*
X132867000Y-40092000D01*
X132867000Y-40090000D01*
X132868000Y-40087000D01*
X132869000Y-40085000D01*
X132870000Y-40082000D01*
X132872000Y-40080000D01*
X132873000Y-40078000D01*
X132875000Y-40076000D01*
X132876000Y-40074000D01*
X132878000Y-40072000D01*
X132880000Y-40070000D01*
X132882000Y-40068000D01*
X132884000Y-40066000D01*
X132886000Y-40065000D01*
X132888000Y-40063000D01*
X132890000Y-40062000D01*
X132892000Y-40060000D01*
X132895000Y-40059000D01*
X132897000Y-40058000D01*
X132900000Y-40057000D01*
X132902000Y-40057000D01*
X132905000Y-40056000D01*
X132907000Y-40056000D01*
X132910000Y-40055000D01*
X132912000Y-40055000D01*
X132915000Y-40055000D01*
X133985000Y-40055000D01*
X133988000Y-40055000D01*
X133990000Y-40055000D01*
X133993000Y-40056000D01*
G37*
X133993000Y-41426000D02*
X133995000Y-41426000D01*
X133998000Y-41427000D01*
X134000000Y-41427000D01*
X134003000Y-41428000D01*
X134005000Y-41429000D01*
X134008000Y-41430000D01*
X134010000Y-41432000D01*
X134012000Y-41433000D01*
X134014000Y-41435000D01*
X134016000Y-41436000D01*
X134018000Y-41438000D01*
X134020000Y-41440000D01*
X134022000Y-41442000D01*
X134024000Y-41444000D01*
X134025000Y-41446000D01*
X134027000Y-41448000D01*
X134028000Y-41450000D01*
X134030000Y-41452000D01*
X134031000Y-41455000D01*
X134032000Y-41457000D01*
X134033000Y-41460000D01*
X134033000Y-41462000D01*
X134034000Y-41465000D01*
X134034000Y-41467000D01*
X134035000Y-41470000D01*
X134035000Y-41472000D01*
X134035000Y-41475000D01*
X134035000Y-42545000D01*
X134035000Y-42548000D01*
X134035000Y-42550000D01*
X134034000Y-42553000D01*
X134034000Y-42555000D01*
X134033000Y-42558000D01*
X134033000Y-42560000D01*
X134032000Y-42563000D01*
X134031000Y-42565000D01*
X134030000Y-42568000D01*
X134028000Y-42570000D01*
X134027000Y-42572000D01*
X134025000Y-42574000D01*
X134024000Y-42576000D01*
X134022000Y-42578000D01*
X134020000Y-42580000D01*
X134018000Y-42582000D01*
X134016000Y-42584000D01*
X134014000Y-42585000D01*
X134012000Y-42587000D01*
X134010000Y-42588000D01*
X134008000Y-42590000D01*
X134005000Y-42591000D01*
X134003000Y-42592000D01*
X134000000Y-42593000D01*
X133998000Y-42593000D01*
X133995000Y-42594000D01*
X133993000Y-42594000D01*
X133990000Y-42595000D01*
X133988000Y-42595000D01*
X133985000Y-42595000D01*
X132915000Y-42595000D01*
X132912000Y-42595000D01*
X132910000Y-42595000D01*
X132907000Y-42594000D01*
X132905000Y-42594000D01*
X132902000Y-42593000D01*
X132900000Y-42593000D01*
X132897000Y-42592000D01*
X132895000Y-42591000D01*
X132892000Y-42590000D01*
X132890000Y-42588000D01*
X132888000Y-42587000D01*
X132886000Y-42585000D01*
X132884000Y-42584000D01*
X132882000Y-42582000D01*
X132880000Y-42580000D01*
X132878000Y-42578000D01*
X132876000Y-42576000D01*
X132875000Y-42574000D01*
X132873000Y-42572000D01*
X132872000Y-42570000D01*
X132870000Y-42568000D01*
X132869000Y-42565000D01*
X132868000Y-42563000D01*
X132867000Y-42560000D01*
X132867000Y-42558000D01*
X132866000Y-42555000D01*
X132866000Y-42553000D01*
X132865000Y-42550000D01*
X132865000Y-42548000D01*
X132865000Y-42545000D01*
X132865000Y-41475000D01*
X132865000Y-41472000D01*
X132865000Y-41470000D01*
X132866000Y-41467000D01*
X132866000Y-41465000D01*
X132867000Y-41462000D01*
X132867000Y-41460000D01*
X132868000Y-41457000D01*
X132869000Y-41455000D01*
X132870000Y-41452000D01*
X132872000Y-41450000D01*
X132873000Y-41448000D01*
X132875000Y-41446000D01*
X132876000Y-41444000D01*
X132878000Y-41442000D01*
X132880000Y-41440000D01*
X132882000Y-41438000D01*
X132884000Y-41436000D01*
X132886000Y-41435000D01*
X132888000Y-41433000D01*
X132890000Y-41432000D01*
X132892000Y-41430000D01*
X132895000Y-41429000D01*
X132897000Y-41428000D01*
X132900000Y-41427000D01*
X132902000Y-41427000D01*
X132905000Y-41426000D01*
X132907000Y-41426000D01*
X132910000Y-41425000D01*
X132912000Y-41425000D01*
X132915000Y-41425000D01*
X133985000Y-41425000D01*
X133988000Y-41425000D01*
X133990000Y-41425000D01*
X133993000Y-41426000D01*
G36*
X133993000Y-41426000D02*
G01*
X133995000Y-41426000D01*
X133998000Y-41427000D01*
X134000000Y-41427000D01*
X134003000Y-41428000D01*
X134005000Y-41429000D01*
X134008000Y-41430000D01*
X134010000Y-41432000D01*
X134012000Y-41433000D01*
X134014000Y-41435000D01*
X134016000Y-41436000D01*
X134018000Y-41438000D01*
X134020000Y-41440000D01*
X134022000Y-41442000D01*
X134024000Y-41444000D01*
X134025000Y-41446000D01*
X134027000Y-41448000D01*
X134028000Y-41450000D01*
X134030000Y-41452000D01*
X134031000Y-41455000D01*
X134032000Y-41457000D01*
X134033000Y-41460000D01*
X134033000Y-41462000D01*
X134034000Y-41465000D01*
X134034000Y-41467000D01*
X134035000Y-41470000D01*
X134035000Y-41472000D01*
X134035000Y-41475000D01*
X134035000Y-42545000D01*
X134035000Y-42548000D01*
X134035000Y-42550000D01*
X134034000Y-42553000D01*
X134034000Y-42555000D01*
X134033000Y-42558000D01*
X134033000Y-42560000D01*
X134032000Y-42563000D01*
X134031000Y-42565000D01*
X134030000Y-42568000D01*
X134028000Y-42570000D01*
X134027000Y-42572000D01*
X134025000Y-42574000D01*
X134024000Y-42576000D01*
X134022000Y-42578000D01*
X134020000Y-42580000D01*
X134018000Y-42582000D01*
X134016000Y-42584000D01*
X134014000Y-42585000D01*
X134012000Y-42587000D01*
X134010000Y-42588000D01*
X134008000Y-42590000D01*
X134005000Y-42591000D01*
X134003000Y-42592000D01*
X134000000Y-42593000D01*
X133998000Y-42593000D01*
X133995000Y-42594000D01*
X133993000Y-42594000D01*
X133990000Y-42595000D01*
X133988000Y-42595000D01*
X133985000Y-42595000D01*
X132915000Y-42595000D01*
X132912000Y-42595000D01*
X132910000Y-42595000D01*
X132907000Y-42594000D01*
X132905000Y-42594000D01*
X132902000Y-42593000D01*
X132900000Y-42593000D01*
X132897000Y-42592000D01*
X132895000Y-42591000D01*
X132892000Y-42590000D01*
X132890000Y-42588000D01*
X132888000Y-42587000D01*
X132886000Y-42585000D01*
X132884000Y-42584000D01*
X132882000Y-42582000D01*
X132880000Y-42580000D01*
X132878000Y-42578000D01*
X132876000Y-42576000D01*
X132875000Y-42574000D01*
X132873000Y-42572000D01*
X132872000Y-42570000D01*
X132870000Y-42568000D01*
X132869000Y-42565000D01*
X132868000Y-42563000D01*
X132867000Y-42560000D01*
X132867000Y-42558000D01*
X132866000Y-42555000D01*
X132866000Y-42553000D01*
X132865000Y-42550000D01*
X132865000Y-42548000D01*
X132865000Y-42545000D01*
X132865000Y-41475000D01*
X132865000Y-41472000D01*
X132865000Y-41470000D01*
X132866000Y-41467000D01*
X132866000Y-41465000D01*
X132867000Y-41462000D01*
X132867000Y-41460000D01*
X132868000Y-41457000D01*
X132869000Y-41455000D01*
X132870000Y-41452000D01*
X132872000Y-41450000D01*
X132873000Y-41448000D01*
X132875000Y-41446000D01*
X132876000Y-41444000D01*
X132878000Y-41442000D01*
X132880000Y-41440000D01*
X132882000Y-41438000D01*
X132884000Y-41436000D01*
X132886000Y-41435000D01*
X132888000Y-41433000D01*
X132890000Y-41432000D01*
X132892000Y-41430000D01*
X132895000Y-41429000D01*
X132897000Y-41428000D01*
X132900000Y-41427000D01*
X132902000Y-41427000D01*
X132905000Y-41426000D01*
X132907000Y-41426000D01*
X132910000Y-41425000D01*
X132912000Y-41425000D01*
X132915000Y-41425000D01*
X133985000Y-41425000D01*
X133988000Y-41425000D01*
X133990000Y-41425000D01*
X133993000Y-41426000D01*
G37*
D10*
X169920000Y-175475000D02*
X171120000Y-175475000D01*
X171120000Y-176425000D01*
X169920000Y-176425000D01*
X169920000Y-175475000D01*
G36*
X169920000Y-175475000D02*
G01*
X171120000Y-175475000D01*
X171120000Y-176425000D01*
X169920000Y-176425000D01*
X169920000Y-175475000D01*
G37*
X169930000Y-177335000D02*
X171130000Y-177335000D01*
X171130000Y-178285000D01*
X169930000Y-178285000D01*
X169930000Y-177335000D01*
G36*
X169930000Y-177335000D02*
G01*
X171130000Y-177335000D01*
X171130000Y-178285000D01*
X169930000Y-178285000D01*
X169930000Y-177335000D01*
G37*
X169940000Y-179165000D02*
X171140000Y-179165000D01*
X171140000Y-180115000D01*
X169940000Y-180115000D01*
X169940000Y-179165000D01*
G36*
X169940000Y-179165000D02*
G01*
X171140000Y-179165000D01*
X171140000Y-180115000D01*
X169940000Y-180115000D01*
X169940000Y-179165000D01*
G37*
X169940000Y-181410000D02*
X171140000Y-181410000D01*
X171140000Y-182520000D01*
X169940000Y-182520000D01*
X169940000Y-181410000D01*
G36*
X169940000Y-181410000D02*
G01*
X171140000Y-181410000D01*
X171140000Y-182520000D01*
X169940000Y-182520000D01*
X169940000Y-181410000D01*
G37*
X172070000Y-175475000D02*
X173270000Y-175475000D01*
X173270000Y-176425000D01*
X172070000Y-176425000D01*
X172070000Y-175475000D01*
G36*
X172070000Y-175475000D02*
G01*
X173270000Y-175475000D01*
X173270000Y-176425000D01*
X172070000Y-176425000D01*
X172070000Y-175475000D01*
G37*
X172080000Y-177335000D02*
X173280000Y-177335000D01*
X173280000Y-178285000D01*
X172080000Y-178285000D01*
X172080000Y-177335000D01*
G36*
X172080000Y-177335000D02*
G01*
X173280000Y-177335000D01*
X173280000Y-178285000D01*
X172080000Y-178285000D01*
X172080000Y-177335000D01*
G37*
X172090000Y-179165000D02*
X173290000Y-179165000D01*
X173290000Y-180115000D01*
X172090000Y-180115000D01*
X172090000Y-179165000D01*
G36*
X172090000Y-179165000D02*
G01*
X173290000Y-179165000D01*
X173290000Y-180115000D01*
X172090000Y-180115000D01*
X172090000Y-179165000D01*
G37*
X172120000Y-181390000D02*
X173320000Y-181390000D01*
X173320000Y-182500000D01*
X172120000Y-182500000D01*
X172120000Y-181390000D01*
G36*
X172120000Y-181390000D02*
G01*
X173320000Y-181390000D01*
X173320000Y-182500000D01*
X172120000Y-182500000D01*
X172120000Y-181390000D01*
G37*
X174260000Y-181380000D02*
X175460000Y-181380000D01*
X175460000Y-182500000D01*
X174260000Y-182500000D01*
X174260000Y-181380000D01*
G36*
X174260000Y-181380000D02*
G01*
X175460000Y-181380000D01*
X175460000Y-182500000D01*
X174260000Y-182500000D01*
X174260000Y-181380000D01*
G37*
X174280000Y-175485000D02*
X175480000Y-175485000D01*
X175480000Y-176435000D01*
X174280000Y-176435000D01*
X174280000Y-175485000D01*
G36*
X174280000Y-175485000D02*
G01*
X175480000Y-175485000D01*
X175480000Y-176435000D01*
X174280000Y-176435000D01*
X174280000Y-175485000D01*
G37*
X174290000Y-177345000D02*
X175490000Y-177345000D01*
X175490000Y-178295000D01*
X174290000Y-178295000D01*
X174290000Y-177345000D01*
G36*
X174290000Y-177345000D02*
G01*
X175490000Y-177345000D01*
X175490000Y-178295000D01*
X174290000Y-178295000D01*
X174290000Y-177345000D01*
G37*
X174300000Y-179175000D02*
X175500000Y-179175000D01*
X175500000Y-180125000D01*
X174300000Y-180125000D01*
X174300000Y-179175000D01*
G36*
X174300000Y-179175000D02*
G01*
X175500000Y-179175000D01*
X175500000Y-180125000D01*
X174300000Y-180125000D01*
X174300000Y-179175000D01*
G37*
X49220000Y-136039000D02*
X48020000Y-136039000D01*
X48020000Y-135089000D01*
X49220000Y-135089000D01*
X49220000Y-136039000D01*
G36*
X49220000Y-136039000D02*
G01*
X48020000Y-136039000D01*
X48020000Y-135089000D01*
X49220000Y-135089000D01*
X49220000Y-136039000D01*
G37*
X49230000Y-137869000D02*
X48030000Y-137869000D01*
X48030000Y-136919000D01*
X49230000Y-136919000D01*
X49230000Y-137869000D01*
G36*
X49230000Y-137869000D02*
G01*
X48030000Y-137869000D01*
X48030000Y-136919000D01*
X49230000Y-136919000D01*
X49230000Y-137869000D01*
G37*
X49240000Y-139729000D02*
X48040000Y-139729000D01*
X48040000Y-138779000D01*
X49240000Y-138779000D01*
X49240000Y-139729000D01*
G36*
X49240000Y-139729000D02*
G01*
X48040000Y-139729000D01*
X48040000Y-138779000D01*
X49240000Y-138779000D01*
X49240000Y-139729000D01*
G37*
X49260000Y-133834000D02*
X48060000Y-133834000D01*
X48060000Y-132714000D01*
X49260000Y-132714000D01*
X49260000Y-133834000D01*
G36*
X49260000Y-133834000D02*
G01*
X48060000Y-133834000D01*
X48060000Y-132714000D01*
X49260000Y-132714000D01*
X49260000Y-133834000D01*
G37*
X51400000Y-133824000D02*
X50200000Y-133824000D01*
X50200000Y-132714000D01*
X51400000Y-132714000D01*
X51400000Y-133824000D01*
G36*
X51400000Y-133824000D02*
G01*
X50200000Y-133824000D01*
X50200000Y-132714000D01*
X51400000Y-132714000D01*
X51400000Y-133824000D01*
G37*
X51430000Y-136049000D02*
X50230000Y-136049000D01*
X50230000Y-135099000D01*
X51430000Y-135099000D01*
X51430000Y-136049000D01*
G36*
X51430000Y-136049000D02*
G01*
X50230000Y-136049000D01*
X50230000Y-135099000D01*
X51430000Y-135099000D01*
X51430000Y-136049000D01*
G37*
X51440000Y-137879000D02*
X50240000Y-137879000D01*
X50240000Y-136929000D01*
X51440000Y-136929000D01*
X51440000Y-137879000D01*
G36*
X51440000Y-137879000D02*
G01*
X50240000Y-137879000D01*
X50240000Y-136929000D01*
X51440000Y-136929000D01*
X51440000Y-137879000D01*
G37*
X51450000Y-139739000D02*
X50250000Y-139739000D01*
X50250000Y-138789000D01*
X51450000Y-138789000D01*
X51450000Y-139739000D01*
G36*
X51450000Y-139739000D02*
G01*
X50250000Y-139739000D01*
X50250000Y-138789000D01*
X51450000Y-138789000D01*
X51450000Y-139739000D01*
G37*
X53580000Y-133804000D02*
X52380000Y-133804000D01*
X52380000Y-132694000D01*
X53580000Y-132694000D01*
X53580000Y-133804000D01*
G36*
X53580000Y-133804000D02*
G01*
X52380000Y-133804000D01*
X52380000Y-132694000D01*
X53580000Y-132694000D01*
X53580000Y-133804000D01*
G37*
X53580000Y-136049000D02*
X52380000Y-136049000D01*
X52380000Y-135099000D01*
X53580000Y-135099000D01*
X53580000Y-136049000D01*
G36*
X53580000Y-136049000D02*
G01*
X52380000Y-136049000D01*
X52380000Y-135099000D01*
X53580000Y-135099000D01*
X53580000Y-136049000D01*
G37*
X53590000Y-137879000D02*
X52390000Y-137879000D01*
X52390000Y-136929000D01*
X53590000Y-136929000D01*
X53590000Y-137879000D01*
G36*
X53590000Y-137879000D02*
G01*
X52390000Y-137879000D01*
X52390000Y-136929000D01*
X53590000Y-136929000D01*
X53590000Y-137879000D01*
G37*
X53600000Y-139739000D02*
X52400000Y-139739000D01*
X52400000Y-138789000D01*
X53600000Y-138789000D01*
X53600000Y-139739000D01*
G36*
X53600000Y-139739000D02*
G01*
X52400000Y-139739000D01*
X52400000Y-138789000D01*
X53600000Y-138789000D01*
X53600000Y-139739000D01*
G37*
X146825865Y-135951667D02*
X145625865Y-135951667D01*
X145625865Y-135001667D01*
X146825865Y-135001667D01*
X146825865Y-135951667D01*
G36*
X146825865Y-135951667D02*
G01*
X145625865Y-135951667D01*
X145625865Y-135001667D01*
X146825865Y-135001667D01*
X146825865Y-135951667D01*
G37*
X146835865Y-137781667D02*
X145635865Y-137781667D01*
X145635865Y-136831667D01*
X146835865Y-136831667D01*
X146835865Y-137781667D01*
G36*
X146835865Y-137781667D02*
G01*
X145635865Y-137781667D01*
X145635865Y-136831667D01*
X146835865Y-136831667D01*
X146835865Y-137781667D01*
G37*
X146845865Y-139641667D02*
X145645865Y-139641667D01*
X145645865Y-138691667D01*
X146845865Y-138691667D01*
X146845865Y-139641667D01*
G36*
X146845865Y-139641667D02*
G01*
X145645865Y-139641667D01*
X145645865Y-138691667D01*
X146845865Y-138691667D01*
X146845865Y-139641667D01*
G37*
X146865865Y-133746667D02*
X145665865Y-133746667D01*
X145665865Y-132626667D01*
X146865865Y-132626667D01*
X146865865Y-133746667D01*
G36*
X146865865Y-133746667D02*
G01*
X145665865Y-133746667D01*
X145665865Y-132626667D01*
X146865865Y-132626667D01*
X146865865Y-133746667D01*
G37*
X149005865Y-133736667D02*
X147805865Y-133736667D01*
X147805865Y-132626667D01*
X149005865Y-132626667D01*
X149005865Y-133736667D01*
G36*
X149005865Y-133736667D02*
G01*
X147805865Y-133736667D01*
X147805865Y-132626667D01*
X149005865Y-132626667D01*
X149005865Y-133736667D01*
G37*
X149035865Y-135961667D02*
X147835865Y-135961667D01*
X147835865Y-135011667D01*
X149035865Y-135011667D01*
X149035865Y-135961667D01*
G36*
X149035865Y-135961667D02*
G01*
X147835865Y-135961667D01*
X147835865Y-135011667D01*
X149035865Y-135011667D01*
X149035865Y-135961667D01*
G37*
X149045865Y-137791667D02*
X147845865Y-137791667D01*
X147845865Y-136841667D01*
X149045865Y-136841667D01*
X149045865Y-137791667D01*
G36*
X149045865Y-137791667D02*
G01*
X147845865Y-137791667D01*
X147845865Y-136841667D01*
X149045865Y-136841667D01*
X149045865Y-137791667D01*
G37*
X149055865Y-139651667D02*
X147855865Y-139651667D01*
X147855865Y-138701667D01*
X149055865Y-138701667D01*
X149055865Y-139651667D01*
G36*
X149055865Y-139651667D02*
G01*
X147855865Y-139651667D01*
X147855865Y-138701667D01*
X149055865Y-138701667D01*
X149055865Y-139651667D01*
G37*
X151185865Y-133716667D02*
X149985865Y-133716667D01*
X149985865Y-132606667D01*
X151185865Y-132606667D01*
X151185865Y-133716667D01*
G36*
X151185865Y-133716667D02*
G01*
X149985865Y-133716667D01*
X149985865Y-132606667D01*
X151185865Y-132606667D01*
X151185865Y-133716667D01*
G37*
X151185865Y-135961667D02*
X149985865Y-135961667D01*
X149985865Y-135011667D01*
X151185865Y-135011667D01*
X151185865Y-135961667D01*
G36*
X151185865Y-135961667D02*
G01*
X149985865Y-135961667D01*
X149985865Y-135011667D01*
X151185865Y-135011667D01*
X151185865Y-135961667D01*
G37*
X151195865Y-137791667D02*
X149995865Y-137791667D01*
X149995865Y-136841667D01*
X151195865Y-136841667D01*
X151195865Y-137791667D01*
G36*
X151195865Y-137791667D02*
G01*
X149995865Y-137791667D01*
X149995865Y-136841667D01*
X151195865Y-136841667D01*
X151195865Y-137791667D01*
G37*
X151205865Y-139651667D02*
X150005865Y-139651667D01*
X150005865Y-138701667D01*
X151205865Y-138701667D01*
X151205865Y-139651667D01*
G36*
X151205865Y-139651667D02*
G01*
X150005865Y-139651667D01*
X150005865Y-138701667D01*
X151205865Y-138701667D01*
X151205865Y-139651667D01*
G37*
X47746002Y-175474999D02*
X48946002Y-175474999D01*
X48946002Y-176424999D01*
X47746002Y-176424999D01*
X47746002Y-175474999D01*
G36*
X47746002Y-175474999D02*
G01*
X48946002Y-175474999D01*
X48946002Y-176424999D01*
X47746002Y-176424999D01*
X47746002Y-175474999D01*
G37*
X47756002Y-177334999D02*
X48956002Y-177334999D01*
X48956002Y-178284999D01*
X47756002Y-178284999D01*
X47756002Y-177334999D01*
G36*
X47756002Y-177334999D02*
G01*
X48956002Y-177334999D01*
X48956002Y-178284999D01*
X47756002Y-178284999D01*
X47756002Y-177334999D01*
G37*
X47766002Y-179164999D02*
X48966002Y-179164999D01*
X48966002Y-180114999D01*
X47766002Y-180114999D01*
X47766002Y-179164999D01*
G36*
X47766002Y-179164999D02*
G01*
X48966002Y-179164999D01*
X48966002Y-180114999D01*
X47766002Y-180114999D01*
X47766002Y-179164999D01*
G37*
X47766002Y-181409999D02*
X48966002Y-181409999D01*
X48966002Y-182519999D01*
X47766002Y-182519999D01*
X47766002Y-181409999D01*
G36*
X47766002Y-181409999D02*
G01*
X48966002Y-181409999D01*
X48966002Y-182519999D01*
X47766002Y-182519999D01*
X47766002Y-181409999D01*
G37*
X49896002Y-175474999D02*
X51096002Y-175474999D01*
X51096002Y-176424999D01*
X49896002Y-176424999D01*
X49896002Y-175474999D01*
G36*
X49896002Y-175474999D02*
G01*
X51096002Y-175474999D01*
X51096002Y-176424999D01*
X49896002Y-176424999D01*
X49896002Y-175474999D01*
G37*
X49906002Y-177334999D02*
X51106002Y-177334999D01*
X51106002Y-178284999D01*
X49906002Y-178284999D01*
X49906002Y-177334999D01*
G36*
X49906002Y-177334999D02*
G01*
X51106002Y-177334999D01*
X51106002Y-178284999D01*
X49906002Y-178284999D01*
X49906002Y-177334999D01*
G37*
X49916002Y-179164999D02*
X51116002Y-179164999D01*
X51116002Y-180114999D01*
X49916002Y-180114999D01*
X49916002Y-179164999D01*
G36*
X49916002Y-179164999D02*
G01*
X51116002Y-179164999D01*
X51116002Y-180114999D01*
X49916002Y-180114999D01*
X49916002Y-179164999D01*
G37*
X49946002Y-181389999D02*
X51146002Y-181389999D01*
X51146002Y-182499999D01*
X49946002Y-182499999D01*
X49946002Y-181389999D01*
G36*
X49946002Y-181389999D02*
G01*
X51146002Y-181389999D01*
X51146002Y-182499999D01*
X49946002Y-182499999D01*
X49946002Y-181389999D01*
G37*
X52086002Y-181379999D02*
X53286002Y-181379999D01*
X53286002Y-182499999D01*
X52086002Y-182499999D01*
X52086002Y-181379999D01*
G36*
X52086002Y-181379999D02*
G01*
X53286002Y-181379999D01*
X53286002Y-182499999D01*
X52086002Y-182499999D01*
X52086002Y-181379999D01*
G37*
X52106002Y-175484999D02*
X53306002Y-175484999D01*
X53306002Y-176434999D01*
X52106002Y-176434999D01*
X52106002Y-175484999D01*
G36*
X52106002Y-175484999D02*
G01*
X53306002Y-175484999D01*
X53306002Y-176434999D01*
X52106002Y-176434999D01*
X52106002Y-175484999D01*
G37*
X52116002Y-177344999D02*
X53316002Y-177344999D01*
X53316002Y-178294999D01*
X52116002Y-178294999D01*
X52116002Y-177344999D01*
G36*
X52116002Y-177344999D02*
G01*
X53316002Y-177344999D01*
X53316002Y-178294999D01*
X52116002Y-178294999D01*
X52116002Y-177344999D01*
G37*
X52126002Y-179174999D02*
X53326002Y-179174999D01*
X53326002Y-180124999D01*
X52126002Y-180124999D01*
X52126002Y-179174999D01*
G36*
X52126002Y-179174999D02*
G01*
X53326002Y-179174999D01*
X53326002Y-180124999D01*
X52126002Y-180124999D01*
X52126002Y-179174999D01*
G37*
D11*
G36*
X90029437Y-85090968D02*
G01*
X90038891Y-85093835D01*
X90047603Y-85098494D01*
X90055241Y-85104760D01*
X90061509Y-85112398D01*
X90066168Y-85121112D01*
X90069035Y-85130566D01*
X90070003Y-85140399D01*
X90070003Y-86159599D01*
X90069035Y-86169431D01*
X90066168Y-86178885D01*
X90061509Y-86187600D01*
X90055241Y-86195238D01*
X90047603Y-86201504D01*
X90038891Y-86206162D01*
X90029437Y-86209030D01*
X90019602Y-86209998D01*
X88710405Y-86209998D01*
X88700570Y-86209030D01*
X88691116Y-86206162D01*
X88682404Y-86201504D01*
X88674766Y-86195238D01*
X88668497Y-86187600D01*
X88663839Y-86178885D01*
X88660971Y-86169431D01*
X88660003Y-86159599D01*
X88660003Y-85140399D01*
X88660971Y-85130566D01*
X88663839Y-85121112D01*
X88668497Y-85112398D01*
X88674766Y-85104760D01*
X88682404Y-85098494D01*
X88691116Y-85093835D01*
X88700570Y-85090968D01*
X88710405Y-85089997D01*
X90019602Y-85089997D01*
X90029437Y-85090968D01*
G37*
G36*
X90029437Y-86410968D02*
G01*
X90038891Y-86413835D01*
X90047603Y-86418494D01*
X90055241Y-86424760D01*
X90061509Y-86432398D01*
X90066168Y-86441112D01*
X90069035Y-86450566D01*
X90070003Y-86460399D01*
X90070003Y-87479599D01*
X90069035Y-87489431D01*
X90066168Y-87498885D01*
X90061509Y-87507600D01*
X90055241Y-87515238D01*
X90047603Y-87521504D01*
X90038891Y-87526162D01*
X90029437Y-87529030D01*
X90019602Y-87529998D01*
X88710405Y-87529998D01*
X88700570Y-87529030D01*
X88691116Y-87526162D01*
X88682404Y-87521504D01*
X88674766Y-87515238D01*
X88668497Y-87507600D01*
X88663839Y-87498885D01*
X88660971Y-87489431D01*
X88660003Y-87479599D01*
X88660003Y-86460399D01*
X88660971Y-86450566D01*
X88663839Y-86441112D01*
X88668497Y-86432398D01*
X88674766Y-86424760D01*
X88682404Y-86418494D01*
X88691116Y-86413835D01*
X88700570Y-86410968D01*
X88710405Y-86409997D01*
X90019602Y-86409997D01*
X90029437Y-86410968D01*
G37*
G36*
X90029437Y-87730970D02*
G01*
X90038891Y-87733838D01*
X90047603Y-87738496D01*
X90055241Y-87744762D01*
X90061509Y-87752400D01*
X90066168Y-87761115D01*
X90069035Y-87770569D01*
X90070003Y-87780401D01*
X90070003Y-88799601D01*
X90069035Y-88809434D01*
X90066168Y-88818888D01*
X90061509Y-88827602D01*
X90055241Y-88835240D01*
X90047603Y-88841506D01*
X90038891Y-88846165D01*
X90029437Y-88849032D01*
X90019602Y-88850003D01*
X88710405Y-88850003D01*
X88700570Y-88849032D01*
X88691116Y-88846165D01*
X88682404Y-88841506D01*
X88674766Y-88835240D01*
X88668497Y-88827602D01*
X88663839Y-88818888D01*
X88660971Y-88809434D01*
X88660003Y-88799601D01*
X88660003Y-87780401D01*
X88660971Y-87770569D01*
X88663839Y-87761115D01*
X88668497Y-87752400D01*
X88674766Y-87744762D01*
X88682404Y-87738496D01*
X88691116Y-87733838D01*
X88700570Y-87730970D01*
X88710405Y-87730002D01*
X90019602Y-87730002D01*
X90029437Y-87730970D01*
G37*
G36*
X90029437Y-89050970D02*
G01*
X90038891Y-89053838D01*
X90047603Y-89058496D01*
X90055241Y-89064762D01*
X90061509Y-89072400D01*
X90066168Y-89081115D01*
X90069035Y-89090569D01*
X90070003Y-89100401D01*
X90070003Y-90119601D01*
X90069035Y-90129434D01*
X90066168Y-90138888D01*
X90061509Y-90147602D01*
X90055241Y-90155240D01*
X90047603Y-90161506D01*
X90038891Y-90166165D01*
X90029437Y-90169032D01*
X90019602Y-90170003D01*
X88710405Y-90170003D01*
X88700570Y-90169032D01*
X88691116Y-90166165D01*
X88682404Y-90161506D01*
X88674766Y-90155240D01*
X88668497Y-90147602D01*
X88663839Y-90138888D01*
X88660971Y-90129434D01*
X88660003Y-90119601D01*
X88660003Y-89100401D01*
X88660971Y-89090569D01*
X88663839Y-89081115D01*
X88668497Y-89072400D01*
X88674766Y-89064762D01*
X88682404Y-89058496D01*
X88691116Y-89053838D01*
X88700570Y-89050970D01*
X88710405Y-89050002D01*
X90019602Y-89050002D01*
X90029437Y-89050970D01*
G37*
G36*
X91639436Y-85090968D02*
G01*
X91648890Y-85093835D01*
X91657602Y-85098494D01*
X91665240Y-85104760D01*
X91671509Y-85112398D01*
X91676167Y-85121112D01*
X91679035Y-85130566D01*
X91680003Y-85140399D01*
X91680003Y-86159599D01*
X91679035Y-86169431D01*
X91676167Y-86178885D01*
X91671509Y-86187600D01*
X91665240Y-86195238D01*
X91657602Y-86201504D01*
X91648890Y-86206162D01*
X91639436Y-86209030D01*
X91629601Y-86209998D01*
X90320404Y-86209998D01*
X90310569Y-86209030D01*
X90301115Y-86206162D01*
X90292403Y-86201504D01*
X90284765Y-86195238D01*
X90278497Y-86187600D01*
X90273838Y-86178885D01*
X90270971Y-86169431D01*
X90270003Y-86159599D01*
X90270003Y-85140399D01*
X90270971Y-85130566D01*
X90273838Y-85121112D01*
X90278497Y-85112398D01*
X90284765Y-85104760D01*
X90292403Y-85098494D01*
X90301115Y-85093835D01*
X90310569Y-85090968D01*
X90320404Y-85089997D01*
X91629601Y-85089997D01*
X91639436Y-85090968D01*
G37*
G36*
X91639436Y-86410968D02*
G01*
X91648890Y-86413835D01*
X91657602Y-86418494D01*
X91665240Y-86424760D01*
X91671509Y-86432398D01*
X91676167Y-86441112D01*
X91679035Y-86450566D01*
X91680003Y-86460399D01*
X91680003Y-87479599D01*
X91679035Y-87489431D01*
X91676167Y-87498885D01*
X91671509Y-87507600D01*
X91665240Y-87515238D01*
X91657602Y-87521504D01*
X91648890Y-87526162D01*
X91639436Y-87529030D01*
X91629601Y-87529998D01*
X90320404Y-87529998D01*
X90310569Y-87529030D01*
X90301115Y-87526162D01*
X90292403Y-87521504D01*
X90284765Y-87515238D01*
X90278497Y-87507600D01*
X90273838Y-87498885D01*
X90270971Y-87489431D01*
X90270003Y-87479599D01*
X90270003Y-86460399D01*
X90270971Y-86450566D01*
X90273838Y-86441112D01*
X90278497Y-86432398D01*
X90284765Y-86424760D01*
X90292403Y-86418494D01*
X90301115Y-86413835D01*
X90310569Y-86410968D01*
X90320404Y-86409997D01*
X91629601Y-86409997D01*
X91639436Y-86410968D01*
G37*
G36*
X91639436Y-87730970D02*
G01*
X91648890Y-87733838D01*
X91657602Y-87738496D01*
X91665240Y-87744762D01*
X91671509Y-87752400D01*
X91676167Y-87761115D01*
X91679035Y-87770569D01*
X91680003Y-87780401D01*
X91680003Y-88799601D01*
X91679035Y-88809434D01*
X91676167Y-88818888D01*
X91671509Y-88827602D01*
X91665240Y-88835240D01*
X91657602Y-88841506D01*
X91648890Y-88846165D01*
X91639436Y-88849032D01*
X91629601Y-88850003D01*
X90320404Y-88850003D01*
X90310569Y-88849032D01*
X90301115Y-88846165D01*
X90292403Y-88841506D01*
X90284765Y-88835240D01*
X90278497Y-88827602D01*
X90273838Y-88818888D01*
X90270971Y-88809434D01*
X90270003Y-88799601D01*
X90270003Y-87780401D01*
X90270971Y-87770569D01*
X90273838Y-87761115D01*
X90278497Y-87752400D01*
X90284765Y-87744762D01*
X90292403Y-87738496D01*
X90301115Y-87733838D01*
X90310569Y-87730970D01*
X90320404Y-87730002D01*
X91629601Y-87730002D01*
X91639436Y-87730970D01*
G37*
G36*
X91639436Y-89050970D02*
G01*
X91648890Y-89053838D01*
X91657602Y-89058496D01*
X91665240Y-89064762D01*
X91671509Y-89072400D01*
X91676167Y-89081115D01*
X91679035Y-89090569D01*
X91680003Y-89100401D01*
X91680003Y-90119601D01*
X91679035Y-90129434D01*
X91676167Y-90138888D01*
X91671509Y-90147602D01*
X91665240Y-90155240D01*
X91657602Y-90161506D01*
X91648890Y-90166165D01*
X91639436Y-90169032D01*
X91629601Y-90170003D01*
X90320404Y-90170003D01*
X90310569Y-90169032D01*
X90301115Y-90166165D01*
X90292403Y-90161506D01*
X90284765Y-90155240D01*
X90278497Y-90147602D01*
X90273838Y-90138888D01*
X90270971Y-90129434D01*
X90270003Y-90119601D01*
X90270003Y-89100401D01*
X90270971Y-89090569D01*
X90273838Y-89081115D01*
X90278497Y-89072400D01*
X90284765Y-89064762D01*
X90292403Y-89058496D01*
X90301115Y-89053838D01*
X90310569Y-89050970D01*
X90320404Y-89050002D01*
X91629601Y-89050002D01*
X91639436Y-89050970D01*
G37*
G36*
X88170004Y-85055001D02*
G01*
X88170004Y-87705001D01*
X88120005Y-87755001D01*
X87520003Y-87755001D01*
X87470003Y-87705001D01*
X87470003Y-87555001D01*
X87520003Y-87505002D01*
X87730005Y-87505002D01*
X87780005Y-87455002D01*
X87780005Y-87305002D01*
X87730005Y-87255002D01*
X87520003Y-87255002D01*
X87470003Y-87205002D01*
X87470003Y-87055000D01*
X87520003Y-87005000D01*
X87730005Y-87005000D01*
X87780005Y-86955000D01*
X87780005Y-86805000D01*
X87730005Y-86755000D01*
X87520003Y-86755000D01*
X87470003Y-86705001D01*
X87470003Y-86555001D01*
X87520003Y-86505001D01*
X87730005Y-86505001D01*
X87780005Y-86455001D01*
X87780005Y-86305001D01*
X87730005Y-86255001D01*
X87520003Y-86255001D01*
X87470003Y-86205002D01*
X87470003Y-86055002D01*
X87520003Y-86005002D01*
X87730005Y-86005002D01*
X87780005Y-85955002D01*
X87780005Y-85805000D01*
X87730005Y-85755000D01*
X87520003Y-85755000D01*
X87470003Y-85705000D01*
X87470003Y-85555000D01*
X87520003Y-85505000D01*
X87730005Y-85505000D01*
X87780005Y-85455001D01*
X87780005Y-85305001D01*
X87730005Y-85255001D01*
X87520003Y-85255001D01*
X87470003Y-85205001D01*
X87470003Y-85055001D01*
X87520003Y-85005001D01*
X88120005Y-85005001D01*
X88170004Y-85055001D01*
G37*
G36*
X92870003Y-85055001D02*
G01*
X92870003Y-85205001D01*
X92820003Y-85255001D01*
X92610001Y-85255001D01*
X92560001Y-85305001D01*
X92560001Y-85455001D01*
X92610001Y-85505000D01*
X92820003Y-85505000D01*
X92870003Y-85555000D01*
X92870003Y-85705000D01*
X92820003Y-85755000D01*
X92610001Y-85755000D01*
X92560001Y-85805000D01*
X92560001Y-85955002D01*
X92610001Y-86005002D01*
X92820003Y-86005002D01*
X92870003Y-86055002D01*
X92870003Y-86205002D01*
X92820003Y-86255001D01*
X92610001Y-86255001D01*
X92560001Y-86305001D01*
X92560001Y-86455001D01*
X92610001Y-86505001D01*
X92820003Y-86505001D01*
X92870003Y-86555001D01*
X92870003Y-86705001D01*
X92820003Y-86755000D01*
X92610001Y-86755000D01*
X92560001Y-86805000D01*
X92560001Y-86955000D01*
X92610001Y-87005000D01*
X92820003Y-87005000D01*
X92870003Y-87055000D01*
X92870003Y-87205002D01*
X92820003Y-87255002D01*
X92610001Y-87255002D01*
X92560001Y-87305002D01*
X92560001Y-87455002D01*
X92610001Y-87505002D01*
X92820003Y-87505002D01*
X92870003Y-87555001D01*
X92870003Y-87705001D01*
X92820003Y-87755001D01*
X92220001Y-87755001D01*
X92170002Y-87705001D01*
X92170002Y-85055001D01*
X92220001Y-85005001D01*
X92820003Y-85005001D01*
X92870003Y-85055001D01*
G37*
D10*
X145485200Y-175475000D02*
X146685200Y-175475000D01*
X146685200Y-176425000D01*
X145485200Y-176425000D01*
X145485200Y-175475000D01*
G36*
X145485200Y-175475000D02*
G01*
X146685200Y-175475000D01*
X146685200Y-176425000D01*
X145485200Y-176425000D01*
X145485200Y-175475000D01*
G37*
X145495200Y-177335000D02*
X146695200Y-177335000D01*
X146695200Y-178285000D01*
X145495200Y-178285000D01*
X145495200Y-177335000D01*
G36*
X145495200Y-177335000D02*
G01*
X146695200Y-177335000D01*
X146695200Y-178285000D01*
X145495200Y-178285000D01*
X145495200Y-177335000D01*
G37*
X145505200Y-179165000D02*
X146705200Y-179165000D01*
X146705200Y-180115000D01*
X145505200Y-180115000D01*
X145505200Y-179165000D01*
G36*
X145505200Y-179165000D02*
G01*
X146705200Y-179165000D01*
X146705200Y-180115000D01*
X145505200Y-180115000D01*
X145505200Y-179165000D01*
G37*
X145505200Y-181410000D02*
X146705200Y-181410000D01*
X146705200Y-182520000D01*
X145505200Y-182520000D01*
X145505200Y-181410000D01*
G36*
X145505200Y-181410000D02*
G01*
X146705200Y-181410000D01*
X146705200Y-182520000D01*
X145505200Y-182520000D01*
X145505200Y-181410000D01*
G37*
X147635200Y-175475000D02*
X148835200Y-175475000D01*
X148835200Y-176425000D01*
X147635200Y-176425000D01*
X147635200Y-175475000D01*
G36*
X147635200Y-175475000D02*
G01*
X148835200Y-175475000D01*
X148835200Y-176425000D01*
X147635200Y-176425000D01*
X147635200Y-175475000D01*
G37*
X147645200Y-177335000D02*
X148845200Y-177335000D01*
X148845200Y-178285000D01*
X147645200Y-178285000D01*
X147645200Y-177335000D01*
G36*
X147645200Y-177335000D02*
G01*
X148845200Y-177335000D01*
X148845200Y-178285000D01*
X147645200Y-178285000D01*
X147645200Y-177335000D01*
G37*
X147655200Y-179165000D02*
X148855200Y-179165000D01*
X148855200Y-180115000D01*
X147655200Y-180115000D01*
X147655200Y-179165000D01*
G36*
X147655200Y-179165000D02*
G01*
X148855200Y-179165000D01*
X148855200Y-180115000D01*
X147655200Y-180115000D01*
X147655200Y-179165000D01*
G37*
X147685200Y-181390000D02*
X148885200Y-181390000D01*
X148885200Y-182500000D01*
X147685200Y-182500000D01*
X147685200Y-181390000D01*
G36*
X147685200Y-181390000D02*
G01*
X148885200Y-181390000D01*
X148885200Y-182500000D01*
X147685200Y-182500000D01*
X147685200Y-181390000D01*
G37*
X149825200Y-181380000D02*
X151025200Y-181380000D01*
X151025200Y-182500000D01*
X149825200Y-182500000D01*
X149825200Y-181380000D01*
G36*
X149825200Y-181380000D02*
G01*
X151025200Y-181380000D01*
X151025200Y-182500000D01*
X149825200Y-182500000D01*
X149825200Y-181380000D01*
G37*
X149845200Y-175485000D02*
X151045200Y-175485000D01*
X151045200Y-176435000D01*
X149845200Y-176435000D01*
X149845200Y-175485000D01*
G36*
X149845200Y-175485000D02*
G01*
X151045200Y-175485000D01*
X151045200Y-176435000D01*
X149845200Y-176435000D01*
X149845200Y-175485000D01*
G37*
X149855200Y-177345000D02*
X151055200Y-177345000D01*
X151055200Y-178295000D01*
X149855200Y-178295000D01*
X149855200Y-177345000D01*
G36*
X149855200Y-177345000D02*
G01*
X151055200Y-177345000D01*
X151055200Y-178295000D01*
X149855200Y-178295000D01*
X149855200Y-177345000D01*
G37*
X149865200Y-179175000D02*
X151065200Y-179175000D01*
X151065200Y-180125000D01*
X149865200Y-180125000D01*
X149865200Y-179175000D01*
G36*
X149865200Y-179175000D02*
G01*
X151065200Y-179175000D01*
X151065200Y-180125000D01*
X149865200Y-180125000D01*
X149865200Y-179175000D01*
G37*
D11*
G36*
X90029437Y-74930968D02*
G01*
X90038891Y-74933835D01*
X90047603Y-74938494D01*
X90055241Y-74944760D01*
X90061509Y-74952398D01*
X90066168Y-74961112D01*
X90069035Y-74970566D01*
X90070003Y-74980399D01*
X90070003Y-75999599D01*
X90069035Y-76009431D01*
X90066168Y-76018885D01*
X90061509Y-76027600D01*
X90055241Y-76035238D01*
X90047603Y-76041504D01*
X90038891Y-76046162D01*
X90029437Y-76049030D01*
X90019602Y-76049998D01*
X88710405Y-76049998D01*
X88700570Y-76049030D01*
X88691116Y-76046162D01*
X88682404Y-76041504D01*
X88674766Y-76035238D01*
X88668497Y-76027600D01*
X88663839Y-76018885D01*
X88660971Y-76009431D01*
X88660003Y-75999599D01*
X88660003Y-74980399D01*
X88660971Y-74970566D01*
X88663839Y-74961112D01*
X88668497Y-74952398D01*
X88674766Y-74944760D01*
X88682404Y-74938494D01*
X88691116Y-74933835D01*
X88700570Y-74930968D01*
X88710405Y-74929997D01*
X90019602Y-74929997D01*
X90029437Y-74930968D01*
G37*
G36*
X90029437Y-76250968D02*
G01*
X90038891Y-76253835D01*
X90047603Y-76258494D01*
X90055241Y-76264760D01*
X90061509Y-76272398D01*
X90066168Y-76281112D01*
X90069035Y-76290566D01*
X90070003Y-76300399D01*
X90070003Y-77319599D01*
X90069035Y-77329431D01*
X90066168Y-77338885D01*
X90061509Y-77347600D01*
X90055241Y-77355238D01*
X90047603Y-77361504D01*
X90038891Y-77366162D01*
X90029437Y-77369030D01*
X90019602Y-77369998D01*
X88710405Y-77369998D01*
X88700570Y-77369030D01*
X88691116Y-77366162D01*
X88682404Y-77361504D01*
X88674766Y-77355238D01*
X88668497Y-77347600D01*
X88663839Y-77338885D01*
X88660971Y-77329431D01*
X88660003Y-77319599D01*
X88660003Y-76300399D01*
X88660971Y-76290566D01*
X88663839Y-76281112D01*
X88668497Y-76272398D01*
X88674766Y-76264760D01*
X88682404Y-76258494D01*
X88691116Y-76253835D01*
X88700570Y-76250968D01*
X88710405Y-76249997D01*
X90019602Y-76249997D01*
X90029437Y-76250968D01*
G37*
G36*
X90029437Y-77570970D02*
G01*
X90038891Y-77573838D01*
X90047603Y-77578496D01*
X90055241Y-77584762D01*
X90061509Y-77592400D01*
X90066168Y-77601115D01*
X90069035Y-77610569D01*
X90070003Y-77620401D01*
X90070003Y-78639601D01*
X90069035Y-78649434D01*
X90066168Y-78658888D01*
X90061509Y-78667602D01*
X90055241Y-78675240D01*
X90047603Y-78681506D01*
X90038891Y-78686165D01*
X90029437Y-78689032D01*
X90019602Y-78690003D01*
X88710405Y-78690003D01*
X88700570Y-78689032D01*
X88691116Y-78686165D01*
X88682404Y-78681506D01*
X88674766Y-78675240D01*
X88668497Y-78667602D01*
X88663839Y-78658888D01*
X88660971Y-78649434D01*
X88660003Y-78639601D01*
X88660003Y-77620401D01*
X88660971Y-77610569D01*
X88663839Y-77601115D01*
X88668497Y-77592400D01*
X88674766Y-77584762D01*
X88682404Y-77578496D01*
X88691116Y-77573838D01*
X88700570Y-77570970D01*
X88710405Y-77570002D01*
X90019602Y-77570002D01*
X90029437Y-77570970D01*
G37*
G36*
X90029437Y-78890970D02*
G01*
X90038891Y-78893838D01*
X90047603Y-78898496D01*
X90055241Y-78904762D01*
X90061509Y-78912400D01*
X90066168Y-78921115D01*
X90069035Y-78930569D01*
X90070003Y-78940401D01*
X90070003Y-79959601D01*
X90069035Y-79969434D01*
X90066168Y-79978888D01*
X90061509Y-79987602D01*
X90055241Y-79995240D01*
X90047603Y-80001506D01*
X90038891Y-80006165D01*
X90029437Y-80009032D01*
X90019602Y-80010003D01*
X88710405Y-80010003D01*
X88700570Y-80009032D01*
X88691116Y-80006165D01*
X88682404Y-80001506D01*
X88674766Y-79995240D01*
X88668497Y-79987602D01*
X88663839Y-79978888D01*
X88660971Y-79969434D01*
X88660003Y-79959601D01*
X88660003Y-78940401D01*
X88660971Y-78930569D01*
X88663839Y-78921115D01*
X88668497Y-78912400D01*
X88674766Y-78904762D01*
X88682404Y-78898496D01*
X88691116Y-78893838D01*
X88700570Y-78890970D01*
X88710405Y-78890002D01*
X90019602Y-78890002D01*
X90029437Y-78890970D01*
G37*
G36*
X91639436Y-74930968D02*
G01*
X91648890Y-74933835D01*
X91657602Y-74938494D01*
X91665240Y-74944760D01*
X91671509Y-74952398D01*
X91676167Y-74961112D01*
X91679035Y-74970566D01*
X91680003Y-74980399D01*
X91680003Y-75999599D01*
X91679035Y-76009431D01*
X91676167Y-76018885D01*
X91671509Y-76027600D01*
X91665240Y-76035238D01*
X91657602Y-76041504D01*
X91648890Y-76046162D01*
X91639436Y-76049030D01*
X91629601Y-76049998D01*
X90320404Y-76049998D01*
X90310569Y-76049030D01*
X90301115Y-76046162D01*
X90292403Y-76041504D01*
X90284765Y-76035238D01*
X90278497Y-76027600D01*
X90273838Y-76018885D01*
X90270971Y-76009431D01*
X90270003Y-75999599D01*
X90270003Y-74980399D01*
X90270971Y-74970566D01*
X90273838Y-74961112D01*
X90278497Y-74952398D01*
X90284765Y-74944760D01*
X90292403Y-74938494D01*
X90301115Y-74933835D01*
X90310569Y-74930968D01*
X90320404Y-74929997D01*
X91629601Y-74929997D01*
X91639436Y-74930968D01*
G37*
G36*
X91639436Y-76250968D02*
G01*
X91648890Y-76253835D01*
X91657602Y-76258494D01*
X91665240Y-76264760D01*
X91671509Y-76272398D01*
X91676167Y-76281112D01*
X91679035Y-76290566D01*
X91680003Y-76300399D01*
X91680003Y-77319599D01*
X91679035Y-77329431D01*
X91676167Y-77338885D01*
X91671509Y-77347600D01*
X91665240Y-77355238D01*
X91657602Y-77361504D01*
X91648890Y-77366162D01*
X91639436Y-77369030D01*
X91629601Y-77369998D01*
X90320404Y-77369998D01*
X90310569Y-77369030D01*
X90301115Y-77366162D01*
X90292403Y-77361504D01*
X90284765Y-77355238D01*
X90278497Y-77347600D01*
X90273838Y-77338885D01*
X90270971Y-77329431D01*
X90270003Y-77319599D01*
X90270003Y-76300399D01*
X90270971Y-76290566D01*
X90273838Y-76281112D01*
X90278497Y-76272398D01*
X90284765Y-76264760D01*
X90292403Y-76258494D01*
X90301115Y-76253835D01*
X90310569Y-76250968D01*
X90320404Y-76249997D01*
X91629601Y-76249997D01*
X91639436Y-76250968D01*
G37*
G36*
X91639436Y-77570970D02*
G01*
X91648890Y-77573838D01*
X91657602Y-77578496D01*
X91665240Y-77584762D01*
X91671509Y-77592400D01*
X91676167Y-77601115D01*
X91679035Y-77610569D01*
X91680003Y-77620401D01*
X91680003Y-78639601D01*
X91679035Y-78649434D01*
X91676167Y-78658888D01*
X91671509Y-78667602D01*
X91665240Y-78675240D01*
X91657602Y-78681506D01*
X91648890Y-78686165D01*
X91639436Y-78689032D01*
X91629601Y-78690003D01*
X90320404Y-78690003D01*
X90310569Y-78689032D01*
X90301115Y-78686165D01*
X90292403Y-78681506D01*
X90284765Y-78675240D01*
X90278497Y-78667602D01*
X90273838Y-78658888D01*
X90270971Y-78649434D01*
X90270003Y-78639601D01*
X90270003Y-77620401D01*
X90270971Y-77610569D01*
X90273838Y-77601115D01*
X90278497Y-77592400D01*
X90284765Y-77584762D01*
X90292403Y-77578496D01*
X90301115Y-77573838D01*
X90310569Y-77570970D01*
X90320404Y-77570002D01*
X91629601Y-77570002D01*
X91639436Y-77570970D01*
G37*
G36*
X91639436Y-78890970D02*
G01*
X91648890Y-78893838D01*
X91657602Y-78898496D01*
X91665240Y-78904762D01*
X91671509Y-78912400D01*
X91676167Y-78921115D01*
X91679035Y-78930569D01*
X91680003Y-78940401D01*
X91680003Y-79959601D01*
X91679035Y-79969434D01*
X91676167Y-79978888D01*
X91671509Y-79987602D01*
X91665240Y-79995240D01*
X91657602Y-80001506D01*
X91648890Y-80006165D01*
X91639436Y-80009032D01*
X91629601Y-80010003D01*
X90320404Y-80010003D01*
X90310569Y-80009032D01*
X90301115Y-80006165D01*
X90292403Y-80001506D01*
X90284765Y-79995240D01*
X90278497Y-79987602D01*
X90273838Y-79978888D01*
X90270971Y-79969434D01*
X90270003Y-79959601D01*
X90270003Y-78940401D01*
X90270971Y-78930569D01*
X90273838Y-78921115D01*
X90278497Y-78912400D01*
X90284765Y-78904762D01*
X90292403Y-78898496D01*
X90301115Y-78893838D01*
X90310569Y-78890970D01*
X90320404Y-78890002D01*
X91629601Y-78890002D01*
X91639436Y-78890970D01*
G37*
G36*
X88170004Y-74895001D02*
G01*
X88170004Y-77545001D01*
X88120005Y-77595001D01*
X87520003Y-77595001D01*
X87470003Y-77545001D01*
X87470003Y-77395001D01*
X87520003Y-77345002D01*
X87730005Y-77345002D01*
X87780005Y-77295002D01*
X87780005Y-77145002D01*
X87730005Y-77095002D01*
X87520003Y-77095002D01*
X87470003Y-77045002D01*
X87470003Y-76895000D01*
X87520003Y-76845000D01*
X87730005Y-76845000D01*
X87780005Y-76795000D01*
X87780005Y-76645000D01*
X87730005Y-76595000D01*
X87520003Y-76595000D01*
X87470003Y-76545001D01*
X87470003Y-76395001D01*
X87520003Y-76345001D01*
X87730005Y-76345001D01*
X87780005Y-76295001D01*
X87780005Y-76145001D01*
X87730005Y-76095001D01*
X87520003Y-76095001D01*
X87470003Y-76045002D01*
X87470003Y-75895002D01*
X87520003Y-75845002D01*
X87730005Y-75845002D01*
X87780005Y-75795002D01*
X87780005Y-75645000D01*
X87730005Y-75595000D01*
X87520003Y-75595000D01*
X87470003Y-75545000D01*
X87470003Y-75395000D01*
X87520003Y-75345000D01*
X87730005Y-75345000D01*
X87780005Y-75295001D01*
X87780005Y-75145001D01*
X87730005Y-75095001D01*
X87520003Y-75095001D01*
X87470003Y-75045001D01*
X87470003Y-74895001D01*
X87520003Y-74845001D01*
X88120005Y-74845001D01*
X88170004Y-74895001D01*
G37*
G36*
X92870003Y-74895001D02*
G01*
X92870003Y-75045001D01*
X92820003Y-75095001D01*
X92610001Y-75095001D01*
X92560001Y-75145001D01*
X92560001Y-75295001D01*
X92610001Y-75345000D01*
X92820003Y-75345000D01*
X92870003Y-75395000D01*
X92870003Y-75545000D01*
X92820003Y-75595000D01*
X92610001Y-75595000D01*
X92560001Y-75645000D01*
X92560001Y-75795002D01*
X92610001Y-75845002D01*
X92820003Y-75845002D01*
X92870003Y-75895002D01*
X92870003Y-76045002D01*
X92820003Y-76095001D01*
X92610001Y-76095001D01*
X92560001Y-76145001D01*
X92560001Y-76295001D01*
X92610001Y-76345001D01*
X92820003Y-76345001D01*
X92870003Y-76395001D01*
X92870003Y-76545001D01*
X92820003Y-76595000D01*
X92610001Y-76595000D01*
X92560001Y-76645000D01*
X92560001Y-76795000D01*
X92610001Y-76845000D01*
X92820003Y-76845000D01*
X92870003Y-76895000D01*
X92870003Y-77045002D01*
X92820003Y-77095002D01*
X92610001Y-77095002D01*
X92560001Y-77145002D01*
X92560001Y-77295002D01*
X92610001Y-77345002D01*
X92820003Y-77345002D01*
X92870003Y-77395001D01*
X92870003Y-77545001D01*
X92820003Y-77595001D01*
X92220001Y-77595001D01*
X92170002Y-77545001D01*
X92170002Y-74895001D01*
X92220001Y-74845001D01*
X92820003Y-74845001D01*
X92870003Y-74895001D01*
G37*
G36*
X90029437Y-54610968D02*
G01*
X90038891Y-54613835D01*
X90047603Y-54618494D01*
X90055241Y-54624760D01*
X90061509Y-54632398D01*
X90066168Y-54641112D01*
X90069035Y-54650566D01*
X90070003Y-54660399D01*
X90070003Y-55679599D01*
X90069035Y-55689431D01*
X90066168Y-55698885D01*
X90061509Y-55707600D01*
X90055241Y-55715238D01*
X90047603Y-55721504D01*
X90038891Y-55726162D01*
X90029437Y-55729030D01*
X90019602Y-55729998D01*
X88710405Y-55729998D01*
X88700570Y-55729030D01*
X88691116Y-55726162D01*
X88682404Y-55721504D01*
X88674766Y-55715238D01*
X88668497Y-55707600D01*
X88663839Y-55698885D01*
X88660971Y-55689431D01*
X88660003Y-55679599D01*
X88660003Y-54660399D01*
X88660971Y-54650566D01*
X88663839Y-54641112D01*
X88668497Y-54632398D01*
X88674766Y-54624760D01*
X88682404Y-54618494D01*
X88691116Y-54613835D01*
X88700570Y-54610968D01*
X88710405Y-54609997D01*
X90019602Y-54609997D01*
X90029437Y-54610968D01*
G37*
G36*
X90029437Y-55930968D02*
G01*
X90038891Y-55933835D01*
X90047603Y-55938494D01*
X90055241Y-55944760D01*
X90061509Y-55952398D01*
X90066168Y-55961112D01*
X90069035Y-55970566D01*
X90070003Y-55980399D01*
X90070003Y-56999599D01*
X90069035Y-57009431D01*
X90066168Y-57018885D01*
X90061509Y-57027600D01*
X90055241Y-57035238D01*
X90047603Y-57041504D01*
X90038891Y-57046162D01*
X90029437Y-57049030D01*
X90019602Y-57049998D01*
X88710405Y-57049998D01*
X88700570Y-57049030D01*
X88691116Y-57046162D01*
X88682404Y-57041504D01*
X88674766Y-57035238D01*
X88668497Y-57027600D01*
X88663839Y-57018885D01*
X88660971Y-57009431D01*
X88660003Y-56999599D01*
X88660003Y-55980399D01*
X88660971Y-55970566D01*
X88663839Y-55961112D01*
X88668497Y-55952398D01*
X88674766Y-55944760D01*
X88682404Y-55938494D01*
X88691116Y-55933835D01*
X88700570Y-55930968D01*
X88710405Y-55929997D01*
X90019602Y-55929997D01*
X90029437Y-55930968D01*
G37*
G36*
X90029437Y-57250970D02*
G01*
X90038891Y-57253838D01*
X90047603Y-57258496D01*
X90055241Y-57264762D01*
X90061509Y-57272400D01*
X90066168Y-57281115D01*
X90069035Y-57290569D01*
X90070003Y-57300401D01*
X90070003Y-58319601D01*
X90069035Y-58329434D01*
X90066168Y-58338888D01*
X90061509Y-58347602D01*
X90055241Y-58355240D01*
X90047603Y-58361506D01*
X90038891Y-58366165D01*
X90029437Y-58369032D01*
X90019602Y-58370003D01*
X88710405Y-58370003D01*
X88700570Y-58369032D01*
X88691116Y-58366165D01*
X88682404Y-58361506D01*
X88674766Y-58355240D01*
X88668497Y-58347602D01*
X88663839Y-58338888D01*
X88660971Y-58329434D01*
X88660003Y-58319601D01*
X88660003Y-57300401D01*
X88660971Y-57290569D01*
X88663839Y-57281115D01*
X88668497Y-57272400D01*
X88674766Y-57264762D01*
X88682404Y-57258496D01*
X88691116Y-57253838D01*
X88700570Y-57250970D01*
X88710405Y-57250002D01*
X90019602Y-57250002D01*
X90029437Y-57250970D01*
G37*
G36*
X90029437Y-58570970D02*
G01*
X90038891Y-58573838D01*
X90047603Y-58578496D01*
X90055241Y-58584762D01*
X90061509Y-58592400D01*
X90066168Y-58601115D01*
X90069035Y-58610569D01*
X90070003Y-58620401D01*
X90070003Y-59639601D01*
X90069035Y-59649434D01*
X90066168Y-59658888D01*
X90061509Y-59667602D01*
X90055241Y-59675240D01*
X90047603Y-59681506D01*
X90038891Y-59686165D01*
X90029437Y-59689032D01*
X90019602Y-59690003D01*
X88710405Y-59690003D01*
X88700570Y-59689032D01*
X88691116Y-59686165D01*
X88682404Y-59681506D01*
X88674766Y-59675240D01*
X88668497Y-59667602D01*
X88663839Y-59658888D01*
X88660971Y-59649434D01*
X88660003Y-59639601D01*
X88660003Y-58620401D01*
X88660971Y-58610569D01*
X88663839Y-58601115D01*
X88668497Y-58592400D01*
X88674766Y-58584762D01*
X88682404Y-58578496D01*
X88691116Y-58573838D01*
X88700570Y-58570970D01*
X88710405Y-58570002D01*
X90019602Y-58570002D01*
X90029437Y-58570970D01*
G37*
G36*
X91639436Y-54610968D02*
G01*
X91648890Y-54613835D01*
X91657602Y-54618494D01*
X91665240Y-54624760D01*
X91671509Y-54632398D01*
X91676167Y-54641112D01*
X91679035Y-54650566D01*
X91680003Y-54660399D01*
X91680003Y-55679599D01*
X91679035Y-55689431D01*
X91676167Y-55698885D01*
X91671509Y-55707600D01*
X91665240Y-55715238D01*
X91657602Y-55721504D01*
X91648890Y-55726162D01*
X91639436Y-55729030D01*
X91629601Y-55729998D01*
X90320404Y-55729998D01*
X90310569Y-55729030D01*
X90301115Y-55726162D01*
X90292403Y-55721504D01*
X90284765Y-55715238D01*
X90278497Y-55707600D01*
X90273838Y-55698885D01*
X90270971Y-55689431D01*
X90270003Y-55679599D01*
X90270003Y-54660399D01*
X90270971Y-54650566D01*
X90273838Y-54641112D01*
X90278497Y-54632398D01*
X90284765Y-54624760D01*
X90292403Y-54618494D01*
X90301115Y-54613835D01*
X90310569Y-54610968D01*
X90320404Y-54609997D01*
X91629601Y-54609997D01*
X91639436Y-54610968D01*
G37*
G36*
X91639436Y-55930968D02*
G01*
X91648890Y-55933835D01*
X91657602Y-55938494D01*
X91665240Y-55944760D01*
X91671509Y-55952398D01*
X91676167Y-55961112D01*
X91679035Y-55970566D01*
X91680003Y-55980399D01*
X91680003Y-56999599D01*
X91679035Y-57009431D01*
X91676167Y-57018885D01*
X91671509Y-57027600D01*
X91665240Y-57035238D01*
X91657602Y-57041504D01*
X91648890Y-57046162D01*
X91639436Y-57049030D01*
X91629601Y-57049998D01*
X90320404Y-57049998D01*
X90310569Y-57049030D01*
X90301115Y-57046162D01*
X90292403Y-57041504D01*
X90284765Y-57035238D01*
X90278497Y-57027600D01*
X90273838Y-57018885D01*
X90270971Y-57009431D01*
X90270003Y-56999599D01*
X90270003Y-55980399D01*
X90270971Y-55970566D01*
X90273838Y-55961112D01*
X90278497Y-55952398D01*
X90284765Y-55944760D01*
X90292403Y-55938494D01*
X90301115Y-55933835D01*
X90310569Y-55930968D01*
X90320404Y-55929997D01*
X91629601Y-55929997D01*
X91639436Y-55930968D01*
G37*
G36*
X91639436Y-57250970D02*
G01*
X91648890Y-57253838D01*
X91657602Y-57258496D01*
X91665240Y-57264762D01*
X91671509Y-57272400D01*
X91676167Y-57281115D01*
X91679035Y-57290569D01*
X91680003Y-57300401D01*
X91680003Y-58319601D01*
X91679035Y-58329434D01*
X91676167Y-58338888D01*
X91671509Y-58347602D01*
X91665240Y-58355240D01*
X91657602Y-58361506D01*
X91648890Y-58366165D01*
X91639436Y-58369032D01*
X91629601Y-58370003D01*
X90320404Y-58370003D01*
X90310569Y-58369032D01*
X90301115Y-58366165D01*
X90292403Y-58361506D01*
X90284765Y-58355240D01*
X90278497Y-58347602D01*
X90273838Y-58338888D01*
X90270971Y-58329434D01*
X90270003Y-58319601D01*
X90270003Y-57300401D01*
X90270971Y-57290569D01*
X90273838Y-57281115D01*
X90278497Y-57272400D01*
X90284765Y-57264762D01*
X90292403Y-57258496D01*
X90301115Y-57253838D01*
X90310569Y-57250970D01*
X90320404Y-57250002D01*
X91629601Y-57250002D01*
X91639436Y-57250970D01*
G37*
G36*
X91639436Y-58570970D02*
G01*
X91648890Y-58573838D01*
X91657602Y-58578496D01*
X91665240Y-58584762D01*
X91671509Y-58592400D01*
X91676167Y-58601115D01*
X91679035Y-58610569D01*
X91680003Y-58620401D01*
X91680003Y-59639601D01*
X91679035Y-59649434D01*
X91676167Y-59658888D01*
X91671509Y-59667602D01*
X91665240Y-59675240D01*
X91657602Y-59681506D01*
X91648890Y-59686165D01*
X91639436Y-59689032D01*
X91629601Y-59690003D01*
X90320404Y-59690003D01*
X90310569Y-59689032D01*
X90301115Y-59686165D01*
X90292403Y-59681506D01*
X90284765Y-59675240D01*
X90278497Y-59667602D01*
X90273838Y-59658888D01*
X90270971Y-59649434D01*
X90270003Y-59639601D01*
X90270003Y-58620401D01*
X90270971Y-58610569D01*
X90273838Y-58601115D01*
X90278497Y-58592400D01*
X90284765Y-58584762D01*
X90292403Y-58578496D01*
X90301115Y-58573838D01*
X90310569Y-58570970D01*
X90320404Y-58570002D01*
X91629601Y-58570002D01*
X91639436Y-58570970D01*
G37*
G36*
X88170004Y-54575001D02*
G01*
X88170004Y-57225001D01*
X88120005Y-57275001D01*
X87520003Y-57275001D01*
X87470003Y-57225001D01*
X87470003Y-57075001D01*
X87520003Y-57025002D01*
X87730005Y-57025002D01*
X87780005Y-56975002D01*
X87780005Y-56825002D01*
X87730005Y-56775002D01*
X87520003Y-56775002D01*
X87470003Y-56725002D01*
X87470003Y-56575000D01*
X87520003Y-56525000D01*
X87730005Y-56525000D01*
X87780005Y-56475000D01*
X87780005Y-56325000D01*
X87730005Y-56275000D01*
X87520003Y-56275000D01*
X87470003Y-56225001D01*
X87470003Y-56075001D01*
X87520003Y-56025001D01*
X87730005Y-56025001D01*
X87780005Y-55975001D01*
X87780005Y-55825001D01*
X87730005Y-55775001D01*
X87520003Y-55775001D01*
X87470003Y-55725002D01*
X87470003Y-55575002D01*
X87520003Y-55525002D01*
X87730005Y-55525002D01*
X87780005Y-55475002D01*
X87780005Y-55325000D01*
X87730005Y-55275000D01*
X87520003Y-55275000D01*
X87470003Y-55225000D01*
X87470003Y-55075000D01*
X87520003Y-55025000D01*
X87730005Y-55025000D01*
X87780005Y-54975001D01*
X87780005Y-54825001D01*
X87730005Y-54775001D01*
X87520003Y-54775001D01*
X87470003Y-54725001D01*
X87470003Y-54575001D01*
X87520003Y-54525001D01*
X88120005Y-54525001D01*
X88170004Y-54575001D01*
G37*
G36*
X92870003Y-54575001D02*
G01*
X92870003Y-54725001D01*
X92820003Y-54775001D01*
X92610001Y-54775001D01*
X92560001Y-54825001D01*
X92560001Y-54975001D01*
X92610001Y-55025000D01*
X92820003Y-55025000D01*
X92870003Y-55075000D01*
X92870003Y-55225000D01*
X92820003Y-55275000D01*
X92610001Y-55275000D01*
X92560001Y-55325000D01*
X92560001Y-55475002D01*
X92610001Y-55525002D01*
X92820003Y-55525002D01*
X92870003Y-55575002D01*
X92870003Y-55725002D01*
X92820003Y-55775001D01*
X92610001Y-55775001D01*
X92560001Y-55825001D01*
X92560001Y-55975001D01*
X92610001Y-56025001D01*
X92820003Y-56025001D01*
X92870003Y-56075001D01*
X92870003Y-56225001D01*
X92820003Y-56275000D01*
X92610001Y-56275000D01*
X92560001Y-56325000D01*
X92560001Y-56475000D01*
X92610001Y-56525000D01*
X92820003Y-56525000D01*
X92870003Y-56575000D01*
X92870003Y-56725002D01*
X92820003Y-56775002D01*
X92610001Y-56775002D01*
X92560001Y-56825002D01*
X92560001Y-56975002D01*
X92610001Y-57025002D01*
X92820003Y-57025002D01*
X92870003Y-57075001D01*
X92870003Y-57225001D01*
X92820003Y-57275001D01*
X92220001Y-57275001D01*
X92170002Y-57225001D01*
X92170002Y-54575001D01*
X92220001Y-54525001D01*
X92820003Y-54525001D01*
X92870003Y-54575001D01*
G37*
D10*
X122257732Y-135951667D02*
X121057732Y-135951667D01*
X121057732Y-135001667D01*
X122257732Y-135001667D01*
X122257732Y-135951667D01*
G36*
X122257732Y-135951667D02*
G01*
X121057732Y-135951667D01*
X121057732Y-135001667D01*
X122257732Y-135001667D01*
X122257732Y-135951667D01*
G37*
X122267732Y-137781667D02*
X121067732Y-137781667D01*
X121067732Y-136831667D01*
X122267732Y-136831667D01*
X122267732Y-137781667D01*
G36*
X122267732Y-137781667D02*
G01*
X121067732Y-137781667D01*
X121067732Y-136831667D01*
X122267732Y-136831667D01*
X122267732Y-137781667D01*
G37*
X122277732Y-139641667D02*
X121077732Y-139641667D01*
X121077732Y-138691667D01*
X122277732Y-138691667D01*
X122277732Y-139641667D01*
G36*
X122277732Y-139641667D02*
G01*
X121077732Y-139641667D01*
X121077732Y-138691667D01*
X122277732Y-138691667D01*
X122277732Y-139641667D01*
G37*
X122297732Y-133746667D02*
X121097732Y-133746667D01*
X121097732Y-132626667D01*
X122297732Y-132626667D01*
X122297732Y-133746667D01*
G36*
X122297732Y-133746667D02*
G01*
X121097732Y-133746667D01*
X121097732Y-132626667D01*
X122297732Y-132626667D01*
X122297732Y-133746667D01*
G37*
X124437732Y-133736667D02*
X123237732Y-133736667D01*
X123237732Y-132626667D01*
X124437732Y-132626667D01*
X124437732Y-133736667D01*
G36*
X124437732Y-133736667D02*
G01*
X123237732Y-133736667D01*
X123237732Y-132626667D01*
X124437732Y-132626667D01*
X124437732Y-133736667D01*
G37*
X124467732Y-135961667D02*
X123267732Y-135961667D01*
X123267732Y-135011667D01*
X124467732Y-135011667D01*
X124467732Y-135961667D01*
G36*
X124467732Y-135961667D02*
G01*
X123267732Y-135961667D01*
X123267732Y-135011667D01*
X124467732Y-135011667D01*
X124467732Y-135961667D01*
G37*
X124477732Y-137791667D02*
X123277732Y-137791667D01*
X123277732Y-136841667D01*
X124477732Y-136841667D01*
X124477732Y-137791667D01*
G36*
X124477732Y-137791667D02*
G01*
X123277732Y-137791667D01*
X123277732Y-136841667D01*
X124477732Y-136841667D01*
X124477732Y-137791667D01*
G37*
X124487732Y-139651667D02*
X123287732Y-139651667D01*
X123287732Y-138701667D01*
X124487732Y-138701667D01*
X124487732Y-139651667D01*
G36*
X124487732Y-139651667D02*
G01*
X123287732Y-139651667D01*
X123287732Y-138701667D01*
X124487732Y-138701667D01*
X124487732Y-139651667D01*
G37*
X126617732Y-133716667D02*
X125417732Y-133716667D01*
X125417732Y-132606667D01*
X126617732Y-132606667D01*
X126617732Y-133716667D01*
G36*
X126617732Y-133716667D02*
G01*
X125417732Y-133716667D01*
X125417732Y-132606667D01*
X126617732Y-132606667D01*
X126617732Y-133716667D01*
G37*
X126617732Y-135961667D02*
X125417732Y-135961667D01*
X125417732Y-135011667D01*
X126617732Y-135011667D01*
X126617732Y-135961667D01*
G36*
X126617732Y-135961667D02*
G01*
X125417732Y-135961667D01*
X125417732Y-135011667D01*
X126617732Y-135011667D01*
X126617732Y-135961667D01*
G37*
X126627732Y-137791667D02*
X125427732Y-137791667D01*
X125427732Y-136841667D01*
X126627732Y-136841667D01*
X126627732Y-137791667D01*
G36*
X126627732Y-137791667D02*
G01*
X125427732Y-137791667D01*
X125427732Y-136841667D01*
X126627732Y-136841667D01*
X126627732Y-137791667D01*
G37*
X126637732Y-139651667D02*
X125437732Y-139651667D01*
X125437732Y-138701667D01*
X126637732Y-138701667D01*
X126637732Y-139651667D01*
G36*
X126637732Y-139651667D02*
G01*
X125437732Y-139651667D01*
X125437732Y-138701667D01*
X126637732Y-138701667D01*
X126637732Y-139651667D01*
G37*
X73121466Y-135951667D02*
X71921466Y-135951667D01*
X71921466Y-135001667D01*
X73121466Y-135001667D01*
X73121466Y-135951667D01*
G36*
X73121466Y-135951667D02*
G01*
X71921466Y-135951667D01*
X71921466Y-135001667D01*
X73121466Y-135001667D01*
X73121466Y-135951667D01*
G37*
X73131466Y-137781667D02*
X71931466Y-137781667D01*
X71931466Y-136831667D01*
X73131466Y-136831667D01*
X73131466Y-137781667D01*
G36*
X73131466Y-137781667D02*
G01*
X71931466Y-137781667D01*
X71931466Y-136831667D01*
X73131466Y-136831667D01*
X73131466Y-137781667D01*
G37*
X73141466Y-139641667D02*
X71941466Y-139641667D01*
X71941466Y-138691667D01*
X73141466Y-138691667D01*
X73141466Y-139641667D01*
G36*
X73141466Y-139641667D02*
G01*
X71941466Y-139641667D01*
X71941466Y-138691667D01*
X73141466Y-138691667D01*
X73141466Y-139641667D01*
G37*
X73161466Y-133746667D02*
X71961466Y-133746667D01*
X71961466Y-132626667D01*
X73161466Y-132626667D01*
X73161466Y-133746667D01*
G36*
X73161466Y-133746667D02*
G01*
X71961466Y-133746667D01*
X71961466Y-132626667D01*
X73161466Y-132626667D01*
X73161466Y-133746667D01*
G37*
X75301466Y-133736667D02*
X74101466Y-133736667D01*
X74101466Y-132626667D01*
X75301466Y-132626667D01*
X75301466Y-133736667D01*
G36*
X75301466Y-133736667D02*
G01*
X74101466Y-133736667D01*
X74101466Y-132626667D01*
X75301466Y-132626667D01*
X75301466Y-133736667D01*
G37*
X75331466Y-135961667D02*
X74131466Y-135961667D01*
X74131466Y-135011667D01*
X75331466Y-135011667D01*
X75331466Y-135961667D01*
G36*
X75331466Y-135961667D02*
G01*
X74131466Y-135961667D01*
X74131466Y-135011667D01*
X75331466Y-135011667D01*
X75331466Y-135961667D01*
G37*
X75341466Y-137791667D02*
X74141466Y-137791667D01*
X74141466Y-136841667D01*
X75341466Y-136841667D01*
X75341466Y-137791667D01*
G36*
X75341466Y-137791667D02*
G01*
X74141466Y-137791667D01*
X74141466Y-136841667D01*
X75341466Y-136841667D01*
X75341466Y-137791667D01*
G37*
X75351466Y-139651667D02*
X74151466Y-139651667D01*
X74151466Y-138701667D01*
X75351466Y-138701667D01*
X75351466Y-139651667D01*
G36*
X75351466Y-139651667D02*
G01*
X74151466Y-139651667D01*
X74151466Y-138701667D01*
X75351466Y-138701667D01*
X75351466Y-139651667D01*
G37*
X77481466Y-133716667D02*
X76281466Y-133716667D01*
X76281466Y-132606667D01*
X77481466Y-132606667D01*
X77481466Y-133716667D01*
G36*
X77481466Y-133716667D02*
G01*
X76281466Y-133716667D01*
X76281466Y-132606667D01*
X77481466Y-132606667D01*
X77481466Y-133716667D01*
G37*
X77481466Y-135961667D02*
X76281466Y-135961667D01*
X76281466Y-135011667D01*
X77481466Y-135011667D01*
X77481466Y-135961667D01*
G36*
X77481466Y-135961667D02*
G01*
X76281466Y-135961667D01*
X76281466Y-135011667D01*
X77481466Y-135011667D01*
X77481466Y-135961667D01*
G37*
X77491466Y-137791667D02*
X76291466Y-137791667D01*
X76291466Y-136841667D01*
X77491466Y-136841667D01*
X77491466Y-137791667D01*
G36*
X77491466Y-137791667D02*
G01*
X76291466Y-137791667D01*
X76291466Y-136841667D01*
X77491466Y-136841667D01*
X77491466Y-137791667D01*
G37*
X77501466Y-139651667D02*
X76301466Y-139651667D01*
X76301466Y-138701667D01*
X77501466Y-138701667D01*
X77501466Y-139651667D01*
G36*
X77501466Y-139651667D02*
G01*
X76301466Y-139651667D01*
X76301466Y-138701667D01*
X77501466Y-138701667D01*
X77501466Y-139651667D01*
G37*
D13*
X97028000Y-79060000D03*
X97028000Y-80960000D03*
D14*
X45556000Y-94742000D03*
X43656000Y-94742000D03*
D15*
X141628500Y-42418000D03*
X139803500Y-42418000D03*
D16*
X97094000Y-43180000D03*
X98994000Y-43180000D03*
D17*
X169775500Y-54102000D03*
X171600500Y-54102000D03*
D16*
X51784000Y-94742000D03*
X53684000Y-94742000D03*
D18*
X125714000Y-105912500D03*
X125714000Y-104087500D03*
D17*
X139803500Y-36576000D03*
X141628500Y-36576000D03*
D19*
X102745000Y-86360000D03*
X110615000Y-86360000D03*
D20*
X169058000Y-132572667D03*
X169058000Y-133074667D03*
X169058000Y-133576667D03*
X169058000Y-134078667D03*
X169058000Y-134580667D03*
X169058000Y-135082667D03*
X169058000Y-135584667D03*
X169058000Y-136086667D03*
X169058000Y-136588667D03*
X169058000Y-137090667D03*
X169058000Y-137592667D03*
X169058000Y-138094667D03*
X169058000Y-138596667D03*
X169058000Y-139098667D03*
X169058000Y-139600667D03*
X176890000Y-139600667D03*
X176890000Y-139098667D03*
X176890000Y-138596667D03*
X176890000Y-138094667D03*
X176890000Y-137592667D03*
X176890000Y-137090667D03*
X176890000Y-136588667D03*
X176890000Y-136086667D03*
X176890000Y-135584667D03*
X176890000Y-135082667D03*
X176890000Y-134580667D03*
X176890000Y-134078667D03*
X176890000Y-133576667D03*
X176890000Y-133074667D03*
X176890000Y-132572667D03*
D21*
X78896802Y-182553999D03*
X78896802Y-182051999D03*
X78896802Y-181549999D03*
X78896802Y-181047999D03*
X78896802Y-180545999D03*
X78896802Y-180043999D03*
X78896802Y-179541999D03*
X78896802Y-179039999D03*
X78896802Y-178537999D03*
X78896802Y-178035999D03*
X78896802Y-177533999D03*
X78896802Y-177031999D03*
X78896802Y-176529999D03*
X78896802Y-176027999D03*
X78896802Y-175525999D03*
X71064802Y-175525999D03*
X71064802Y-176027999D03*
X71064802Y-176529999D03*
X71064802Y-177031999D03*
X71064802Y-177533999D03*
X71064802Y-178035999D03*
X71064802Y-178537999D03*
X71064802Y-179039999D03*
X71064802Y-179541999D03*
X71064802Y-180043999D03*
X71064802Y-180545999D03*
X71064802Y-181047999D03*
X71064802Y-181549999D03*
X71064802Y-182051999D03*
X71064802Y-182553999D03*
D22*
X85344000Y-65085000D03*
X85344000Y-63185000D03*
D13*
X81280000Y-46802000D03*
X81280000Y-48702000D03*
D23*
X179832000Y-211377000D03*
X179832000Y-214327000D03*
D24*
X38087000Y-100779000D03*
X38087000Y-102929000D03*
X39637000Y-102929000D03*
X39637000Y-100779000D03*
D25*
X81915000Y-95963000D03*
X81915000Y-93013000D03*
D23*
X45720000Y-211377000D03*
X45720000Y-214327000D03*
D14*
X85024000Y-101346000D03*
X83124000Y-101346000D03*
D26*
X180683500Y-136398000D03*
X179488500Y-136398000D03*
D27*
X68528000Y-61270000D03*
X62028000Y-61270000D03*
D14*
X164780000Y-77470000D03*
X162880000Y-77470000D03*
D28*
X69342000Y-97331000D03*
X69342000Y-100281000D03*
D29*
X64135000Y-41647000D03*
X64135000Y-43697000D03*
D14*
X85024000Y-91186000D03*
X83124000Y-91186000D03*
D13*
X94996000Y-58740000D03*
X94996000Y-60640000D03*
D22*
X85344000Y-85405000D03*
X85344000Y-83505000D03*
D30*
X120699000Y-96774000D03*
X123649000Y-96774000D03*
D31*
X58838500Y-136398000D03*
X60033500Y-136398000D03*
D20*
X95353599Y-132572667D03*
X95353599Y-133074667D03*
X95353599Y-133576667D03*
X95353599Y-134078667D03*
X95353599Y-134580667D03*
X95353599Y-135082667D03*
X95353599Y-135584667D03*
X95353599Y-136086667D03*
X95353599Y-136588667D03*
X95353599Y-137090667D03*
X95353599Y-137592667D03*
X95353599Y-138094667D03*
X95353599Y-138596667D03*
X95353599Y-139098667D03*
X95353599Y-139600667D03*
X103185599Y-139600667D03*
X103185599Y-139098667D03*
X103185599Y-138596667D03*
X103185599Y-138094667D03*
X103185599Y-137592667D03*
X103185599Y-137090667D03*
X103185599Y-136588667D03*
X103185599Y-136086667D03*
X103185599Y-135584667D03*
X103185599Y-135082667D03*
X103185599Y-134580667D03*
X103185599Y-134078667D03*
X103185599Y-133576667D03*
X103185599Y-133074667D03*
X103185599Y-132572667D03*
D19*
X102745000Y-96520000D03*
X110615000Y-96520000D03*
D13*
X128778000Y-52644000D03*
X128778000Y-54544000D03*
D23*
X120226665Y-211377000D03*
X120226665Y-214327000D03*
D22*
X85344000Y-54925000D03*
X85344000Y-53025000D03*
D14*
X164780000Y-61468000D03*
X162880000Y-61468000D03*
D32*
X92520003Y-100290630D03*
X92520003Y-99790504D03*
X92520003Y-99290378D03*
D33*
X92320003Y-98790252D03*
D32*
X92520003Y-98290126D03*
D34*
X92520003Y-96540000D03*
X87820003Y-96540000D03*
D32*
X87820003Y-98290126D03*
X87820003Y-98790252D03*
X87820003Y-99290378D03*
X87820003Y-99790504D03*
X87820003Y-100290630D03*
D30*
X120699000Y-76800362D03*
X123649000Y-76800362D03*
D32*
X92520003Y-69810630D03*
X92520003Y-69310504D03*
X92520003Y-68810378D03*
D33*
X92320003Y-68310252D03*
D32*
X92520003Y-67810126D03*
D34*
X92520003Y-66060000D03*
X87820003Y-66060000D03*
D32*
X87820003Y-67810126D03*
X87820003Y-68310252D03*
X87820003Y-68810378D03*
X87820003Y-69310504D03*
X87820003Y-69810630D03*
D18*
X99060000Y-101242500D03*
X99060000Y-99417500D03*
D27*
X68528000Y-90820000D03*
X62028000Y-90820000D03*
D22*
X124460000Y-48702000D03*
X124460000Y-46802000D03*
D14*
X85024000Y-68834000D03*
X83124000Y-68834000D03*
D22*
X85344000Y-95565000D03*
X85344000Y-93665000D03*
D16*
X139766000Y-44450000D03*
X141666000Y-44450000D03*
D21*
X103331602Y-182553999D03*
X103331602Y-182051999D03*
X103331602Y-181549999D03*
X103331602Y-181047999D03*
X103331602Y-180545999D03*
X103331602Y-180043999D03*
X103331602Y-179541999D03*
X103331602Y-179039999D03*
X103331602Y-178537999D03*
X103331602Y-178035999D03*
X103331602Y-177533999D03*
X103331602Y-177031999D03*
X103331602Y-176529999D03*
X103331602Y-176027999D03*
X103331602Y-175525999D03*
X95499602Y-175525999D03*
X95499602Y-176027999D03*
X95499602Y-176529999D03*
X95499602Y-177031999D03*
X95499602Y-177533999D03*
X95499602Y-178035999D03*
X95499602Y-178537999D03*
X95499602Y-179039999D03*
X95499602Y-179541999D03*
X95499602Y-180043999D03*
X95499602Y-180545999D03*
X95499602Y-181047999D03*
X95499602Y-181549999D03*
X95499602Y-182051999D03*
X95499602Y-182553999D03*
D18*
X99060000Y-50442500D03*
X99060000Y-48617500D03*
D35*
X149000000Y-156765000D03*
X148500000Y-156765000D03*
X148000000Y-156765000D03*
X148000000Y-158235000D03*
X148500000Y-158235000D03*
X149000000Y-158235000D03*
D14*
X85024000Y-78994000D03*
X83124000Y-78994000D03*
D19*
X102745000Y-66040000D03*
X110615000Y-66040000D03*
D18*
X99060000Y-80922500D03*
X99060000Y-79097500D03*
D31*
X107352500Y-136398000D03*
X108547500Y-136398000D03*
D36*
X151130000Y-92813500D03*
X151130000Y-94638500D03*
D14*
X85024000Y-89154000D03*
X83124000Y-89154000D03*
D13*
X81280000Y-97602000D03*
X81280000Y-99502000D03*
D36*
X152146000Y-52427500D03*
X152146000Y-54252500D03*
D37*
X173614500Y-50358000D03*
X173614500Y-51308000D03*
X173614500Y-52258000D03*
X175889500Y-52258000D03*
X175889500Y-51308000D03*
X175889500Y-50358000D03*
D18*
X99060000Y-91082500D03*
X99060000Y-89257500D03*
D16*
X124780000Y-44704000D03*
X126680000Y-44704000D03*
D31*
X131990500Y-136398000D03*
X133185500Y-136398000D03*
D28*
X73152000Y-97331000D03*
X73152000Y-100281000D03*
D36*
X94996000Y-73509500D03*
X94996000Y-75334500D03*
D22*
X146050000Y-94676000D03*
X146050000Y-92776000D03*
D30*
X120699000Y-52832000D03*
X123649000Y-52832000D03*
D36*
X135890000Y-92813500D03*
X135890000Y-94638500D03*
D21*
X127766400Y-182554000D03*
X127766400Y-182052000D03*
X127766400Y-181550000D03*
X127766400Y-181048000D03*
X127766400Y-180546000D03*
X127766400Y-180044000D03*
X127766400Y-179542000D03*
X127766400Y-179040000D03*
X127766400Y-178538000D03*
X127766400Y-178036000D03*
X127766400Y-177534000D03*
X127766400Y-177032000D03*
X127766400Y-176530000D03*
X127766400Y-176028000D03*
X127766400Y-175526000D03*
X119934400Y-175526000D03*
X119934400Y-176028000D03*
X119934400Y-176530000D03*
X119934400Y-177032000D03*
X119934400Y-177534000D03*
X119934400Y-178036000D03*
X119934400Y-178538000D03*
X119934400Y-179040000D03*
X119934400Y-179542000D03*
X119934400Y-180044000D03*
X119934400Y-180546000D03*
X119934400Y-181048000D03*
X119934400Y-181550000D03*
X119934400Y-182052000D03*
X119934400Y-182554000D03*
D14*
X85024000Y-81026000D03*
X83124000Y-81026000D03*
D22*
X85344000Y-75245000D03*
X85344000Y-73345000D03*
D23*
X75522666Y-211377000D03*
X75522666Y-214327000D03*
D22*
X85344000Y-44765000D03*
X85344000Y-42865000D03*
D25*
X81915000Y-85803000D03*
X81915000Y-82853000D03*
X73279000Y-44401000D03*
X73279000Y-41451000D03*
D32*
X92520003Y-49490630D03*
X92520003Y-48990504D03*
X92520003Y-48490378D03*
D33*
X92320003Y-47990252D03*
D32*
X92520003Y-47490126D03*
D34*
X92520003Y-45740000D03*
X87820003Y-45740000D03*
D32*
X87820003Y-47490126D03*
X87820003Y-47990252D03*
X87820003Y-48490378D03*
X87820003Y-48990504D03*
X87820003Y-49490630D03*
D13*
X94996000Y-89220000D03*
X94996000Y-91120000D03*
D19*
X102745000Y-45720000D03*
X110615000Y-45720000D03*
X102745000Y-55880000D03*
X110615000Y-55880000D03*
D17*
X121261500Y-34544000D03*
X123086500Y-34544000D03*
D16*
X97094000Y-63500000D03*
X98994000Y-63500000D03*
D36*
X94996000Y-83669500D03*
X94996000Y-85494500D03*
D38*
X129180000Y-38390000D03*
X129180000Y-38890000D03*
X129180000Y-39390000D03*
X129180000Y-39890000D03*
X129180000Y-40390000D03*
X129180000Y-40890000D03*
X129180000Y-41390000D03*
X129180000Y-41890000D03*
X129180000Y-42390000D03*
X129180000Y-42890000D03*
D39*
X129830000Y-43540000D03*
X130330000Y-43540000D03*
X130830000Y-43540000D03*
X131330000Y-43540000D03*
X131830000Y-43540000D03*
X132330000Y-43540000D03*
X132830000Y-43540000D03*
X133330000Y-43540000D03*
X133830000Y-43540000D03*
X134330000Y-43540000D03*
D38*
X134980000Y-42890000D03*
X134980000Y-42390000D03*
X134980000Y-41890000D03*
X134980000Y-41390000D03*
X134980000Y-40890000D03*
X134980000Y-40390000D03*
X134980000Y-39890000D03*
X134980000Y-39390000D03*
X134980000Y-38890000D03*
X134980000Y-38390000D03*
D39*
X134330000Y-37740000D03*
X133830000Y-37740000D03*
X133330000Y-37740000D03*
X132830000Y-37740000D03*
X132330000Y-37740000D03*
X131830000Y-37740000D03*
X131330000Y-37740000D03*
X130830000Y-37740000D03*
X130330000Y-37740000D03*
X129830000Y-37740000D03*
D14*
X123124000Y-36576000D03*
X121224000Y-36576000D03*
D18*
X128778000Y-48664500D03*
X128778000Y-46839500D03*
D36*
X94996000Y-43029500D03*
X94996000Y-44854500D03*
D13*
X97028000Y-99380000D03*
X97028000Y-101280000D03*
X81280000Y-77231200D03*
X81280000Y-79131200D03*
D23*
X90423999Y-211377000D03*
X90423999Y-214327000D03*
X60621333Y-211377000D03*
X60621333Y-214327000D03*
D22*
X138938000Y-48702000D03*
X138938000Y-46802000D03*
D13*
X97028000Y-48580000D03*
X97028000Y-50480000D03*
X81280000Y-87442000D03*
X81280000Y-89342000D03*
D21*
X176636000Y-182554000D03*
X176636000Y-182052000D03*
X176636000Y-181550000D03*
X176636000Y-181048000D03*
X176636000Y-180546000D03*
X176636000Y-180044000D03*
X176636000Y-179542000D03*
X176636000Y-179040000D03*
X176636000Y-178538000D03*
X176636000Y-178036000D03*
X176636000Y-177534000D03*
X176636000Y-177032000D03*
X176636000Y-176530000D03*
X176636000Y-176028000D03*
X176636000Y-175526000D03*
X168804000Y-175526000D03*
X168804000Y-176028000D03*
X168804000Y-176530000D03*
X168804000Y-177032000D03*
X168804000Y-177534000D03*
X168804000Y-178036000D03*
X168804000Y-178538000D03*
X168804000Y-179040000D03*
X168804000Y-179542000D03*
X168804000Y-180044000D03*
X168804000Y-180546000D03*
X168804000Y-181048000D03*
X168804000Y-181550000D03*
X168804000Y-182052000D03*
X168804000Y-182554000D03*
D14*
X85024000Y-50546000D03*
X83124000Y-50546000D03*
D18*
X128000000Y-105912500D03*
X128000000Y-104087500D03*
D25*
X77089000Y-44401000D03*
X77089000Y-41451000D03*
D13*
X94996000Y-99380000D03*
X94996000Y-101280000D03*
D30*
X120699000Y-84789816D03*
X123649000Y-84789816D03*
D23*
X164930664Y-211377000D03*
X164930664Y-214327000D03*
D15*
X45513000Y-92583000D03*
X43688000Y-92583000D03*
D17*
X173839500Y-54102000D03*
X175664500Y-54102000D03*
D36*
X127254000Y-32869500D03*
X127254000Y-34694500D03*
X138430000Y-32869500D03*
X138430000Y-34694500D03*
D35*
X75500000Y-156765000D03*
X75000000Y-156765000D03*
X74500000Y-156765000D03*
X74500000Y-158235000D03*
X75000000Y-158235000D03*
X75500000Y-158235000D03*
D20*
X46884000Y-132660000D03*
X46884000Y-133162000D03*
X46884000Y-133664000D03*
X46884000Y-134166000D03*
X46884000Y-134668000D03*
X46884000Y-135170000D03*
X46884000Y-135672000D03*
X46884000Y-136174000D03*
X46884000Y-136676000D03*
X46884000Y-137178000D03*
X46884000Y-137680000D03*
X46884000Y-138182000D03*
X46884000Y-138684000D03*
X46884000Y-139186000D03*
X46884000Y-139688000D03*
X54716000Y-139688000D03*
X54716000Y-139186000D03*
X54716000Y-138684000D03*
X54716000Y-138182000D03*
X54716000Y-137680000D03*
X54716000Y-137178000D03*
X54716000Y-136676000D03*
X54716000Y-136174000D03*
X54716000Y-135672000D03*
X54716000Y-135170000D03*
X54716000Y-134668000D03*
X54716000Y-134166000D03*
X54716000Y-133664000D03*
X54716000Y-133162000D03*
X54716000Y-132660000D03*
D22*
X133350000Y-94676000D03*
X133350000Y-92776000D03*
D30*
X120699000Y-68810908D03*
X123649000Y-68810908D03*
D31*
X156374500Y-136398000D03*
X157569500Y-136398000D03*
D20*
X144489865Y-132572667D03*
X144489865Y-133074667D03*
X144489865Y-133576667D03*
X144489865Y-134078667D03*
X144489865Y-134580667D03*
X144489865Y-135082667D03*
X144489865Y-135584667D03*
X144489865Y-136086667D03*
X144489865Y-136588667D03*
X144489865Y-137090667D03*
X144489865Y-137592667D03*
X144489865Y-138094667D03*
X144489865Y-138596667D03*
X144489865Y-139098667D03*
X144489865Y-139600667D03*
X152321865Y-139600667D03*
X152321865Y-139098667D03*
X152321865Y-138596667D03*
X152321865Y-138094667D03*
X152321865Y-137592667D03*
X152321865Y-137090667D03*
X152321865Y-136588667D03*
X152321865Y-136086667D03*
X152321865Y-135584667D03*
X152321865Y-135082667D03*
X152321865Y-134580667D03*
X152321865Y-134078667D03*
X152321865Y-133576667D03*
X152321865Y-133074667D03*
X152321865Y-132572667D03*
D25*
X69469000Y-44401000D03*
X69469000Y-41451000D03*
D40*
X138857500Y-85106000D03*
X138857500Y-85606000D03*
X138857500Y-86106000D03*
X138857500Y-86606000D03*
X138857500Y-87106000D03*
X143082500Y-87106000D03*
X143082500Y-86606000D03*
X143082500Y-86106000D03*
X143082500Y-85606000D03*
X143082500Y-85106000D03*
D21*
X54462002Y-182553999D03*
X54462002Y-182051999D03*
X54462002Y-181549999D03*
X54462002Y-181047999D03*
X54462002Y-180545999D03*
X54462002Y-180043999D03*
X54462002Y-179541999D03*
X54462002Y-179039999D03*
X54462002Y-178537999D03*
X54462002Y-178035999D03*
X54462002Y-177533999D03*
X54462002Y-177031999D03*
X54462002Y-176529999D03*
X54462002Y-176027999D03*
X54462002Y-175525999D03*
X46630002Y-175525999D03*
X46630002Y-176027999D03*
X46630002Y-176529999D03*
X46630002Y-177031999D03*
X46630002Y-177533999D03*
X46630002Y-178035999D03*
X46630002Y-178537999D03*
X46630002Y-179039999D03*
X46630002Y-179541999D03*
X46630002Y-180043999D03*
X46630002Y-180545999D03*
X46630002Y-181047999D03*
X46630002Y-181549999D03*
X46630002Y-182051999D03*
X46630002Y-182553999D03*
D28*
X76962000Y-97331000D03*
X76962000Y-100281000D03*
D23*
X135127998Y-211377000D03*
X135127998Y-214327000D03*
D14*
X85024000Y-60706000D03*
X83124000Y-60706000D03*
D16*
X97094000Y-73660000D03*
X98994000Y-73660000D03*
D13*
X81280000Y-67122000D03*
X81280000Y-69022000D03*
D32*
X92520003Y-90130630D03*
X92520003Y-89630504D03*
X92520003Y-89130378D03*
D33*
X92320003Y-88630252D03*
D32*
X92520003Y-88130126D03*
D34*
X92520003Y-86380000D03*
X87820003Y-86380000D03*
D32*
X87820003Y-88130126D03*
X87820003Y-88630252D03*
X87820003Y-89130378D03*
X87820003Y-89630504D03*
X87820003Y-90130630D03*
D13*
X97028000Y-58740000D03*
X97028000Y-60640000D03*
D16*
X97094000Y-53340000D03*
X98994000Y-53340000D03*
D26*
X115659500Y-178816000D03*
X114464500Y-178816000D03*
D18*
X136398000Y-34694500D03*
X136398000Y-32869500D03*
D22*
X178943000Y-52258000D03*
X178943000Y-50358000D03*
D27*
X68528000Y-71120000D03*
X62028000Y-71120000D03*
D36*
X130810000Y-46839500D03*
X130810000Y-48664500D03*
X94996000Y-53189500D03*
X94996000Y-55014500D03*
D41*
X45818000Y-96856000D03*
X45818000Y-97506000D03*
X45818000Y-98156000D03*
X45818000Y-98806000D03*
X45818000Y-99456000D03*
X45818000Y-100106000D03*
X45818000Y-100756000D03*
X51718000Y-100756000D03*
X51718000Y-100106000D03*
X51718000Y-99456000D03*
X51718000Y-98806000D03*
X51718000Y-98156000D03*
X51718000Y-97506000D03*
X51718000Y-96856000D03*
D42*
X48018000Y-97906000D03*
X48018000Y-99706000D03*
X49518000Y-97906000D03*
X49518000Y-99706000D03*
D25*
X81915000Y-75643000D03*
X81915000Y-72693000D03*
D23*
X150029331Y-211377000D03*
X150029331Y-214327000D03*
D14*
X39812000Y-98552000D03*
X37912000Y-98552000D03*
D21*
X152201200Y-182554000D03*
X152201200Y-182052000D03*
X152201200Y-181550000D03*
X152201200Y-181048000D03*
X152201200Y-180546000D03*
X152201200Y-180044000D03*
X152201200Y-179542000D03*
X152201200Y-179040000D03*
X152201200Y-178538000D03*
X152201200Y-178036000D03*
X152201200Y-177534000D03*
X152201200Y-177032000D03*
X152201200Y-176530000D03*
X152201200Y-176028000D03*
X152201200Y-175526000D03*
X144369200Y-175526000D03*
X144369200Y-176028000D03*
X144369200Y-176530000D03*
X144369200Y-177032000D03*
X144369200Y-177534000D03*
X144369200Y-178036000D03*
X144369200Y-178538000D03*
X144369200Y-179040000D03*
X144369200Y-179542000D03*
X144369200Y-180044000D03*
X144369200Y-180546000D03*
X144369200Y-181048000D03*
X144369200Y-181550000D03*
X144369200Y-182052000D03*
X144369200Y-182554000D03*
D25*
X163830000Y-50243000D03*
X163830000Y-47293000D03*
D36*
X141986000Y-75287500D03*
X141986000Y-77112500D03*
D32*
X92520003Y-79970630D03*
X92520003Y-79470504D03*
X92520003Y-78970378D03*
D33*
X92320003Y-78470252D03*
D32*
X92520003Y-77970126D03*
D34*
X92520003Y-76220000D03*
X87820003Y-76220000D03*
D32*
X87820003Y-77970126D03*
X87820003Y-78470252D03*
X87820003Y-78970378D03*
X87820003Y-79470504D03*
X87820003Y-79970630D03*
D43*
X181568000Y-96165000D03*
X182668000Y-96165000D03*
X182668000Y-94335000D03*
X181568000Y-94335000D03*
D36*
X129286000Y-32869500D03*
X129286000Y-34694500D03*
D30*
X120699000Y-60821454D03*
X123649000Y-60821454D03*
D13*
X94996000Y-79060000D03*
X94996000Y-80960000D03*
D19*
X102745000Y-76200000D03*
X110615000Y-76200000D03*
D18*
X99060000Y-60602500D03*
X99060000Y-58777500D03*
D13*
X97028000Y-68900000D03*
X97028000Y-70800000D03*
D23*
X105325332Y-211377000D03*
X105325332Y-214327000D03*
D32*
X92520003Y-59650630D03*
X92520003Y-59150504D03*
X92520003Y-58650378D03*
D33*
X92320003Y-58150252D03*
D32*
X92520003Y-57650126D03*
D34*
X92520003Y-55900000D03*
X87820003Y-55900000D03*
D32*
X87820003Y-57650126D03*
X87820003Y-58150252D03*
X87820003Y-58650378D03*
X87820003Y-59150504D03*
X87820003Y-59650630D03*
D26*
X164592000Y-178816000D03*
X163397000Y-178816000D03*
D30*
X120699000Y-80795089D03*
X123649000Y-80795089D03*
D36*
X145796000Y-75287500D03*
X145796000Y-77112500D03*
X64135000Y-37949500D03*
X64135000Y-39774500D03*
D30*
X120699000Y-64816181D03*
X123649000Y-64816181D03*
D14*
X85024000Y-99314000D03*
X83124000Y-99314000D03*
D44*
X168656000Y-46714000D03*
X168656000Y-50314000D03*
D13*
X135890000Y-85410000D03*
X135890000Y-87310000D03*
X94996000Y-48580000D03*
X94996000Y-50480000D03*
D22*
X125222000Y-34732000D03*
X125222000Y-32832000D03*
X140462000Y-34732000D03*
X140462000Y-32832000D03*
D36*
X94996000Y-63349500D03*
X94996000Y-65174500D03*
D30*
X120699000Y-72805635D03*
X123649000Y-72805635D03*
D31*
X82714500Y-136398000D03*
X83909500Y-136398000D03*
D26*
X66891500Y-178816000D03*
X65696500Y-178816000D03*
D36*
X138430000Y-92813500D03*
X138430000Y-94638500D03*
D22*
X134874000Y-48702000D03*
X134874000Y-46802000D03*
D14*
X85024000Y-48514000D03*
X83124000Y-48514000D03*
D13*
X132842000Y-46802000D03*
X132842000Y-48702000D03*
D26*
X140297500Y-178816000D03*
X139102500Y-178816000D03*
D13*
X97028000Y-89220000D03*
X97028000Y-91120000D03*
D16*
X97094000Y-93980000D03*
X98994000Y-93980000D03*
D13*
X81280000Y-56962000D03*
X81280000Y-58862000D03*
D18*
X136906000Y-48664500D03*
X136906000Y-46839500D03*
D22*
X173609000Y-48575000D03*
X173609000Y-46675000D03*
D18*
X140970000Y-48664500D03*
X140970000Y-46839500D03*
D27*
X68528000Y-80970000D03*
X62028000Y-80970000D03*
D14*
X85024000Y-58674000D03*
X83124000Y-58674000D03*
D36*
X94996000Y-93829500D03*
X94996000Y-95654500D03*
D16*
X97094000Y-83820000D03*
X98994000Y-83820000D03*
D30*
X120699000Y-56826727D03*
X123649000Y-56826727D03*
X120699000Y-92779270D03*
X123649000Y-92779270D03*
D13*
X94996000Y-68900000D03*
X94996000Y-70800000D03*
D20*
X119921732Y-132572667D03*
X119921732Y-133074667D03*
X119921732Y-133576667D03*
X119921732Y-134078667D03*
X119921732Y-134580667D03*
X119921732Y-135082667D03*
X119921732Y-135584667D03*
X119921732Y-136086667D03*
X119921732Y-136588667D03*
X119921732Y-137090667D03*
X119921732Y-137592667D03*
X119921732Y-138094667D03*
X119921732Y-138596667D03*
X119921732Y-139098667D03*
X119921732Y-139600667D03*
X127753732Y-139600667D03*
X127753732Y-139098667D03*
X127753732Y-138596667D03*
X127753732Y-138094667D03*
X127753732Y-137592667D03*
X127753732Y-137090667D03*
X127753732Y-136588667D03*
X127753732Y-136086667D03*
X127753732Y-135584667D03*
X127753732Y-135082667D03*
X127753732Y-134580667D03*
X127753732Y-134078667D03*
X127753732Y-133576667D03*
X127753732Y-133074667D03*
X127753732Y-132572667D03*
D13*
X130810000Y-52644000D03*
X130810000Y-54544000D03*
D25*
X81915000Y-55323000D03*
X81915000Y-52373000D03*
D13*
X178816000Y-94300000D03*
X178816000Y-96200000D03*
X126746000Y-46802000D03*
X126746000Y-48702000D03*
D14*
X85024000Y-70866000D03*
X83124000Y-70866000D03*
D25*
X81915000Y-45163000D03*
X81915000Y-42213000D03*
D36*
X148590000Y-92813500D03*
X148590000Y-94638500D03*
D18*
X99060000Y-70762500D03*
X99060000Y-68937500D03*
D26*
X91275500Y-178816000D03*
X90080500Y-178816000D03*
D45*
X168570000Y-43815000D03*
X164170000Y-43815000D03*
D20*
X70785466Y-132572667D03*
X70785466Y-133074667D03*
X70785466Y-133576667D03*
X70785466Y-134078667D03*
X70785466Y-134580667D03*
X70785466Y-135082667D03*
X70785466Y-135584667D03*
X70785466Y-136086667D03*
X70785466Y-136588667D03*
X70785466Y-137090667D03*
X70785466Y-137592667D03*
X70785466Y-138094667D03*
X70785466Y-138596667D03*
X70785466Y-139098667D03*
X70785466Y-139600667D03*
X78617466Y-139600667D03*
X78617466Y-139098667D03*
X78617466Y-138596667D03*
X78617466Y-138094667D03*
X78617466Y-137592667D03*
X78617466Y-137090667D03*
X78617466Y-136588667D03*
X78617466Y-136086667D03*
X78617466Y-135584667D03*
X78617466Y-135082667D03*
X78617466Y-134580667D03*
X78617466Y-134078667D03*
X78617466Y-133576667D03*
X78617466Y-133074667D03*
X78617466Y-132572667D03*
D25*
X81915000Y-65483000D03*
X81915000Y-62533000D03*
D30*
X120699000Y-88784543D03*
X123649000Y-88784543D03*
M02*
